<svg xmlns="http://www.w3.org/2000/svg" xmlns:xlink="http://www.w3.org/1999/xlink" width="434" zoomAndPan="magnify" viewBox="0 0 325.5 324.749995" height="433" preserveAspectRatio="xMidYMid meet" version="1.0"><defs><clipPath id="708bbc1c32"><path d="M 0 0.125 L 324.921875 0.125 L 324.921875 323.78125 L 0 323.78125 Z M 0 0.125 " clip-rule="nonzero"/></clipPath><clipPath id="98b9869b07"><path d="M 74.886719 0.125 L 249.449219 0.125 C 269.3125 0.125 288.359375 8.015625 302.402344 22.058594 C 316.445312 36.101562 324.335938 55.148438 324.335938 75.007812 L 324.335938 248.898438 C 324.335938 268.757812 316.445312 287.804688 302.402344 301.847656 C 288.359375 315.894531 269.3125 323.78125 249.449219 323.78125 L 74.886719 323.78125 C 55.023438 323.78125 35.976562 315.894531 21.933594 301.847656 C 7.890625 287.804688 0 268.757812 0 248.898438 L 0 75.007812 C 0 55.148438 7.890625 36.101562 21.933594 22.058594 C 35.976562 8.015625 55.023438 0.125 74.886719 0.125 Z M 74.886719 0.125 " clip-rule="nonzero"/></clipPath><clipPath id="06b5160f9e"><path d="M 0 0.125 L 324.460938 0.125 L 324.460938 323.78125 L 0 323.78125 Z M 0 0.125 " clip-rule="nonzero"/></clipPath><clipPath id="e6a0423dfa"><path d="M 74.886719 0.125 L 249.449219 0.125 C 269.3125 0.125 288.359375 8.015625 302.402344 22.058594 C 316.445312 36.101562 324.335938 55.148438 324.335938 75.007812 L 324.335938 248.898438 C 324.335938 268.757812 316.445312 287.804688 302.402344 301.847656 C 288.359375 315.894531 269.3125 323.78125 249.449219 323.78125 L 74.886719 323.78125 C 55.023438 323.78125 35.976562 315.894531 21.933594 301.847656 C 7.890625 287.804688 0 268.757812 0 248.898438 L 0 75.007812 C 0 55.148438 7.890625 36.101562 21.933594 22.058594 C 35.976562 8.015625 55.023438 0.125 74.886719 0.125 Z M 74.886719 0.125 " clip-rule="nonzero"/></clipPath><clipPath id="4086463d5c"><rect x="0" width="325" y="0" height="324"/></clipPath><clipPath id="d0d9d21ac6"><path d="M 245.535156 95.382812 L 256.203125 95.382812 L 256.203125 137.851562 L 245.535156 137.851562 Z M 245.535156 95.382812 " clip-rule="nonzero"/></clipPath><clipPath id="7e46edbad8"><path d="M 0.535156 0.382812 L 11.203125 0.382812 L 11.203125 42.851562 L 0.535156 42.851562 Z M 0.535156 0.382812 " clip-rule="nonzero"/></clipPath><clipPath id="8bf6cdeafd"><rect x="0" width="12" y="0" height="43"/></clipPath><clipPath id="cb0ca7da9e"><path d="M 136.660156 197.980469 L 187.675781 197.980469 L 187.675781 267.527344 L 136.660156 267.527344 Z M 136.660156 197.980469 " clip-rule="nonzero"/></clipPath><clipPath id="aa08af04c9"><path d="M 162.167969 197.980469 L 187.675781 232.699219 L 162.167969 267.417969 L 136.660156 232.699219 Z M 162.167969 197.980469 " clip-rule="nonzero"/></clipPath><clipPath id="7333aa8ec7"><path d="M 0.660156 0.980469 L 51.675781 0.980469 L 51.675781 70.527344 L 0.660156 70.527344 Z M 0.660156 0.980469 " clip-rule="nonzero"/></clipPath><clipPath id="3eb12d7824"><path d="M 26.167969 0.980469 L 51.675781 35.699219 L 26.167969 70.417969 L 0.660156 35.699219 Z M 26.167969 0.980469 " clip-rule="nonzero"/></clipPath><clipPath id="70b3d4aebd"><rect x="0" width="52" y="0" height="71"/></clipPath><clipPath id="fe921337f7"><path d="M 52.683594 60.414062 L 271.804688 60.414062 L 271.804688 142.785156 L 52.683594 142.785156 Z M 52.683594 60.414062 " clip-rule="nonzero"/></clipPath><clipPath id="9d616600d5"><path d="M 162.167969 60.414062 L 271.652344 101.601562 L 162.167969 142.785156 L 52.683594 101.601562 Z M 162.167969 60.414062 " clip-rule="nonzero"/></clipPath><clipPath id="9780554b40"><path d="M 0.683594 0.414062 L 219.742188 0.414062 L 219.742188 82.785156 L 0.683594 82.785156 Z M 0.683594 0.414062 " clip-rule="nonzero"/></clipPath><clipPath id="75f6fd01cf"><path d="M 110.167969 0.414062 L 219.652344 41.601562 L 110.167969 82.785156 L 0.683594 41.601562 Z M 110.167969 0.414062 " clip-rule="nonzero"/></clipPath><clipPath id="98c804c75e"><rect x="0" width="220" y="0" height="83"/></clipPath><clipPath id="f19a297d82"><path d="M 50.300781 116.660156 L 173.183594 116.660156 L 173.183594 239.539062 L 50.300781 239.539062 Z M 50.300781 116.660156 " clip-rule="nonzero"/></clipPath><clipPath id="50287c92f2"><path d="M 111.742188 116.660156 C 77.808594 116.660156 50.300781 144.167969 50.300781 178.101562 C 50.300781 212.03125 77.808594 239.539062 111.742188 239.539062 C 145.675781 239.539062 173.183594 212.03125 173.183594 178.101562 C 173.183594 144.167969 145.675781 116.660156 111.742188 116.660156 Z M 111.742188 116.660156 " clip-rule="nonzero"/></clipPath><clipPath id="2b316ec4e2"><path d="M 0.300781 0.660156 L 123.183594 0.660156 L 123.183594 123.539062 L 0.300781 123.539062 Z M 0.300781 0.660156 " clip-rule="nonzero"/></clipPath><clipPath id="44bbd66b2f"><path d="M 61.742188 0.660156 C 27.808594 0.660156 0.300781 28.167969 0.300781 62.101562 C 0.300781 96.03125 27.808594 123.539062 61.742188 123.539062 C 95.675781 123.539062 123.183594 96.03125 123.183594 62.101562 C 123.183594 28.167969 95.675781 0.660156 61.742188 0.660156 Z M 61.742188 0.660156 " clip-rule="nonzero"/></clipPath><clipPath id="3347a730fd"><rect x="0" width="124" y="0" height="124"/></clipPath><clipPath id="31c6c40d37"><path d="M 149.816406 118.550781 L 272.695312 118.550781 L 272.695312 241.433594 L 149.816406 241.433594 Z M 149.816406 118.550781 " clip-rule="nonzero"/></clipPath><clipPath id="23f22d2e06"><path d="M 211.253906 118.550781 C 177.324219 118.550781 149.816406 146.058594 149.816406 179.992188 C 149.816406 213.925781 177.324219 241.433594 211.253906 241.433594 C 245.1875 241.433594 272.695312 213.925781 272.695312 179.992188 C 272.695312 146.058594 245.1875 118.550781 211.253906 118.550781 Z M 211.253906 118.550781 " clip-rule="nonzero"/></clipPath><clipPath id="57a6417d09"><path d="M 0.816406 0.550781 L 123.695312 0.550781 L 123.695312 123.433594 L 0.816406 123.433594 Z M 0.816406 0.550781 " clip-rule="nonzero"/></clipPath><clipPath id="c41f710e33"><path d="M 62.253906 0.550781 C 28.324219 0.550781 0.816406 28.058594 0.816406 61.992188 C 0.816406 95.925781 28.324219 123.433594 62.253906 123.433594 C 96.1875 123.433594 123.695312 95.925781 123.695312 61.992188 C 123.695312 28.058594 96.1875 0.550781 62.253906 0.550781 Z M 62.253906 0.550781 " clip-rule="nonzero"/></clipPath><clipPath id="92d42bbf65"><rect x="0" width="124" y="0" height="124"/></clipPath><clipPath id="1049c777ea"><path d="M 215.90625 159.261719 L 238.136719 159.261719 L 238.136719 181.492188 L 215.90625 181.492188 Z M 215.90625 159.261719 " clip-rule="nonzero"/></clipPath><clipPath id="09569ca32d"><path d="M 227.019531 159.261719 C 220.882812 159.261719 215.90625 164.238281 215.90625 170.375 C 215.90625 176.515625 220.882812 181.492188 227.019531 181.492188 C 233.160156 181.492188 238.136719 176.515625 238.136719 170.375 C 238.136719 164.238281 233.160156 159.261719 227.019531 159.261719 Z M 227.019531 159.261719 " clip-rule="nonzero"/></clipPath><clipPath id="924e0b4069"><path d="M 0.90625 0.261719 L 23.136719 0.261719 L 23.136719 22.492188 L 0.90625 22.492188 Z M 0.90625 0.261719 " clip-rule="nonzero"/></clipPath><clipPath id="e2bad71e3e"><path d="M 12.019531 0.261719 C 5.882812 0.261719 0.90625 5.238281 0.90625 11.375 C 0.90625 17.515625 5.882812 22.492188 12.019531 22.492188 C 18.160156 22.492188 23.136719 17.515625 23.136719 11.375 C 23.136719 5.238281 18.160156 0.261719 12.019531 0.261719 Z M 12.019531 0.261719 " clip-rule="nonzero"/></clipPath><clipPath id="ccc2f91cfa"><rect x="0" width="24" y="0" height="23"/></clipPath><clipPath id="72e78c681e"><path d="M 66.039062 137.851562 L 155.949219 137.851562 L 155.949219 227.761719 L 66.039062 227.761719 Z M 66.039062 137.851562 " clip-rule="nonzero"/></clipPath><clipPath id="a936bdf618"><path d="M 110.992188 137.851562 C 86.164062 137.851562 66.039062 157.980469 66.039062 182.808594 C 66.039062 207.632812 86.164062 227.761719 110.992188 227.761719 C 135.820312 227.761719 155.949219 207.632812 155.949219 182.808594 C 155.949219 157.980469 135.820312 137.851562 110.992188 137.851562 Z M 110.992188 137.851562 " clip-rule="nonzero"/></clipPath><clipPath id="e5fd5e71bf"><path d="M 0.0390625 0.851562 L 89.949219 0.851562 L 89.949219 90.761719 L 0.0390625 90.761719 Z M 0.0390625 0.851562 " clip-rule="nonzero"/></clipPath><clipPath id="8a5cc39331"><path d="M 44.992188 0.851562 C 20.164062 0.851562 0.0390625 20.980469 0.0390625 45.808594 C 0.0390625 70.632812 20.164062 90.761719 44.992188 90.761719 C 69.820312 90.761719 89.949219 70.632812 89.949219 45.808594 C 89.949219 20.980469 69.820312 0.851562 44.992188 0.851562 Z M 44.992188 0.851562 " clip-rule="nonzero"/></clipPath><clipPath id="1e7635df32"><rect x="0" width="90" y="0" height="91"/></clipPath><clipPath id="45b118ebae"><path d="M 87.445312 159.261719 L 134.539062 159.261719 L 134.539062 206.351562 L 87.445312 206.351562 Z M 87.445312 159.261719 " clip-rule="nonzero"/></clipPath><clipPath id="90a950e2b7"><path d="M 110.992188 159.261719 C 97.988281 159.261719 87.445312 169.804688 87.445312 182.808594 C 87.445312 195.8125 97.988281 206.351562 110.992188 206.351562 C 123.996094 206.351562 134.539062 195.8125 134.539062 182.808594 C 134.539062 169.804688 123.996094 159.261719 110.992188 159.261719 Z M 110.992188 159.261719 " clip-rule="nonzero"/></clipPath><clipPath id="ebbc24069f"><path d="M 0.445312 0.261719 L 47.539062 0.261719 L 47.539062 47.351562 L 0.445312 47.351562 Z M 0.445312 0.261719 " clip-rule="nonzero"/></clipPath><clipPath id="67f335e72d"><path d="M 23.992188 0.261719 C 10.988281 0.261719 0.445312 10.804688 0.445312 23.808594 C 0.445312 36.8125 10.988281 47.351562 23.992188 47.351562 C 36.996094 47.351562 47.539062 36.8125 47.539062 23.808594 C 47.539062 10.804688 36.996094 0.261719 23.992188 0.261719 Z M 23.992188 0.261719 " clip-rule="nonzero"/></clipPath><clipPath id="e93c408284"><rect x="0" width="48" y="0" height="48"/></clipPath><clipPath id="95e95eab71"><path d="M 118.390625 159.261719 L 136.660156 159.261719 L 136.660156 177.53125 L 118.390625 177.53125 Z M 118.390625 159.261719 " clip-rule="nonzero"/></clipPath><clipPath id="eec4e00e85"><path d="M 127.527344 159.261719 C 122.480469 159.261719 118.390625 163.351562 118.390625 168.394531 C 118.390625 173.441406 122.480469 177.53125 127.527344 177.53125 C 132.570312 177.53125 136.660156 173.441406 136.660156 168.394531 C 136.660156 163.351562 132.570312 159.261719 127.527344 159.261719 Z M 127.527344 159.261719 " clip-rule="nonzero"/></clipPath><clipPath id="1bcdaac7f6"><path d="M 0.390625 0.261719 L 18.660156 0.261719 L 18.660156 18.53125 L 0.390625 18.53125 Z M 0.390625 0.261719 " clip-rule="nonzero"/></clipPath><clipPath id="44d91863cf"><path d="M 9.527344 0.261719 C 4.480469 0.261719 0.390625 4.351562 0.390625 9.394531 C 0.390625 14.441406 4.480469 18.53125 9.527344 18.53125 C 14.570312 18.53125 18.660156 14.441406 18.660156 9.394531 C 18.660156 4.351562 14.570312 0.261719 9.527344 0.261719 Z M 9.527344 0.261719 " clip-rule="nonzero"/></clipPath><clipPath id="81cc1d5859"><rect x="0" width="19" y="0" height="19"/></clipPath><clipPath id="5b2a08586a"><path d="M 170.949219 137.851562 L 260.859375 137.851562 L 260.859375 227.761719 L 170.949219 227.761719 Z M 170.949219 137.851562 " clip-rule="nonzero"/></clipPath><clipPath id="867d0a26a9"><path d="M 215.90625 137.851562 C 191.078125 137.851562 170.949219 157.980469 170.949219 182.808594 C 170.949219 207.632812 191.078125 227.761719 215.90625 227.761719 C 240.734375 227.761719 260.859375 207.632812 260.859375 182.808594 C 260.859375 157.980469 240.734375 137.851562 215.90625 137.851562 Z M 215.90625 137.851562 " clip-rule="nonzero"/></clipPath><clipPath id="aebf256a12"><path d="M 0.949219 0.851562 L 90.859375 0.851562 L 90.859375 90.761719 L 0.949219 90.761719 Z M 0.949219 0.851562 " clip-rule="nonzero"/></clipPath><clipPath id="42ca0e6c75"><path d="M 45.90625 0.851562 C 21.078125 0.851562 0.949219 20.980469 0.949219 45.808594 C 0.949219 70.632812 21.078125 90.761719 45.90625 90.761719 C 70.734375 90.761719 90.859375 70.632812 90.859375 45.808594 C 90.859375 20.980469 70.734375 0.851562 45.90625 0.851562 Z M 45.90625 0.851562 " clip-rule="nonzero"/></clipPath><clipPath id="b36486a0f9"><rect x="0" width="91" y="0" height="91"/></clipPath><clipPath id="3dc736f515"><path d="M 192.359375 159.261719 L 239.453125 159.261719 L 239.453125 206.351562 L 192.359375 206.351562 Z M 192.359375 159.261719 " clip-rule="nonzero"/></clipPath><clipPath id="f544763284"><path d="M 215.90625 159.261719 C 202.902344 159.261719 192.359375 169.804688 192.359375 182.808594 C 192.359375 195.8125 202.902344 206.351562 215.90625 206.351562 C 228.910156 206.351562 239.453125 195.8125 239.453125 182.808594 C 239.453125 169.804688 228.910156 159.261719 215.90625 159.261719 Z M 215.90625 159.261719 " clip-rule="nonzero"/></clipPath><clipPath id="47a1227100"><path d="M 0.359375 0.261719 L 47.453125 0.261719 L 47.453125 47.351562 L 0.359375 47.351562 Z M 0.359375 0.261719 " clip-rule="nonzero"/></clipPath><clipPath id="110983c52c"><path d="M 23.90625 0.261719 C 10.902344 0.261719 0.359375 10.804688 0.359375 23.808594 C 0.359375 36.8125 10.902344 47.351562 23.90625 47.351562 C 36.910156 47.351562 47.453125 36.8125 47.453125 23.808594 C 47.453125 10.804688 36.910156 0.261719 23.90625 0.261719 Z M 23.90625 0.261719 " clip-rule="nonzero"/></clipPath><clipPath id="6556acdfb2"><rect x="0" width="48" y="0" height="48"/></clipPath><clipPath id="20b59ef1ce"><path d="M 223.304688 159.261719 L 242.144531 159.261719 L 242.144531 178.101562 L 223.304688 178.101562 Z M 223.304688 159.261719 " clip-rule="nonzero"/></clipPath><clipPath id="98a0bb9239"><path d="M 232.722656 159.261719 C 227.519531 159.261719 223.304688 163.476562 223.304688 168.679688 C 223.304688 173.882812 227.519531 178.101562 232.722656 178.101562 C 237.925781 178.101562 242.144531 173.882812 242.144531 168.679688 C 242.144531 163.476562 237.925781 159.261719 232.722656 159.261719 Z M 232.722656 159.261719 " clip-rule="nonzero"/></clipPath><clipPath id="5d40091cf2"><path d="M 0.304688 0.261719 L 19.144531 0.261719 L 19.144531 19.101562 L 0.304688 19.101562 Z M 0.304688 0.261719 " clip-rule="nonzero"/></clipPath><clipPath id="3ffbad179f"><path d="M 9.722656 0.261719 C 4.519531 0.261719 0.304688 4.476562 0.304688 9.679688 C 0.304688 14.882812 4.519531 19.101562 9.722656 19.101562 C 14.925781 19.101562 19.144531 14.882812 19.144531 9.679688 C 19.144531 4.476562 14.925781 0.261719 9.722656 0.261719 Z M 9.722656 0.261719 " clip-rule="nonzero"/></clipPath><clipPath id="a5565be0c5"><rect x="0" width="20" y="0" height="20"/></clipPath></defs><g clip-path="url(#708bbc1c32)"><g clip-path="url(#98b9869b07)"><g transform="matrix(1, 0, 0, 1, 0, -0.000000000000052916)"><g clip-path="url(#4086463d5c)"><g clip-path="url(#06b5160f9e)"><g clip-path="url(#e6a0423dfa)"><path fill="#0b1c39" d="M 0 0.125 L 324.921875 0.125 L 324.921875 323.78125 L 0 323.78125 Z M 0 0.125 " fill-opacity="1" fill-rule="nonzero"/></g></g></g></g></g></g><g clip-path="url(#d0d9d21ac6)"><g transform="matrix(1, 0, 0, 1, 245, 95)"><g clip-path="url(#8bf6cdeafd)"><g clip-path="url(#7e46edbad8)"><path fill="#c8a857" d="M 0.535156 0.382812 L 11.203125 0.382812 L 11.203125 42.847656 L 0.535156 42.847656 Z M 0.535156 0.382812 " fill-opacity="1" fill-rule="nonzero"/></g></g></g></g><g clip-path="url(#cb0ca7da9e)"><g clip-path="url(#aa08af04c9)"><g transform="matrix(1, 0, 0, 1, 136, 197)"><g clip-path="url(#70b3d4aebd)"><g clip-path="url(#7333aa8ec7)"><g clip-path="url(#3eb12d7824)"><path fill="#c8a857" d="M 0.660156 0.980469 L 51.675781 0.980469 L 51.675781 70.328125 L 0.660156 70.328125 Z M 0.660156 0.980469 " fill-opacity="1" fill-rule="nonzero"/></g></g></g></g></g></g><g clip-path="url(#fe921337f7)"><g clip-path="url(#9d616600d5)"><g transform="matrix(1, 0, 0, 1, 52, 60)"><g clip-path="url(#98c804c75e)"><g clip-path="url(#9780554b40)"><g clip-path="url(#75f6fd01cf)"><path fill="#c8a857" d="M 0.683594 0.414062 L 219.804688 0.414062 L 219.804688 82.785156 L 0.683594 82.785156 Z M 0.683594 0.414062 " fill-opacity="1" fill-rule="nonzero"/></g></g></g></g></g></g><g clip-path="url(#f19a297d82)"><g clip-path="url(#50287c92f2)"><g transform="matrix(1, 0, 0, 1, 50, 116)"><g clip-path="url(#3347a730fd)"><g clip-path="url(#2b316ec4e2)"><g clip-path="url(#44bbd66b2f)"><path fill="#0b1c39" d="M 0.300781 0.660156 L 123.183594 0.660156 L 123.183594 123.539062 L 0.300781 123.539062 Z M 0.300781 0.660156 " fill-opacity="1" fill-rule="nonzero"/></g></g></g></g></g></g><g clip-path="url(#31c6c40d37)"><g clip-path="url(#23f22d2e06)"><g transform="matrix(1, 0, 0, 1, 149, 118)"><g clip-path="url(#92d42bbf65)"><g clip-path="url(#57a6417d09)"><g clip-path="url(#c41f710e33)"><path fill="#0b1c39" d="M 0.816406 0.550781 L 123.695312 0.550781 L 123.695312 123.433594 L 0.816406 123.433594 Z M 0.816406 0.550781 " fill-opacity="1" fill-rule="nonzero"/></g></g></g></g></g></g><g clip-path="url(#1049c777ea)"><g clip-path="url(#09569ca32d)"><g transform="matrix(1, 0, 0, 1, 215, 159)"><g clip-path="url(#ccc2f91cfa)"><g clip-path="url(#924e0b4069)"><g clip-path="url(#e2bad71e3e)"><path fill="#0b1c39" d="M 0.90625 0.261719 L 23.136719 0.261719 L 23.136719 22.492188 L 0.90625 22.492188 Z M 0.90625 0.261719 " fill-opacity="1" fill-rule="nonzero"/></g></g></g></g></g></g><g clip-path="url(#72e78c681e)"><g clip-path="url(#a936bdf618)"><g transform="matrix(1, 0, 0, 1, 66, 137)"><g clip-path="url(#1e7635df32)"><g clip-path="url(#e5fd5e71bf)"><g clip-path="url(#8a5cc39331)"><path fill="#ffffff" d="M 0.0390625 0.851562 L 89.949219 0.851562 L 89.949219 90.761719 L 0.0390625 90.761719 Z M 0.0390625 0.851562 " fill-opacity="1" fill-rule="nonzero"/></g></g></g></g></g></g><g clip-path="url(#45b118ebae)"><g clip-path="url(#90a950e2b7)"><g transform="matrix(1, 0, 0, 1, 87, 159)"><g clip-path="url(#e93c408284)"><g clip-path="url(#ebbc24069f)"><g clip-path="url(#67f335e72d)"><path fill="#0b1c39" d="M 0.445312 0.261719 L 47.539062 0.261719 L 47.539062 47.351562 L 0.445312 47.351562 Z M 0.445312 0.261719 " fill-opacity="1" fill-rule="nonzero"/></g></g></g></g></g></g><g clip-path="url(#95e95eab71)"><g clip-path="url(#eec4e00e85)"><g transform="matrix(1, 0, 0, 1, 118, 159)"><g clip-path="url(#81cc1d5859)"><g clip-path="url(#1bcdaac7f6)"><g clip-path="url(#44d91863cf)"><path fill="#ffffff" d="M 0.390625 0.261719 L 18.660156 0.261719 L 18.660156 18.53125 L 0.390625 18.53125 Z M 0.390625 0.261719 " fill-opacity="1" fill-rule="nonzero"/></g></g></g></g></g></g><g clip-path="url(#5b2a08586a)"><g clip-path="url(#867d0a26a9)"><g transform="matrix(1, 0, 0, 1, 170, 137)"><g clip-path="url(#b36486a0f9)"><g clip-path="url(#aebf256a12)"><g clip-path="url(#42ca0e6c75)"><path fill="#ffffff" d="M 0.949219 0.851562 L 90.859375 0.851562 L 90.859375 90.761719 L 0.949219 90.761719 Z M 0.949219 0.851562 " fill-opacity="1" fill-rule="nonzero"/></g></g></g></g></g></g><g clip-path="url(#3dc736f515)"><g clip-path="url(#f544763284)"><g transform="matrix(1, 0, 0, 1, 192, 159)"><g clip-path="url(#6556acdfb2)"><g clip-path="url(#47a1227100)"><g clip-path="url(#110983c52c)"><path fill="#0b1c39" d="M 0.359375 0.261719 L 47.453125 0.261719 L 47.453125 47.351562 L 0.359375 47.351562 Z M 0.359375 0.261719 " fill-opacity="1" fill-rule="nonzero"/></g></g></g></g></g></g><g clip-path="url(#20b59ef1ce)"><g clip-path="url(#98a0bb9239)"><g transform="matrix(1, 0, 0, 1, 223, 159)"><g clip-path="url(#a5565be0c5)"><g clip-path="url(#5d40091cf2)"><g clip-path="url(#3ffbad179f)"><path fill="#ffffff" d="M 0.304688 0.261719 L 19.144531 0.261719 L 19.144531 19.101562 L 0.304688 19.101562 Z M 0.304688 0.261719 " fill-opacity="1" fill-rule="nonzero"/></g></g></g></g></g></g></svg>