<svg xmlns="http://www.w3.org/2000/svg" xmlns:xlink="http://www.w3.org/1999/xlink" width="432" zoomAndPan="magnify" viewBox="0 0 324 290.250005" height="387" preserveAspectRatio="xMidYMid meet" version="1.0"><defs><clipPath id="4cacbf1626"><path d="M 16.148438 0 L 309.847656 0 L 309.847656 114.09375 L 16.148438 114.09375 Z M 16.148438 0 " clip-rule="nonzero"/></clipPath><clipPath id="d045e34c4b"><path d="M 162.789062 0 L 309.433594 57.046875 L 162.789062 114.09375 L 16.148438 57.046875 Z M 162.789062 0 " clip-rule="nonzero"/></clipPath><clipPath id="9a098f9e5b"><path d="M 0.148438 0 L 293.457031 0 L 293.457031 114.09375 L 0.148438 114.09375 Z M 0.148438 0 " clip-rule="nonzero"/></clipPath><clipPath id="1b4692cc71"><path d="M 146.789062 0 L 293.433594 57.046875 L 146.789062 114.09375 L 0.148438 57.046875 Z M 146.789062 0 " clip-rule="nonzero"/></clipPath><clipPath id="6094d19101"><rect x="0" width="294" y="0" height="115"/></clipPath><clipPath id="b94988b677"><path d="M 280.972656 57.046875 L 291.578125 57.046875 L 291.578125 114.09375 L 280.972656 114.09375 Z M 280.972656 57.046875 " clip-rule="nonzero"/></clipPath><clipPath id="ede22344cc"><path d="M 0.972656 0.046875 L 11.578125 0.046875 L 11.578125 57.09375 L 0.972656 57.09375 Z M 0.972656 0.046875 " clip-rule="nonzero"/></clipPath><clipPath id="e8450f2939"><rect x="0" width="12" y="0" height="58"/></clipPath><clipPath id="bf91e00ee2"><path d="M 125.0625 164.023438 L 203.769531 164.023438 L 203.769531 289.460938 L 125.0625 289.460938 Z M 125.0625 164.023438 " clip-rule="nonzero"/></clipPath><clipPath id="c1799a8ea0"><path d="M 164.414062 164.023438 L 203.769531 226.726562 L 164.414062 289.425781 L 125.0625 226.726562 Z M 164.414062 164.023438 " clip-rule="nonzero"/></clipPath><clipPath id="d8478bb9e9"><path d="M 0.0625 0.0234375 L 78.769531 0.0234375 L 78.769531 125.460938 L 0.0625 125.460938 Z M 0.0625 0.0234375 " clip-rule="nonzero"/></clipPath><clipPath id="4519fd2282"><path d="M 39.414062 0.0234375 L 78.769531 62.726562 L 39.414062 125.425781 L 0.0625 62.726562 Z M 39.414062 0.0234375 " clip-rule="nonzero"/></clipPath><clipPath id="ab2f1e4d32"><rect x="0" width="79" y="0" height="126"/></clipPath><clipPath id="b7b2d27bed"><path d="M 140.800781 74.378906 L 323.296875 74.378906 L 323.296875 256.875 L 140.800781 256.875 Z M 140.800781 74.378906 " clip-rule="nonzero"/></clipPath><clipPath id="731ccf3ad0"><path d="M 232.050781 74.378906 C 181.65625 74.378906 140.800781 115.230469 140.800781 165.625 C 140.800781 216.019531 181.65625 256.875 232.050781 256.875 C 282.445312 256.875 323.296875 216.019531 323.296875 165.625 C 323.296875 115.230469 282.445312 74.378906 232.050781 74.378906 Z M 232.050781 74.378906 " clip-rule="nonzero"/></clipPath><clipPath id="bb78ec078b"><path d="M 0.800781 0.378906 L 183.296875 0.378906 L 183.296875 182.875 L 0.800781 182.875 Z M 0.800781 0.378906 " clip-rule="nonzero"/></clipPath><clipPath id="bd61af5ac3"><path d="M 92.050781 0.378906 C 41.65625 0.378906 0.800781 41.230469 0.800781 91.625 C 0.800781 142.019531 41.65625 182.875 92.050781 182.875 C 142.445312 182.875 183.296875 142.019531 183.296875 91.625 C 183.296875 41.230469 142.445312 0.378906 92.050781 0.378906 Z M 92.050781 0.378906 " clip-rule="nonzero"/></clipPath><clipPath id="aa718bc73d"><rect x="0" width="184" y="0" height="183"/></clipPath><clipPath id="1f8920045e"><path d="M 140.800781 74.378906 L 323.296875 74.378906 L 323.296875 256.871094 L 140.800781 256.871094 Z M 140.800781 74.378906 " clip-rule="nonzero"/></clipPath><clipPath id="b8ac15781f"><path d="M 232.046875 74.378906 C 181.65625 74.378906 140.800781 115.230469 140.800781 165.625 C 140.800781 216.019531 181.65625 256.871094 232.046875 256.871094 C 282.441406 256.871094 323.296875 216.019531 323.296875 165.625 C 323.296875 115.230469 282.441406 74.378906 232.046875 74.378906 Z M 232.046875 74.378906 " clip-rule="nonzero"/></clipPath><clipPath id="e793e3829b"><path d="M 0.417969 74.378906 L 186.507812 74.378906 L 186.507812 260.46875 L 0.417969 260.46875 Z M 0.417969 74.378906 " clip-rule="nonzero"/></clipPath><clipPath id="d8aa64f636"><path d="M 93.460938 74.378906 C 42.074219 74.378906 0.417969 116.035156 0.417969 167.421875 C 0.417969 218.8125 42.074219 260.46875 93.460938 260.46875 C 144.847656 260.46875 186.507812 218.8125 186.507812 167.421875 C 186.507812 116.035156 144.847656 74.378906 93.460938 74.378906 Z M 93.460938 74.378906 " clip-rule="nonzero"/></clipPath><clipPath id="3ebb7fc47c"><path d="M 0.417969 0.378906 L 186.507812 0.378906 L 186.507812 186.46875 L 0.417969 186.46875 Z M 0.417969 0.378906 " clip-rule="nonzero"/></clipPath><clipPath id="dca09c565b"><path d="M 93.460938 0.378906 C 42.074219 0.378906 0.417969 42.035156 0.417969 93.421875 C 0.417969 144.8125 42.074219 186.46875 93.460938 186.46875 C 144.847656 186.46875 186.507812 144.8125 186.507812 93.421875 C 186.507812 42.035156 144.847656 0.378906 93.460938 0.378906 Z M 93.460938 0.378906 " clip-rule="nonzero"/></clipPath><clipPath id="398d054c26"><rect x="0" width="187" y="0" height="187"/></clipPath><clipPath id="dd6666cb03"><path d="M 0.417969 74.378906 L 186.5 74.378906 L 186.5 260.460938 L 0.417969 260.460938 Z M 0.417969 74.378906 " clip-rule="nonzero"/></clipPath><clipPath id="1754fed80f"><path d="M 93.457031 74.378906 C 42.074219 74.378906 0.417969 116.035156 0.417969 167.417969 C 0.417969 218.804688 42.074219 260.460938 93.457031 260.460938 C 144.84375 260.460938 186.5 218.804688 186.5 167.417969 C 186.5 116.035156 144.84375 74.378906 93.457031 74.378906 Z M 93.457031 74.378906 " clip-rule="nonzero"/></clipPath><clipPath id="f9c3ea4419"><path d="M 154.667969 85.570312 L 309.433594 85.570312 L 309.433594 240.335938 L 154.667969 240.335938 Z M 154.667969 85.570312 " clip-rule="nonzero"/></clipPath><clipPath id="db26b6f196"><path d="M 232.050781 85.570312 C 189.3125 85.570312 154.667969 120.214844 154.667969 162.953125 C 154.667969 205.691406 189.3125 240.335938 232.050781 240.335938 C 274.785156 240.335938 309.433594 205.691406 309.433594 162.953125 C 309.433594 120.214844 274.785156 85.570312 232.050781 85.570312 Z M 232.050781 85.570312 " clip-rule="nonzero"/></clipPath><clipPath id="7d706973f8"><path d="M 0.667969 0.570312 L 155.433594 0.570312 L 155.433594 155.335938 L 0.667969 155.335938 Z M 0.667969 0.570312 " clip-rule="nonzero"/></clipPath><clipPath id="4f0a2c68d0"><path d="M 78.050781 0.570312 C 35.3125 0.570312 0.667969 35.214844 0.667969 77.953125 C 0.667969 120.691406 35.3125 155.335938 78.050781 155.335938 C 120.785156 155.335938 155.433594 120.691406 155.433594 77.953125 C 155.433594 35.214844 120.785156 0.570312 78.050781 0.570312 Z M 78.050781 0.570312 " clip-rule="nonzero"/></clipPath><clipPath id="57d42e2dd8"><rect x="0" width="156" y="0" height="156"/></clipPath><clipPath id="fe3157552f"><path d="M 154.667969 85.570312 L 309.421875 85.570312 L 309.421875 240.324219 L 154.667969 240.324219 Z M 154.667969 85.570312 " clip-rule="nonzero"/></clipPath><clipPath id="17b4bc6143"><path d="M 232.046875 85.570312 C 189.308594 85.570312 154.667969 120.210938 154.667969 162.949219 C 154.667969 205.683594 189.308594 240.324219 232.046875 240.324219 C 274.78125 240.324219 309.421875 205.683594 309.421875 162.949219 C 309.421875 120.210938 274.78125 85.570312 232.046875 85.570312 Z M 232.046875 85.570312 " clip-rule="nonzero"/></clipPath><clipPath id="40e1bb1ff7"><path d="M 175.6875 109.0625 L 288.410156 109.0625 L 288.410156 221.785156 L 175.6875 221.785156 Z M 175.6875 109.0625 " clip-rule="nonzero"/></clipPath><clipPath id="b6b01cad3c"><path d="M 232.050781 109.0625 C 200.921875 109.0625 175.6875 134.296875 175.6875 165.425781 C 175.6875 196.550781 200.921875 221.785156 232.050781 221.785156 C 263.175781 221.785156 288.410156 196.550781 288.410156 165.425781 C 288.410156 134.296875 263.175781 109.0625 232.050781 109.0625 Z M 232.050781 109.0625 " clip-rule="nonzero"/></clipPath><clipPath id="bca2ceb35e"><path d="M 0.6875 0.0625 L 113.410156 0.0625 L 113.410156 112.785156 L 0.6875 112.785156 Z M 0.6875 0.0625 " clip-rule="nonzero"/></clipPath><clipPath id="f13c7c34a2"><path d="M 57.050781 0.0625 C 25.921875 0.0625 0.6875 25.296875 0.6875 56.425781 C 0.6875 87.550781 25.921875 112.785156 57.050781 112.785156 C 88.175781 112.785156 113.410156 87.550781 113.410156 56.425781 C 113.410156 25.296875 88.175781 0.0625 57.050781 0.0625 Z M 57.050781 0.0625 " clip-rule="nonzero"/></clipPath><clipPath id="d7793a365e"><rect x="0" width="114" y="0" height="113"/></clipPath><clipPath id="1ffc362bbb"><path d="M 202.132812 133.765625 L 266.234375 133.765625 L 266.234375 197.867188 L 202.132812 197.867188 Z M 202.132812 133.765625 " clip-rule="nonzero"/></clipPath><clipPath id="6af39c6607"><path d="M 234.183594 133.765625 C 216.480469 133.765625 202.132812 148.113281 202.132812 165.816406 C 202.132812 183.519531 216.480469 197.867188 234.183594 197.867188 C 251.886719 197.867188 266.234375 183.519531 266.234375 165.816406 C 266.234375 148.113281 251.886719 133.765625 234.183594 133.765625 Z M 234.183594 133.765625 " clip-rule="nonzero"/></clipPath><clipPath id="ee9363bcb4"><path d="M 0.132812 0.765625 L 64.234375 0.765625 L 64.234375 64.867188 L 0.132812 64.867188 Z M 0.132812 0.765625 " clip-rule="nonzero"/></clipPath><clipPath id="e2616e087b"><path d="M 32.183594 0.765625 C 14.480469 0.765625 0.132812 15.113281 0.132812 32.816406 C 0.132812 50.519531 14.480469 64.867188 32.183594 64.867188 C 49.886719 64.867188 64.234375 50.519531 64.234375 32.816406 C 64.234375 15.113281 49.886719 0.765625 32.183594 0.765625 Z M 32.183594 0.765625 " clip-rule="nonzero"/></clipPath><clipPath id="4ad3534cc6"><rect x="0" width="65" y="0" height="65"/></clipPath><clipPath id="7bb6b56425"><path d="M 246.796875 133.765625 L 272.40625 133.765625 L 272.40625 159.375 L 246.796875 159.375 Z M 246.796875 133.765625 " clip-rule="nonzero"/></clipPath><clipPath id="c2c92b9032"><path d="M 259.601562 133.765625 C 252.527344 133.765625 246.796875 139.496094 246.796875 146.570312 C 246.796875 153.640625 252.527344 159.375 259.601562 159.375 C 266.671875 159.375 272.40625 153.640625 272.40625 146.570312 C 272.40625 139.496094 266.671875 133.765625 259.601562 133.765625 Z M 259.601562 133.765625 " clip-rule="nonzero"/></clipPath><clipPath id="6a6eab86a6"><path d="M 0.796875 0.765625 L 26.40625 0.765625 L 26.40625 26.375 L 0.796875 26.375 Z M 0.796875 0.765625 " clip-rule="nonzero"/></clipPath><clipPath id="1f7501560a"><path d="M 13.601562 0.765625 C 6.527344 0.765625 0.796875 6.496094 0.796875 13.570312 C 0.796875 20.640625 6.527344 26.375 13.601562 26.375 C 20.671875 26.375 26.40625 20.640625 26.40625 13.570312 C 26.40625 6.496094 20.671875 0.765625 13.601562 0.765625 Z M 13.601562 0.765625 " clip-rule="nonzero"/></clipPath><clipPath id="37538731a4"><rect x="0" width="27" y="0" height="27"/></clipPath><clipPath id="133af55b12"><path d="M 17.6875 88.242188 L 172.453125 88.242188 L 172.453125 243.007812 L 17.6875 243.007812 Z M 17.6875 88.242188 " clip-rule="nonzero"/></clipPath><clipPath id="7faa782c5c"><path d="M 95.070312 88.242188 C 52.332031 88.242188 17.6875 122.890625 17.6875 165.625 C 17.6875 208.363281 52.332031 243.007812 95.070312 243.007812 C 137.808594 243.007812 172.453125 208.363281 172.453125 165.625 C 172.453125 122.890625 137.808594 88.242188 95.070312 88.242188 Z M 95.070312 88.242188 " clip-rule="nonzero"/></clipPath><clipPath id="aa5ab9ab0c"><path d="M 0.6875 0.242188 L 155.453125 0.242188 L 155.453125 155.007812 L 0.6875 155.007812 Z M 0.6875 0.242188 " clip-rule="nonzero"/></clipPath><clipPath id="67de9acdc4"><path d="M 78.070312 0.242188 C 35.332031 0.242188 0.6875 34.890625 0.6875 77.625 C 0.6875 120.363281 35.332031 155.007812 78.070312 155.007812 C 120.808594 155.007812 155.453125 120.363281 155.453125 77.625 C 155.453125 34.890625 120.808594 0.242188 78.070312 0.242188 Z M 78.070312 0.242188 " clip-rule="nonzero"/></clipPath><clipPath id="2d99a4907d"><rect x="0" width="156" y="0" height="156"/></clipPath><clipPath id="0ce0fbc1ed"><path d="M 17.6875 88.242188 L 172.441406 88.242188 L 172.441406 243 L 17.6875 243 Z M 17.6875 88.242188 " clip-rule="nonzero"/></clipPath><clipPath id="46fcde568c"><path d="M 95.066406 88.242188 C 52.328125 88.242188 17.6875 122.886719 17.6875 165.621094 C 17.6875 208.355469 52.328125 243 95.066406 243 C 137.800781 243 172.441406 208.355469 172.441406 165.621094 C 172.441406 122.886719 137.800781 88.242188 95.066406 88.242188 Z M 95.066406 88.242188 " clip-rule="nonzero"/></clipPath><clipPath id="5f9ef37d54"><path d="M 38.707031 111.738281 L 151.429688 111.738281 L 151.429688 224.460938 L 38.707031 224.460938 Z M 38.707031 111.738281 " clip-rule="nonzero"/></clipPath><clipPath id="29a8063105"><path d="M 95.070312 111.738281 C 63.941406 111.738281 38.707031 136.972656 38.707031 168.097656 C 38.707031 199.226562 63.941406 224.460938 95.070312 224.460938 C 126.195312 224.460938 151.429688 199.226562 151.429688 168.097656 C 151.429688 136.972656 126.195312 111.738281 95.070312 111.738281 Z M 95.070312 111.738281 " clip-rule="nonzero"/></clipPath><clipPath id="fa9e3af944"><path d="M 0.707031 0.738281 L 113.429688 0.738281 L 113.429688 113.460938 L 0.707031 113.460938 Z M 0.707031 0.738281 " clip-rule="nonzero"/></clipPath><clipPath id="e524b7005d"><path d="M 57.070312 0.738281 C 25.941406 0.738281 0.707031 25.972656 0.707031 57.097656 C 0.707031 88.226562 25.941406 113.460938 57.070312 113.460938 C 88.195312 113.460938 113.429688 88.226562 113.429688 57.097656 C 113.429688 25.972656 88.195312 0.738281 57.070312 0.738281 Z M 57.070312 0.738281 " clip-rule="nonzero"/></clipPath><clipPath id="46a0ea035f"><rect x="0" width="114" y="0" height="114"/></clipPath><clipPath id="5ed5b92f98"><path d="M 65.152344 136.4375 L 129.257812 136.4375 L 129.257812 200.542969 L 65.152344 200.542969 Z M 65.152344 136.4375 " clip-rule="nonzero"/></clipPath><clipPath id="b14d09cfd8"><path d="M 97.203125 136.4375 C 79.5 136.4375 65.152344 150.789062 65.152344 168.492188 C 65.152344 186.191406 79.5 200.542969 97.203125 200.542969 C 114.90625 200.542969 129.257812 186.191406 129.257812 168.492188 C 129.257812 150.789062 114.90625 136.4375 97.203125 136.4375 Z M 97.203125 136.4375 " clip-rule="nonzero"/></clipPath><clipPath id="3eab0863d7"><path d="M 0.152344 0.4375 L 64.257812 0.4375 L 64.257812 64.542969 L 0.152344 64.542969 Z M 0.152344 0.4375 " clip-rule="nonzero"/></clipPath><clipPath id="b4ce4131c6"><path d="M 32.203125 0.4375 C 14.5 0.4375 0.152344 14.789062 0.152344 32.492188 C 0.152344 50.191406 14.5 64.542969 32.203125 64.542969 C 49.90625 64.542969 64.257812 50.191406 64.257812 32.492188 C 64.257812 14.789062 49.90625 0.4375 32.203125 0.4375 Z M 32.203125 0.4375 " clip-rule="nonzero"/></clipPath><clipPath id="491d86e3b6"><rect x="0" width="65" y="0" height="65"/></clipPath><clipPath id="44f59ff818"><path d="M 109.816406 136.4375 L 135.425781 136.4375 L 135.425781 162.046875 L 109.816406 162.046875 Z M 109.816406 136.4375 " clip-rule="nonzero"/></clipPath><clipPath id="335b1b2139"><path d="M 122.621094 136.4375 C 115.546875 136.4375 109.816406 142.171875 109.816406 149.242188 C 109.816406 156.316406 115.546875 162.046875 122.621094 162.046875 C 129.691406 162.046875 135.425781 156.316406 135.425781 149.242188 C 135.425781 142.171875 129.691406 136.4375 122.621094 136.4375 Z M 122.621094 136.4375 " clip-rule="nonzero"/></clipPath><clipPath id="232c44fecc"><path d="M 0.816406 0.4375 L 26.425781 0.4375 L 26.425781 26.046875 L 0.816406 26.046875 Z M 0.816406 0.4375 " clip-rule="nonzero"/></clipPath><clipPath id="ba312a4cb1"><path d="M 13.621094 0.4375 C 6.546875 0.4375 0.816406 6.171875 0.816406 13.242188 C 0.816406 20.316406 6.546875 26.046875 13.621094 26.046875 C 20.691406 26.046875 26.425781 20.316406 26.425781 13.242188 C 26.425781 6.171875 20.691406 0.4375 13.621094 0.4375 Z M 13.621094 0.4375 " clip-rule="nonzero"/></clipPath><clipPath id="8338e52793"><rect x="0" width="27" y="0" height="27"/></clipPath></defs><g clip-path="url(#4cacbf1626)"><g clip-path="url(#d045e34c4b)"><g transform="matrix(1, 0, 0, 1, 16, 0.00000000000000212)"><g clip-path="url(#6094d19101)"><g clip-path="url(#9a098f9e5b)"><g clip-path="url(#1b4692cc71)"><path fill="#c8a857" d="M 0.148438 0 L 293.402344 0 L 293.402344 114.09375 L 0.148438 114.09375 Z M 0.148438 0 " fill-opacity="1" fill-rule="nonzero"/></g></g></g></g></g></g><g clip-path="url(#b94988b677)"><g transform="matrix(1, 0, 0, 1, 280, 57)"><g clip-path="url(#e8450f2939)"><g clip-path="url(#ede22344cc)"><path fill="#c8a857" d="M 0.972656 0.046875 L 11.578125 0.046875 L 11.578125 57.097656 L 0.972656 57.097656 Z M 0.972656 0.046875 " fill-opacity="1" fill-rule="nonzero"/></g></g></g></g><g clip-path="url(#bf91e00ee2)"><g clip-path="url(#c1799a8ea0)"><g transform="matrix(1, 0, 0, 1, 125, 164)"><g clip-path="url(#ab2f1e4d32)"><g clip-path="url(#d8478bb9e9)"><g clip-path="url(#4519fd2282)"><path fill="#c8a857" d="M 0.0625 0.0234375 L 78.769531 0.0234375 L 78.769531 125.460938 L 0.0625 125.460938 Z M 0.0625 0.0234375 " fill-opacity="1" fill-rule="nonzero"/></g></g></g></g></g></g><g clip-path="url(#b7b2d27bed)"><g clip-path="url(#731ccf3ad0)"><g transform="matrix(1, 0, 0, 1, 140, 74)"><g clip-path="url(#aa718bc73d)"><g clip-path="url(#bb78ec078b)"><g clip-path="url(#bd61af5ac3)"><path fill="#ffffff" d="M 0.800781 0.378906 L 183.296875 0.378906 L 183.296875 182.875 L 0.800781 182.875 Z M 0.800781 0.378906 " fill-opacity="1" fill-rule="nonzero"/></g></g></g></g></g></g><g clip-path="url(#1f8920045e)"><g clip-path="url(#b8ac15781f)"><path stroke-linecap="butt" transform="matrix(0.748067, 0, 0, 0.748067, 140.802025, 74.378982)" fill="none" stroke-linejoin="miter" d="M 121.974162 -0.000101828 C 54.613053 -0.000101828 -0.00166248 54.609392 -0.00166248 121.975722 C -0.00166248 189.342053 54.613053 243.951547 121.974162 243.951547 C 189.340492 243.951547 243.955208 189.342053 243.955208 121.975722 C 243.955208 54.609392 189.340492 -0.000101828 121.974162 -0.000101828 Z M 121.974162 -0.000101828 " stroke="#ffffff" stroke-width="12" stroke-opacity="1" stroke-miterlimit="4"/></g></g><g clip-path="url(#e793e3829b)"><g clip-path="url(#d8aa64f636)"><g transform="matrix(1, 0, 0, 1, 0.000000000000000111, 74)"><g clip-path="url(#398d054c26)"><g clip-path="url(#3ebb7fc47c)"><g clip-path="url(#dca09c565b)"><path fill="#ffffff" d="M 0.417969 0.378906 L 186.507812 0.378906 L 186.507812 186.46875 L 0.417969 186.46875 Z M 0.417969 0.378906 " fill-opacity="1" fill-rule="nonzero"/></g></g></g></g></g></g><g clip-path="url(#dd6666cb03)"><g clip-path="url(#1754fed80f)"><path stroke-linecap="butt" transform="matrix(0.748067, 0, 0, 0.748067, 0.417523, 74.378982)" fill="none" stroke-linejoin="miter" d="M 124.37323 -0.000101828 C 55.685782 -0.000101828 0.000595883 55.685085 0.000595883 124.372533 C 0.000595883 193.065202 55.685782 248.750389 124.37323 248.750389 C 193.0659 248.750389 248.751086 193.065202 248.751086 124.372533 C 248.751086 55.685085 193.0659 -0.000101828 124.37323 -0.000101828 Z M 124.37323 -0.000101828 " stroke="#ffffff" stroke-width="12" stroke-opacity="1" stroke-miterlimit="4"/></g></g><g clip-path="url(#f9c3ea4419)"><g clip-path="url(#db26b6f196)"><g transform="matrix(1, 0, 0, 1, 154, 85)"><g clip-path="url(#57d42e2dd8)"><g clip-path="url(#7d706973f8)"><g clip-path="url(#4f0a2c68d0)"><path fill="#0b1c39" d="M 0.667969 0.570312 L 155.433594 0.570312 L 155.433594 155.335938 L 0.667969 155.335938 Z M 0.667969 0.570312 " fill-opacity="1" fill-rule="nonzero"/></g></g></g></g></g></g><g clip-path="url(#fe3157552f)"><g clip-path="url(#17b4bc6143)"><path stroke-linecap="butt" transform="matrix(0.748067, 0, 0, 0.748067, 154.666744, 85.569457)" fill="none" stroke-linejoin="miter" d="M 103.440109 0.00114415 C 46.308486 0.00114415 0.0016372 46.307993 0.0016372 103.439616 C 0.0016372 160.566017 46.308486 206.872865 103.440109 206.872865 C 160.56651 206.872865 206.873358 160.566017 206.873358 103.439616 C 206.873358 46.307993 160.56651 0.00114415 103.440109 0.00114415 Z M 103.440109 0.00114415 " stroke="#0b1c39" stroke-width="6" stroke-opacity="1" stroke-miterlimit="4"/></g></g><g clip-path="url(#40e1bb1ff7)"><g clip-path="url(#b6b01cad3c)"><g transform="matrix(1, 0, 0, 1, 175, 109)"><g clip-path="url(#d7793a365e)"><g clip-path="url(#bca2ceb35e)"><g clip-path="url(#f13c7c34a2)"><path fill="#ffffff" d="M 0.6875 0.0625 L 113.410156 0.0625 L 113.410156 112.785156 L 0.6875 112.785156 Z M 0.6875 0.0625 " fill-opacity="1" fill-rule="nonzero"/></g></g></g></g></g></g><g clip-path="url(#1ffc362bbb)"><g clip-path="url(#6af39c6607)"><g transform="matrix(1, 0, 0, 1, 202, 133)"><g clip-path="url(#4ad3534cc6)"><g clip-path="url(#ee9363bcb4)"><g clip-path="url(#e2616e087b)"><path fill="#0b1c39" d="M 0.132812 0.765625 L 64.234375 0.765625 L 64.234375 64.867188 L 0.132812 64.867188 Z M 0.132812 0.765625 " fill-opacity="1" fill-rule="nonzero"/></g></g></g></g></g></g><g clip-path="url(#7bb6b56425)"><g clip-path="url(#c2c92b9032)"><g transform="matrix(1, 0, 0, 1, 246, 133)"><g clip-path="url(#37538731a4)"><g clip-path="url(#6a6eab86a6)"><g clip-path="url(#1f7501560a)"><path fill="#ffffff" d="M 0.796875 0.765625 L 26.40625 0.765625 L 26.40625 26.375 L 0.796875 26.375 Z M 0.796875 0.765625 " fill-opacity="1" fill-rule="nonzero"/></g></g></g></g></g></g><g clip-path="url(#133af55b12)"><g clip-path="url(#7faa782c5c)"><g transform="matrix(1, 0, 0, 1, 17, 88)"><g clip-path="url(#2d99a4907d)"><g clip-path="url(#aa5ab9ab0c)"><g clip-path="url(#67de9acdc4)"><path fill="#0b1c39" d="M 0.6875 0.242188 L 155.453125 0.242188 L 155.453125 155.007812 L 0.6875 155.007812 Z M 0.6875 0.242188 " fill-opacity="1" fill-rule="nonzero"/></g></g></g></g></g></g><g clip-path="url(#0ce0fbc1ed)"><g clip-path="url(#46fcde568c)"><path stroke-linecap="butt" transform="matrix(0.748067, 0, 0, 0.748067, 17.686573, 88.243694)" fill="none" stroke-linejoin="miter" d="M 103.439711 -0.00201433 C 46.308088 -0.00201433 0.00123933 46.310056 0.00123933 103.436457 C 0.00123933 160.562858 46.308088 206.874929 103.439711 206.874929 C 160.566112 206.874929 206.872961 160.562858 206.872961 103.436457 C 206.872961 46.310056 160.566112 -0.00201433 103.439711 -0.00201433 Z M 103.439711 -0.00201433 " stroke="#0b1c39" stroke-width="6" stroke-opacity="1" stroke-miterlimit="4"/></g></g><g clip-path="url(#5f9ef37d54)"><g clip-path="url(#29a8063105)"><g transform="matrix(1, 0, 0, 1, 38, 111)"><g clip-path="url(#46a0ea035f)"><g clip-path="url(#fa9e3af944)"><g clip-path="url(#e524b7005d)"><path fill="#ffffff" d="M 0.707031 0.738281 L 113.429688 0.738281 L 113.429688 113.460938 L 0.707031 113.460938 Z M 0.707031 0.738281 " fill-opacity="1" fill-rule="nonzero"/></g></g></g></g></g></g><g clip-path="url(#5ed5b92f98)"><g clip-path="url(#b14d09cfd8)"><g transform="matrix(1, 0, 0, 1, 65, 136)"><g clip-path="url(#491d86e3b6)"><g clip-path="url(#3eab0863d7)"><g clip-path="url(#b4ce4131c6)"><path fill="#0b1c39" d="M 0.152344 0.4375 L 64.257812 0.4375 L 64.257812 64.542969 L 0.152344 64.542969 Z M 0.152344 0.4375 " fill-opacity="1" fill-rule="nonzero"/></g></g></g></g></g></g><g clip-path="url(#44f59ff818)"><g clip-path="url(#335b1b2139)"><g transform="matrix(1, 0, 0, 1, 109, 136)"><g clip-path="url(#8338e52793)"><g clip-path="url(#232c44fecc)"><g clip-path="url(#ba312a4cb1)"><path fill="#ffffff" d="M 0.816406 0.4375 L 26.425781 0.4375 L 26.425781 26.046875 L 0.816406 26.046875 Z M 0.816406 0.4375 " fill-opacity="1" fill-rule="nonzero"/></g></g></g></g></g></g></svg>