<svg xmlns="http://www.w3.org/2000/svg" xmlns:xlink="http://www.w3.org/1999/xlink" width="389" zoomAndPan="magnify" viewBox="0 0 291.75 311.25" height="415" preserveAspectRatio="xMidYMid meet" version="1.0"><defs><g/><clipPath id="57cc59656c"><path d="M 128.5 67.4375 L 275.054688 67.4375 L 275.054688 213.992188 L 128.5 213.992188 Z M 128.5 67.4375 " clip-rule="nonzero"/></clipPath><clipPath id="65e1020993"><path d="M 201.777344 67.4375 C 161.308594 67.4375 128.5 100.246094 128.5 140.714844 C 128.5 181.183594 161.308594 213.992188 201.777344 213.992188 C 242.246094 213.992188 275.054688 181.183594 275.054688 140.714844 C 275.054688 100.246094 242.246094 67.4375 201.777344 67.4375 Z M 201.777344 67.4375 " clip-rule="nonzero"/></clipPath><clipPath id="9b13aceafa"><path d="M 0.5 0.4375 L 147.054688 0.4375 L 147.054688 146.992188 L 0.5 146.992188 Z M 0.5 0.4375 " clip-rule="nonzero"/></clipPath><clipPath id="cf5dda4885"><path d="M 73.777344 0.4375 C 33.308594 0.4375 0.5 33.246094 0.5 73.714844 C 0.5 114.183594 33.308594 146.992188 73.777344 146.992188 C 114.246094 146.992188 147.054688 114.183594 147.054688 73.714844 C 147.054688 33.246094 114.246094 0.4375 73.777344 0.4375 Z M 73.777344 0.4375 " clip-rule="nonzero"/></clipPath><clipPath id="d7bb11b73a"><rect x="0" width="148" y="0" height="147"/></clipPath><clipPath id="cc036e5e88"><path d="M 15.765625 67.4375 L 165.203125 67.4375 L 165.203125 216.878906 L 15.765625 216.878906 Z M 15.765625 67.4375 " clip-rule="nonzero"/></clipPath><clipPath id="d36d1efc2e"><path d="M 90.484375 67.4375 C 49.21875 67.4375 15.765625 100.890625 15.765625 142.160156 C 15.765625 183.425781 49.21875 216.878906 90.484375 216.878906 C 131.75 216.878906 165.203125 183.425781 165.203125 142.160156 C 165.203125 100.890625 131.75 67.4375 90.484375 67.4375 Z M 90.484375 67.4375 " clip-rule="nonzero"/></clipPath><clipPath id="0b86fba85a"><path d="M 0.765625 0.4375 L 150.203125 0.4375 L 150.203125 149.878906 L 0.765625 149.878906 Z M 0.765625 0.4375 " clip-rule="nonzero"/></clipPath><clipPath id="1811ecd492"><path d="M 75.484375 0.4375 C 34.21875 0.4375 0.765625 33.890625 0.765625 75.160156 C 0.765625 116.425781 34.21875 149.878906 75.484375 149.878906 C 116.75 149.878906 150.203125 116.425781 150.203125 75.160156 C 150.203125 33.890625 116.75 0.4375 75.484375 0.4375 Z M 75.484375 0.4375 " clip-rule="nonzero"/></clipPath><clipPath id="ce14b90654"><rect x="0" width="151" y="0" height="150"/></clipPath><clipPath id="25b6e18e82"><path d="M 15.765625 67.4375 L 165.191406 67.4375 L 165.191406 216.867188 L 15.765625 216.867188 Z M 15.765625 67.4375 " clip-rule="nonzero"/></clipPath><clipPath id="28e92541fc"><path d="M 90.476562 67.4375 C 49.214844 67.4375 15.765625 100.890625 15.765625 142.152344 C 15.765625 183.417969 49.214844 216.867188 90.476562 216.867188 C 131.742188 216.867188 165.191406 183.417969 165.191406 142.152344 C 165.191406 100.890625 131.742188 67.4375 90.476562 67.4375 Z M 90.476562 67.4375 " clip-rule="nonzero"/></clipPath><clipPath id="08cd43ef27"><path d="M 139.632812 76.425781 L 263.917969 76.425781 L 263.917969 200.710938 L 139.632812 200.710938 Z M 139.632812 76.425781 " clip-rule="nonzero"/></clipPath><clipPath id="48612325b5"><path d="M 201.777344 76.425781 C 167.457031 76.425781 139.632812 104.246094 139.632812 138.566406 C 139.632812 172.886719 167.457031 200.710938 201.777344 200.710938 C 236.097656 200.710938 263.917969 172.886719 263.917969 138.566406 C 263.917969 104.246094 236.097656 76.425781 201.777344 76.425781 Z M 201.777344 76.425781 " clip-rule="nonzero"/></clipPath><clipPath id="6d93a69629"><path d="M 0.632812 0.425781 L 124.917969 0.425781 L 124.917969 124.710938 L 0.632812 124.710938 Z M 0.632812 0.425781 " clip-rule="nonzero"/></clipPath><clipPath id="fa307b40d8"><path d="M 62.777344 0.425781 C 28.457031 0.425781 0.632812 28.246094 0.632812 62.566406 C 0.632812 96.886719 28.457031 124.710938 62.777344 124.710938 C 97.097656 124.710938 124.917969 96.886719 124.917969 62.566406 C 124.917969 28.246094 97.097656 0.425781 62.777344 0.425781 Z M 62.777344 0.425781 " clip-rule="nonzero"/></clipPath><clipPath id="6e73ee33b5"><rect x="0" width="125" y="0" height="125"/></clipPath><clipPath id="a003112b63"><path d="M 139.632812 76.425781 L 263.835938 76.425781 L 263.835938 200.625 L 139.632812 200.625 Z M 139.632812 76.425781 " clip-rule="nonzero"/></clipPath><clipPath id="3b2cc8fa57"><path d="M 201.773438 76.425781 C 167.457031 76.425781 139.632812 104.246094 139.632812 138.566406 C 139.632812 172.886719 167.457031 200.707031 201.773438 200.707031 C 236.09375 200.707031 263.917969 172.886719 263.917969 138.566406 C 263.917969 104.246094 236.09375 76.425781 201.773438 76.425781 Z M 201.773438 76.425781 " clip-rule="nonzero"/></clipPath><clipPath id="7db7d5f590"><path d="M 156.515625 95.292969 L 247.039062 95.292969 L 247.039062 185.816406 L 156.515625 185.816406 Z M 156.515625 95.292969 " clip-rule="nonzero"/></clipPath><clipPath id="0b0d8b64c5"><path d="M 201.777344 95.292969 C 176.78125 95.292969 156.515625 115.554688 156.515625 140.554688 C 156.515625 165.550781 176.78125 185.816406 201.777344 185.816406 C 226.773438 185.816406 247.039062 165.550781 247.039062 140.554688 C 247.039062 115.554688 226.773438 95.292969 201.777344 95.292969 Z M 201.777344 95.292969 " clip-rule="nonzero"/></clipPath><clipPath id="1b439202c5"><path d="M 0.515625 0.292969 L 91.039062 0.292969 L 91.039062 90.816406 L 0.515625 90.816406 Z M 0.515625 0.292969 " clip-rule="nonzero"/></clipPath><clipPath id="3c4b5c9c6e"><path d="M 45.777344 0.292969 C 20.78125 0.292969 0.515625 20.554688 0.515625 45.554688 C 0.515625 70.550781 20.78125 90.816406 45.777344 90.816406 C 70.773438 90.816406 91.039062 70.550781 91.039062 45.554688 C 91.039062 20.554688 70.773438 0.292969 45.777344 0.292969 Z M 45.777344 0.292969 " clip-rule="nonzero"/></clipPath><clipPath id="763645a404"><rect x="0" width="92" y="0" height="91"/></clipPath><clipPath id="3892e82fd9"><path d="M 177.75 115.128906 L 229.230469 115.128906 L 229.230469 166.609375 L 177.75 166.609375 Z M 177.75 115.128906 " clip-rule="nonzero"/></clipPath><clipPath id="7c77865c19"><path d="M 203.492188 115.128906 C 189.273438 115.128906 177.75 126.652344 177.75 140.867188 C 177.75 155.082031 189.273438 166.609375 203.492188 166.609375 C 217.707031 166.609375 229.230469 155.082031 229.230469 140.867188 C 229.230469 126.652344 217.707031 115.128906 203.492188 115.128906 Z M 203.492188 115.128906 " clip-rule="nonzero"/></clipPath><clipPath id="cb9a092916"><path d="M 0.75 0.128906 L 52.230469 0.128906 L 52.230469 51.609375 L 0.75 51.609375 Z M 0.75 0.128906 " clip-rule="nonzero"/></clipPath><clipPath id="6c20e927d6"><path d="M 26.492188 0.128906 C 12.273438 0.128906 0.75 11.652344 0.75 25.867188 C 0.75 40.082031 12.273438 51.609375 26.492188 51.609375 C 40.707031 51.609375 52.230469 40.082031 52.230469 25.867188 C 52.230469 11.652344 40.707031 0.128906 26.492188 0.128906 Z M 26.492188 0.128906 " clip-rule="nonzero"/></clipPath><clipPath id="0df682d9a6"><rect x="0" width="53" y="0" height="52"/></clipPath><clipPath id="addc61c141"><path d="M 213.617188 115.128906 L 234.183594 115.128906 L 234.183594 135.695312 L 213.617188 135.695312 Z M 213.617188 115.128906 " clip-rule="nonzero"/></clipPath><clipPath id="8a2fd1e31e"><path d="M 223.902344 115.128906 C 218.222656 115.128906 213.617188 119.730469 213.617188 125.410156 C 213.617188 131.089844 218.222656 135.695312 223.902344 135.695312 C 229.578125 135.695312 234.183594 131.089844 234.183594 125.410156 C 234.183594 119.730469 229.578125 115.128906 223.902344 115.128906 Z M 223.902344 115.128906 " clip-rule="nonzero"/></clipPath><clipPath id="86bd73fb7b"><path d="M 0.617188 0.128906 L 21.183594 0.128906 L 21.183594 20.695312 L 0.617188 20.695312 Z M 0.617188 0.128906 " clip-rule="nonzero"/></clipPath><clipPath id="ce30e124de"><path d="M 10.902344 0.128906 C 5.222656 0.128906 0.617188 4.730469 0.617188 10.410156 C 0.617188 16.089844 5.222656 20.695312 10.902344 20.695312 C 16.578125 20.695312 21.183594 16.089844 21.183594 10.410156 C 21.183594 4.730469 16.578125 0.128906 10.902344 0.128906 Z M 10.902344 0.128906 " clip-rule="nonzero"/></clipPath><clipPath id="5763bbcbdf"><rect x="0" width="22" y="0" height="21"/></clipPath><clipPath id="48bd12feb1"><path d="M 29.632812 78.574219 L 153.917969 78.574219 L 153.917969 202.859375 L 29.632812 202.859375 Z M 29.632812 78.574219 " clip-rule="nonzero"/></clipPath><clipPath id="80fe794017"><path d="M 91.773438 78.574219 C 57.453125 78.574219 29.632812 106.394531 29.632812 140.714844 C 29.632812 175.035156 57.453125 202.859375 91.773438 202.859375 C 126.09375 202.859375 153.917969 175.035156 153.917969 140.714844 C 153.917969 106.394531 126.09375 78.574219 91.773438 78.574219 Z M 91.773438 78.574219 " clip-rule="nonzero"/></clipPath><clipPath id="22ff5eff5f"><path d="M 0.632812 0.574219 L 124.917969 0.574219 L 124.917969 124.859375 L 0.632812 124.859375 Z M 0.632812 0.574219 " clip-rule="nonzero"/></clipPath><clipPath id="aae9c78fb5"><path d="M 62.773438 0.574219 C 28.453125 0.574219 0.632812 28.394531 0.632812 62.714844 C 0.632812 97.035156 28.453125 124.859375 62.773438 124.859375 C 97.09375 124.859375 124.917969 97.035156 124.917969 62.714844 C 124.917969 28.394531 97.09375 0.574219 62.773438 0.574219 Z M 62.773438 0.574219 " clip-rule="nonzero"/></clipPath><clipPath id="07db07fc21"><rect x="0" width="125" y="0" height="125"/></clipPath><clipPath id="375954e5e2"><path d="M 29.632812 78.574219 L 153.832031 78.574219 L 153.832031 202.773438 L 29.632812 202.773438 Z M 29.632812 78.574219 " clip-rule="nonzero"/></clipPath><clipPath id="6d398f2c99"><path d="M 91.773438 78.574219 C 57.453125 78.574219 29.632812 106.394531 29.632812 140.714844 C 29.632812 175.035156 57.453125 202.855469 91.773438 202.855469 C 126.09375 202.855469 153.914062 175.035156 153.914062 140.714844 C 153.914062 106.394531 126.09375 78.574219 91.773438 78.574219 Z M 91.773438 78.574219 " clip-rule="nonzero"/></clipPath><clipPath id="779a26b929"><path d="M 46.511719 97.441406 L 137.035156 97.441406 L 137.035156 187.960938 L 46.511719 187.960938 Z M 46.511719 97.441406 " clip-rule="nonzero"/></clipPath><clipPath id="ce861135a4"><path d="M 91.773438 97.441406 C 66.777344 97.441406 46.511719 117.703125 46.511719 142.699219 C 46.511719 167.699219 66.777344 187.960938 91.773438 187.960938 C 116.769531 187.960938 137.035156 167.699219 137.035156 142.699219 C 137.035156 117.703125 116.769531 97.441406 91.773438 97.441406 Z M 91.773438 97.441406 " clip-rule="nonzero"/></clipPath><clipPath id="9bede5a5d0"><path d="M 0.511719 0.441406 L 91.035156 0.441406 L 91.035156 90.960938 L 0.511719 90.960938 Z M 0.511719 0.441406 " clip-rule="nonzero"/></clipPath><clipPath id="c90f27244f"><path d="M 45.773438 0.441406 C 20.777344 0.441406 0.511719 20.703125 0.511719 45.699219 C 0.511719 70.699219 20.777344 90.960938 45.773438 90.960938 C 70.769531 90.960938 91.035156 70.699219 91.035156 45.699219 C 91.035156 20.703125 70.769531 0.441406 45.773438 0.441406 Z M 45.773438 0.441406 " clip-rule="nonzero"/></clipPath><clipPath id="453e44037f"><rect x="0" width="92" y="0" height="91"/></clipPath><clipPath id="8d19a81b5f"><path d="M 67.75 117.277344 L 119.226562 117.277344 L 119.226562 168.753906 L 67.75 168.753906 Z M 67.75 117.277344 " clip-rule="nonzero"/></clipPath><clipPath id="fb9ffea7a9"><path d="M 93.488281 117.277344 C 79.273438 117.277344 67.75 128.800781 67.75 143.015625 C 67.75 157.230469 79.273438 168.753906 93.488281 168.753906 C 107.703125 168.753906 119.226562 157.230469 119.226562 143.015625 C 119.226562 128.800781 107.703125 117.277344 93.488281 117.277344 Z M 93.488281 117.277344 " clip-rule="nonzero"/></clipPath><clipPath id="1247e163cc"><path d="M 0.75 0.277344 L 52.226562 0.277344 L 52.226562 51.753906 L 0.75 51.753906 Z M 0.75 0.277344 " clip-rule="nonzero"/></clipPath><clipPath id="e7612c8350"><path d="M 26.488281 0.277344 C 12.273438 0.277344 0.75 11.800781 0.75 26.015625 C 0.75 40.230469 12.273438 51.753906 26.488281 51.753906 C 40.703125 51.753906 52.226562 40.230469 52.226562 26.015625 C 52.226562 11.800781 40.703125 0.277344 26.488281 0.277344 Z M 26.488281 0.277344 " clip-rule="nonzero"/></clipPath><clipPath id="7d79a5151e"><rect x="0" width="53" y="0" height="52"/></clipPath><clipPath id="40f789fcd1"><path d="M 103.617188 117.277344 L 124.179688 117.277344 L 124.179688 137.839844 L 103.617188 137.839844 Z M 103.617188 117.277344 " clip-rule="nonzero"/></clipPath><clipPath id="6c83783fd8"><path d="M 113.898438 117.277344 C 108.21875 117.277344 103.617188 121.878906 103.617188 127.558594 C 103.617188 133.238281 108.21875 137.839844 113.898438 137.839844 C 119.578125 137.839844 124.179688 133.238281 124.179688 127.558594 C 124.179688 121.878906 119.578125 117.277344 113.898438 117.277344 Z M 113.898438 117.277344 " clip-rule="nonzero"/></clipPath><clipPath id="bd2956be31"><path d="M 0.617188 0.277344 L 21.179688 0.277344 L 21.179688 20.839844 L 0.617188 20.839844 Z M 0.617188 0.277344 " clip-rule="nonzero"/></clipPath><clipPath id="5d94d47d59"><path d="M 10.898438 0.277344 C 5.21875 0.277344 0.617188 4.878906 0.617188 10.558594 C 0.617188 16.238281 5.21875 20.839844 10.898438 20.839844 C 16.578125 20.839844 21.179688 16.238281 21.179688 10.558594 C 21.179688 4.878906 16.578125 0.277344 10.898438 0.277344 Z M 10.898438 0.277344 " clip-rule="nonzero"/></clipPath><clipPath id="77a310cbe5"><rect x="0" width="22" y="0" height="21"/></clipPath><clipPath id="e25c06337c"><rect x="0" width="255" y="0" height="48"/></clipPath><clipPath id="edf24e7ff3"><rect x="0" width="23" y="0" height="19"/></clipPath><clipPath id="41540962d9"><path d="M 19.132812 0 L 273.660156 0 L 273.660156 98.875 L 19.132812 98.875 Z M 19.132812 0 " clip-rule="nonzero"/></clipPath><clipPath id="7a0fc4572e"><path d="M 146.21875 0 L 273.300781 49.4375 L 146.21875 98.875 L 19.132812 49.4375 Z M 146.21875 0 " clip-rule="nonzero"/></clipPath><clipPath id="b12160602b"><path d="M 0.132812 0 L 254.40625 0 L 254.40625 98.875 L 0.132812 98.875 Z M 0.132812 0 " clip-rule="nonzero"/></clipPath><clipPath id="f5438a1fa3"><path d="M 127.21875 0 L 254.300781 49.4375 L 127.21875 98.875 L 0.132812 49.4375 Z M 127.21875 0 " clip-rule="nonzero"/></clipPath><clipPath id="a77740f169"><rect x="0" width="255" y="0" height="99"/></clipPath><clipPath id="40a264e5a0"><path d="M 248.632812 49.4375 L 257.824219 49.4375 L 257.824219 98.875 L 248.632812 98.875 Z M 248.632812 49.4375 " clip-rule="nonzero"/></clipPath><clipPath id="cf37440db1"><path d="M 0.632812 0.4375 L 9.824219 0.4375 L 9.824219 49.875 L 0.632812 49.875 Z M 0.632812 0.4375 " clip-rule="nonzero"/></clipPath><clipPath id="b2d17f3f0c"><rect x="0" width="10" y="0" height="50"/></clipPath><clipPath id="1a6f8f5a77"><path d="M 113.523438 142.144531 L 181.730469 142.144531 L 181.730469 250.851562 L 113.523438 250.851562 Z M 113.523438 142.144531 " clip-rule="nonzero"/></clipPath><clipPath id="89fe325057"><path d="M 147.625 142.144531 L 181.730469 196.484375 L 147.625 250.824219 L 113.523438 196.484375 Z M 147.625 142.144531 " clip-rule="nonzero"/></clipPath><clipPath id="09b10d739c"><path d="M 0.523438 0.144531 L 68.730469 0.144531 L 68.730469 108.851562 L 0.523438 108.851562 Z M 0.523438 0.144531 " clip-rule="nonzero"/></clipPath><clipPath id="6c630cd8ef"><path d="M 34.625 0.144531 L 68.730469 54.484375 L 34.625 108.824219 L 0.523438 54.484375 Z M 34.625 0.144531 " clip-rule="nonzero"/></clipPath><clipPath id="c0045b97a1"><rect x="0" width="69" y="0" height="109"/></clipPath><clipPath id="365b00539a"><path d="M 127.160156 64.457031 L 285.316406 64.457031 L 285.316406 222.613281 L 127.160156 222.613281 Z M 127.160156 64.457031 " clip-rule="nonzero"/></clipPath><clipPath id="71f9477f73"><path d="M 206.238281 64.457031 C 162.566406 64.457031 127.160156 99.863281 127.160156 143.535156 C 127.160156 187.207031 162.566406 222.613281 206.238281 222.613281 C 249.910156 222.613281 285.316406 187.207031 285.316406 143.535156 C 285.316406 99.863281 249.910156 64.457031 206.238281 64.457031 Z M 206.238281 64.457031 " clip-rule="nonzero"/></clipPath><clipPath id="f40e090210"><path d="M 0.160156 0.457031 L 158.316406 0.457031 L 158.316406 158.613281 L 0.160156 158.613281 Z M 0.160156 0.457031 " clip-rule="nonzero"/></clipPath><clipPath id="c50f3c8b5a"><path d="M 79.238281 0.457031 C 35.566406 0.457031 0.160156 35.863281 0.160156 79.535156 C 0.160156 123.207031 35.566406 158.613281 79.238281 158.613281 C 122.910156 158.613281 158.316406 123.207031 158.316406 79.535156 C 158.316406 35.863281 122.910156 0.457031 79.238281 0.457031 Z M 79.238281 0.457031 " clip-rule="nonzero"/></clipPath><clipPath id="422b9bc1d4"><rect x="0" width="159" y="0" height="159"/></clipPath><clipPath id="4e27ace330"><path d="M 127.160156 64.457031 L 285.03125 64.457031 L 285.03125 222.328125 L 127.160156 222.328125 Z M 127.160156 64.457031 " clip-rule="nonzero"/></clipPath><clipPath id="574c5450d3"><path d="M 206.238281 64.457031 C 162.566406 64.457031 127.160156 99.859375 127.160156 143.535156 C 127.160156 187.207031 162.566406 222.609375 206.238281 222.609375 C 249.910156 222.609375 285.3125 187.207031 285.3125 143.535156 C 285.3125 99.859375 249.910156 64.457031 206.238281 64.457031 Z M 206.238281 64.457031 " clip-rule="nonzero"/></clipPath><clipPath id="8fe49538fc"><path d="M 5.5 64.457031 L 166.769531 64.457031 L 166.769531 225.726562 L 5.5 225.726562 Z M 5.5 64.457031 " clip-rule="nonzero"/></clipPath><clipPath id="ef4513c87c"><path d="M 86.136719 64.457031 C 41.601562 64.457031 5.5 100.558594 5.5 145.09375 C 5.5 189.625 41.601562 225.726562 86.136719 225.726562 C 130.667969 225.726562 166.769531 189.625 166.769531 145.09375 C 166.769531 100.558594 130.667969 64.457031 86.136719 64.457031 Z M 86.136719 64.457031 " clip-rule="nonzero"/></clipPath><clipPath id="74c7b5cab7"><path d="M 0.5 0.457031 L 161.769531 0.457031 L 161.769531 161.726562 L 0.5 161.726562 Z M 0.5 0.457031 " clip-rule="nonzero"/></clipPath><clipPath id="67b4dcb930"><path d="M 81.136719 0.457031 C 36.601562 0.457031 0.5 36.558594 0.5 81.09375 C 0.5 125.625 36.601562 161.726562 81.136719 161.726562 C 125.667969 161.726562 161.769531 125.625 161.769531 81.09375 C 161.769531 36.558594 125.667969 0.457031 81.136719 0.457031 Z M 81.136719 0.457031 " clip-rule="nonzero"/></clipPath><clipPath id="c41c0b5647"><rect x="0" width="162" y="0" height="162"/></clipPath><clipPath id="0c96dbac08"><path d="M 5.5 64.457031 L 166.761719 64.457031 L 166.761719 225.71875 L 5.5 225.71875 Z M 5.5 64.457031 " clip-rule="nonzero"/></clipPath><clipPath id="a36c8d1555"><path d="M 86.132812 64.457031 C 41.601562 64.457031 5.5 100.558594 5.5 145.089844 C 5.5 189.617188 41.601562 225.71875 86.132812 225.71875 C 130.664062 225.71875 166.761719 189.617188 166.761719 145.089844 C 166.761719 100.558594 130.664062 64.457031 86.132812 64.457031 Z M 86.132812 64.457031 " clip-rule="nonzero"/></clipPath><clipPath id="f715893589"><path d="M 139.175781 74.15625 L 273.300781 74.15625 L 273.300781 208.277344 L 139.175781 208.277344 Z M 139.175781 74.15625 " clip-rule="nonzero"/></clipPath><clipPath id="1db530f25f"><path d="M 206.238281 74.15625 C 169.203125 74.15625 139.175781 104.179688 139.175781 141.21875 C 139.175781 178.253906 169.203125 208.277344 206.238281 208.277344 C 243.273438 208.277344 273.300781 178.253906 273.300781 141.21875 C 273.300781 104.179688 243.273438 74.15625 206.238281 74.15625 Z M 206.238281 74.15625 " clip-rule="nonzero"/></clipPath><clipPath id="948b58556f"><path d="M 0.175781 0.15625 L 134.300781 0.15625 L 134.300781 134.277344 L 0.175781 134.277344 Z M 0.175781 0.15625 " clip-rule="nonzero"/></clipPath><clipPath id="4913765c60"><path d="M 67.238281 0.15625 C 30.203125 0.15625 0.175781 30.179688 0.175781 67.21875 C 0.175781 104.253906 30.203125 134.277344 67.238281 134.277344 C 104.273438 134.277344 134.300781 104.253906 134.300781 67.21875 C 134.300781 30.179688 104.273438 0.15625 67.238281 0.15625 Z M 67.238281 0.15625 " clip-rule="nonzero"/></clipPath><clipPath id="9f6ca95ab6"><rect x="0" width="135" y="0" height="135"/></clipPath><clipPath id="61f12bcb55"><path d="M 139.175781 74.15625 L 273.105469 74.15625 L 273.105469 208.082031 L 139.175781 208.082031 Z M 139.175781 74.15625 " clip-rule="nonzero"/></clipPath><clipPath id="a8adead1eb"><path d="M 206.234375 74.15625 C 169.199219 74.15625 139.175781 104.179688 139.175781 141.214844 C 139.175781 178.246094 169.199219 208.269531 206.234375 208.269531 C 243.269531 208.269531 273.292969 178.246094 273.292969 141.214844 C 273.292969 104.179688 243.269531 74.15625 206.234375 74.15625 Z M 206.234375 74.15625 " clip-rule="nonzero"/></clipPath><clipPath id="e9cdc98cec"><path d="M 164.292969 97.421875 L 251.882812 97.421875 L 251.882812 185.011719 L 164.292969 185.011719 Z M 164.292969 97.421875 " clip-rule="nonzero"/></clipPath><clipPath id="ead117f106"><path d="M 208.089844 97.421875 C 183.902344 97.421875 164.292969 117.03125 164.292969 141.21875 C 164.292969 165.40625 183.902344 185.011719 208.089844 185.011719 C 232.273438 185.011719 251.882812 165.40625 251.882812 141.21875 C 251.882812 117.03125 232.273438 97.421875 208.089844 97.421875 Z M 208.089844 97.421875 " clip-rule="nonzero"/></clipPath><clipPath id="ae8ae40fbe"><path d="M 0.292969 0.421875 L 87.882812 0.421875 L 87.882812 88.011719 L 0.292969 88.011719 Z M 0.292969 0.421875 " clip-rule="nonzero"/></clipPath><clipPath id="050e6a2bcb"><path d="M 44.089844 0.421875 C 19.902344 0.421875 0.292969 20.03125 0.292969 44.21875 C 0.292969 68.40625 19.902344 88.011719 44.089844 88.011719 C 68.273438 88.011719 87.882812 68.40625 87.882812 44.21875 C 87.882812 20.03125 68.273438 0.421875 44.089844 0.421875 Z M 44.089844 0.421875 " clip-rule="nonzero"/></clipPath><clipPath id="c1983e4512"><rect x="0" width="88" y="0" height="89"/></clipPath><clipPath id="3eab341b23"><path d="M 180.3125 113.441406 L 235.863281 113.441406 L 235.863281 168.996094 L 180.3125 168.996094 Z M 180.3125 113.441406 " clip-rule="nonzero"/></clipPath><clipPath id="2a0c62c129"><path d="M 208.089844 113.441406 C 192.746094 113.441406 180.3125 125.875 180.3125 141.21875 C 180.3125 156.558594 192.746094 168.996094 208.089844 168.996094 C 223.429688 168.996094 235.863281 156.558594 235.863281 141.21875 C 235.863281 125.875 223.429688 113.441406 208.089844 113.441406 Z M 208.089844 113.441406 " clip-rule="nonzero"/></clipPath><clipPath id="a68829f543"><path d="M 0.3125 0.441406 L 55.863281 0.441406 L 55.863281 55.996094 L 0.3125 55.996094 Z M 0.3125 0.441406 " clip-rule="nonzero"/></clipPath><clipPath id="9e1825aa1a"><path d="M 28.089844 0.441406 C 12.746094 0.441406 0.3125 12.875 0.3125 28.21875 C 0.3125 43.558594 12.746094 55.996094 28.089844 55.996094 C 43.429688 55.996094 55.863281 43.558594 55.863281 28.21875 C 55.863281 12.875 43.429688 0.441406 28.089844 0.441406 Z M 28.089844 0.441406 " clip-rule="nonzero"/></clipPath><clipPath id="8092808bc6"><rect x="0" width="56" y="0" height="56"/></clipPath><clipPath id="e6acbf1eed"><path d="M 212.226562 119.625 L 234.417969 119.625 L 234.417969 141.820312 L 212.226562 141.820312 Z M 212.226562 119.625 " clip-rule="nonzero"/></clipPath><clipPath id="b050bb915d"><path d="M 223.324219 119.625 C 217.195312 119.625 212.226562 124.59375 212.226562 130.722656 C 212.226562 136.851562 217.195312 141.820312 223.324219 141.820312 C 229.453125 141.820312 234.417969 136.851562 234.417969 130.722656 C 234.417969 124.59375 229.453125 119.625 223.324219 119.625 Z M 223.324219 119.625 " clip-rule="nonzero"/></clipPath><clipPath id="ac77bbed53"><path d="M 0.226562 0.625 L 22.417969 0.625 L 22.417969 22.820312 L 0.226562 22.820312 Z M 0.226562 0.625 " clip-rule="nonzero"/></clipPath><clipPath id="b80e3fb8f5"><path d="M 11.324219 0.625 C 5.195312 0.625 0.226562 5.59375 0.226562 11.722656 C 0.226562 17.851562 5.195312 22.820312 11.324219 22.820312 C 17.453125 22.820312 22.417969 17.851562 22.417969 11.722656 C 22.417969 5.59375 17.453125 0.625 11.324219 0.625 Z M 11.324219 0.625 " clip-rule="nonzero"/></clipPath><clipPath id="f4dd3d6c84"><rect x="0" width="23" y="0" height="23"/></clipPath><clipPath id="c50f3fa596"><path d="M 20.46875 76.472656 L 154.589844 76.472656 L 154.589844 210.597656 L 20.46875 210.597656 Z M 20.46875 76.472656 " clip-rule="nonzero"/></clipPath><clipPath id="4b46af5834"><path d="M 87.527344 76.472656 C 50.492188 76.472656 20.46875 106.496094 20.46875 143.535156 C 20.46875 180.570312 50.492188 210.597656 87.527344 210.597656 C 124.566406 210.597656 154.589844 180.570312 154.589844 143.535156 C 154.589844 106.496094 124.566406 76.472656 87.527344 76.472656 Z M 87.527344 76.472656 " clip-rule="nonzero"/></clipPath><clipPath id="0131272509"><path d="M 0.46875 0.472656 L 134.589844 0.472656 L 134.589844 134.597656 L 0.46875 134.597656 Z M 0.46875 0.472656 " clip-rule="nonzero"/></clipPath><clipPath id="08b705e0c0"><path d="M 67.527344 0.472656 C 30.492188 0.472656 0.46875 30.496094 0.46875 67.535156 C 0.46875 104.570312 30.492188 134.597656 67.527344 134.597656 C 104.566406 134.597656 134.589844 104.570312 134.589844 67.535156 C 134.589844 30.496094 104.566406 0.472656 67.527344 0.472656 Z M 67.527344 0.472656 " clip-rule="nonzero"/></clipPath><clipPath id="6784863f90"><rect x="0" width="135" y="0" height="135"/></clipPath><clipPath id="db51487178"><path d="M 20.46875 76.472656 L 154.394531 76.472656 L 154.394531 210.402344 L 20.46875 210.402344 Z M 20.46875 76.472656 " clip-rule="nonzero"/></clipPath><clipPath id="2982409cc8"><path d="M 87.523438 76.472656 C 50.488281 76.472656 20.46875 106.496094 20.46875 143.53125 C 20.46875 180.566406 50.488281 210.589844 87.523438 210.589844 C 124.558594 210.589844 154.582031 180.566406 154.582031 143.53125 C 154.582031 106.496094 124.558594 76.472656 87.523438 76.472656 Z M 87.523438 76.472656 " clip-rule="nonzero"/></clipPath><clipPath id="6c2643062f"><path d="M 43.734375 101.296875 L 131.324219 101.296875 L 131.324219 188.886719 L 43.734375 188.886719 Z M 43.734375 101.296875 " clip-rule="nonzero"/></clipPath><clipPath id="e45ccbabe6"><path d="M 87.527344 101.296875 C 63.339844 101.296875 43.734375 120.90625 43.734375 145.09375 C 43.734375 169.28125 63.339844 188.886719 87.527344 188.886719 C 111.714844 188.886719 131.324219 169.28125 131.324219 145.09375 C 131.324219 120.90625 111.714844 101.296875 87.527344 101.296875 Z M 87.527344 101.296875 " clip-rule="nonzero"/></clipPath><clipPath id="000081b66f"><path d="M 0.734375 0.296875 L 88.324219 0.296875 L 88.324219 87.886719 L 0.734375 87.886719 Z M 0.734375 0.296875 " clip-rule="nonzero"/></clipPath><clipPath id="1445641d74"><path d="M 44.527344 0.296875 C 20.339844 0.296875 0.734375 19.90625 0.734375 44.09375 C 0.734375 68.28125 20.339844 87.886719 44.527344 87.886719 C 68.714844 87.886719 88.324219 68.28125 88.324219 44.09375 C 88.324219 19.90625 68.714844 0.296875 44.527344 0.296875 Z M 44.527344 0.296875 " clip-rule="nonzero"/></clipPath><clipPath id="98fb06051a"><rect x="0" width="89" y="0" height="88"/></clipPath><clipPath id="6d88a70290"><path d="M 59.75 117.316406 L 115.304688 117.316406 L 115.304688 172.871094 L 59.75 172.871094 Z M 59.75 117.316406 " clip-rule="nonzero"/></clipPath><clipPath id="3c35592bcc"><path d="M 87.527344 117.316406 C 72.1875 117.316406 59.75 129.75 59.75 145.09375 C 59.75 160.433594 72.1875 172.871094 87.527344 172.871094 C 102.871094 172.871094 115.304688 160.433594 115.304688 145.09375 C 115.304688 129.75 102.871094 117.316406 87.527344 117.316406 Z M 87.527344 117.316406 " clip-rule="nonzero"/></clipPath><clipPath id="69c6f5c153"><path d="M 0.75 0.316406 L 56.304688 0.316406 L 56.304688 55.871094 L 0.75 55.871094 Z M 0.75 0.316406 " clip-rule="nonzero"/></clipPath><clipPath id="94b8226693"><path d="M 28.527344 0.316406 C 13.1875 0.316406 0.75 12.75 0.75 28.09375 C 0.75 43.433594 13.1875 55.871094 28.527344 55.871094 C 43.871094 55.871094 56.304688 43.433594 56.304688 28.09375 C 56.304688 12.75 43.871094 0.316406 28.527344 0.316406 Z M 28.527344 0.316406 " clip-rule="nonzero"/></clipPath><clipPath id="bb30395631"><rect x="0" width="57" y="0" height="56"/></clipPath><clipPath id="73430fbe01"><path d="M 93.335938 121.507812 L 115.53125 121.507812 L 115.53125 143.699219 L 93.335938 143.699219 Z M 93.335938 121.507812 " clip-rule="nonzero"/></clipPath><clipPath id="47e88a5c13"><path d="M 104.433594 121.507812 C 98.304688 121.507812 93.335938 126.472656 93.335938 132.601562 C 93.335938 138.730469 98.304688 143.699219 104.433594 143.699219 C 110.5625 143.699219 115.53125 138.730469 115.53125 132.601562 C 115.53125 126.472656 110.5625 121.507812 104.433594 121.507812 Z M 104.433594 121.507812 " clip-rule="nonzero"/></clipPath><clipPath id="ad5352f452"><path d="M 0.335938 0.507812 L 22.53125 0.507812 L 22.53125 22.699219 L 0.335938 22.699219 Z M 0.335938 0.507812 " clip-rule="nonzero"/></clipPath><clipPath id="6b037337cf"><path d="M 11.433594 0.507812 C 5.304688 0.507812 0.335938 5.472656 0.335938 11.601562 C 0.335938 17.730469 5.304688 22.699219 11.433594 22.699219 C 17.5625 22.699219 22.53125 17.730469 22.53125 11.601562 C 22.53125 5.472656 17.5625 0.507812 11.433594 0.507812 Z M 11.433594 0.507812 " clip-rule="nonzero"/></clipPath><clipPath id="d2a189c5bd"><rect x="0" width="23" y="0" height="23"/></clipPath></defs><g clip-path="url(#57cc59656c)"><g clip-path="url(#65e1020993)"><g transform="matrix(1, 0, 0, 1, 128, 67)"><g clip-path="url(#d7bb11b73a)"><g clip-path="url(#9b13aceafa)"><g clip-path="url(#cf5dda4885)"><path fill="#ffffff" d="M 0.5 0.4375 L 147.054688 0.4375 L 147.054688 146.992188 L 0.5 146.992188 Z M 0.5 0.4375 " fill-opacity="1" fill-rule="nonzero"/></g></g></g></g><path stroke-linecap="butt" transform="matrix(0.748197, 0, 0, 0.748197, 128.499879, 67.439062)" fill="none" stroke-linejoin="miter" d="M 97.93872 -0.0020873 C 43.850364 -0.0020873 0.000161413 43.848115 0.000161413 97.936471 C 0.000161413 152.024827 43.850364 195.87503 97.93872 195.87503 C 152.027076 195.87503 195.877278 152.024827 195.877278 97.936471 C 195.877278 43.848115 152.027076 -0.0020873 97.93872 -0.0020873 Z M 97.93872 -0.0020873 " stroke="#ffffff" stroke-width="12" stroke-opacity="1" stroke-miterlimit="4"/></g></g><g clip-path="url(#cc036e5e88)"><g clip-path="url(#d36d1efc2e)"><g transform="matrix(1, 0, 0, 1, 15, 67)"><g clip-path="url(#ce14b90654)"><g clip-path="url(#0b86fba85a)"><g clip-path="url(#1811ecd492)"><path fill="#ffffff" d="M 0.765625 0.4375 L 150.203125 0.4375 L 150.203125 149.878906 L 0.765625 149.878906 Z M 0.765625 0.4375 " fill-opacity="1" fill-rule="nonzero"/></g></g></g></g></g></g><g clip-path="url(#25b6e18e82)"><g clip-path="url(#28e92541fc)"><path stroke-linecap="butt" transform="matrix(0.748197, 0, 0, 0.748197, 15.763783, 67.439062)" fill="none" stroke-linejoin="miter" d="M 99.857085 -0.0020873 C 44.708889 -0.0020873 0.00246186 44.709561 0.00246186 99.857756 C 0.00246186 155.011172 44.708889 199.7176 99.857085 199.7176 C 155.010501 199.7176 199.716928 155.011172 199.716928 99.857756 C 199.716928 44.709561 155.010501 -0.0020873 99.857085 -0.0020873 Z M 99.857085 -0.0020873 " stroke="#ffffff" stroke-width="12" stroke-opacity="1" stroke-miterlimit="4"/></g></g><g clip-path="url(#08cd43ef27)"><g clip-path="url(#48612325b5)"><g transform="matrix(1, 0, 0, 1, 139, 76)"><g clip-path="url(#6e73ee33b5)"><g clip-path="url(#6d93a69629)"><g clip-path="url(#fa307b40d8)"><path fill="#0b1c39" d="M 0.632812 0.425781 L 124.917969 0.425781 L 124.917969 124.710938 L 0.632812 124.710938 Z M 0.632812 0.425781 " fill-opacity="1" fill-rule="nonzero"/></g></g></g></g></g></g><g clip-path="url(#a003112b63)"><g clip-path="url(#3b2cc8fa57)"><path stroke-linecap="butt" transform="matrix(0.748197, 0, 0, 0.748197, 139.633959, 76.425603)" fill="none" stroke-linejoin="miter" d="M 83.052286 0.000238232 C 37.186822 0.000238232 -0.00153267 37.183372 -0.00153267 83.054057 C -0.00153267 128.924742 37.186822 166.107876 83.052286 166.107876 C 128.922971 166.107876 166.111326 128.924742 166.111326 83.054057 C 166.111326 37.183372 128.922971 0.000238232 83.052286 0.000238232 Z M 83.052286 0.000238232 " stroke="#0b1c39" stroke-width="6" stroke-opacity="1" stroke-miterlimit="4"/></g></g><g clip-path="url(#7db7d5f590)"><g clip-path="url(#0b0d8b64c5)"><g transform="matrix(1, 0, 0, 1, 156, 95)"><g clip-path="url(#763645a404)"><g clip-path="url(#1b439202c5)"><g clip-path="url(#3c4b5c9c6e)"><path fill="#ffffff" d="M 0.515625 0.292969 L 91.039062 0.292969 L 91.039062 90.816406 L 0.515625 90.816406 Z M 0.515625 0.292969 " fill-opacity="1" fill-rule="nonzero"/></g></g></g></g></g></g><g clip-path="url(#3892e82fd9)"><g clip-path="url(#7c77865c19)"><g transform="matrix(1, 0, 0, 1, 177, 115)"><g clip-path="url(#0df682d9a6)"><g clip-path="url(#cb9a092916)"><g clip-path="url(#6c20e927d6)"><path fill="#0b1c39" d="M 0.75 0.128906 L 52.230469 0.128906 L 52.230469 51.609375 L 0.75 51.609375 Z M 0.75 0.128906 " fill-opacity="1" fill-rule="nonzero"/></g></g></g></g></g></g><g clip-path="url(#addc61c141)"><g clip-path="url(#8a2fd1e31e)"><g transform="matrix(1, 0, 0, 1, 213, 115)"><g clip-path="url(#5763bbcbdf)"><g clip-path="url(#86bd73fb7b)"><g clip-path="url(#ce30e124de)"><path fill="#ffffff" d="M 0.617188 0.128906 L 21.183594 0.128906 L 21.183594 20.695312 L 0.617188 20.695312 Z M 0.617188 0.128906 " fill-opacity="1" fill-rule="nonzero"/></g></g></g></g></g></g><g clip-path="url(#48bd12feb1)"><g clip-path="url(#80fe794017)"><g transform="matrix(1, 0, 0, 1, 29, 78)"><g clip-path="url(#07db07fc21)"><g clip-path="url(#22ff5eff5f)"><g clip-path="url(#aae9c78fb5)"><path fill="#0b1c39" d="M 0.632812 0.574219 L 124.917969 0.574219 L 124.917969 124.859375 L 0.632812 124.859375 Z M 0.632812 0.574219 " fill-opacity="1" fill-rule="nonzero"/></g></g></g></g></g></g><g clip-path="url(#375954e5e2)"><g clip-path="url(#6d398f2c99)"><path stroke-linecap="butt" transform="matrix(0.748197, 0, 0, 0.748197, 29.631733, 78.573154)" fill="none" stroke-linejoin="miter" d="M 83.055262 0.0014235 C 37.184577 0.0014235 0.00144305 37.184558 0.00144305 83.055242 C 0.00144305 128.925927 37.184577 166.109061 83.055262 166.109061 C 128.925947 166.109061 166.109081 128.925927 166.109081 83.055242 C 166.109081 37.184558 128.925947 0.0014235 83.055262 0.0014235 Z M 83.055262 0.0014235 " stroke="#0b1c39" stroke-width="6" stroke-opacity="1" stroke-miterlimit="4"/></g></g><g clip-path="url(#779a26b929)"><g clip-path="url(#ce861135a4)"><g transform="matrix(1, 0, 0, 1, 46, 97)"><g clip-path="url(#453e44037f)"><g clip-path="url(#9bede5a5d0)"><g clip-path="url(#c90f27244f)"><path fill="#ffffff" d="M 0.511719 0.441406 L 91.035156 0.441406 L 91.035156 90.960938 L 0.511719 90.960938 Z M 0.511719 0.441406 " fill-opacity="1" fill-rule="nonzero"/></g></g></g></g></g></g><g clip-path="url(#8d19a81b5f)"><g clip-path="url(#fb9ffea7a9)"><g transform="matrix(1, 0, 0, 1, 67, 117)"><g clip-path="url(#7d79a5151e)"><g clip-path="url(#1247e163cc)"><g clip-path="url(#e7612c8350)"><path fill="#0b1c39" d="M 0.75 0.277344 L 52.226562 0.277344 L 52.226562 51.753906 L 0.75 51.753906 Z M 0.75 0.277344 " fill-opacity="1" fill-rule="nonzero"/></g></g></g></g></g></g><g clip-path="url(#40f789fcd1)"><g clip-path="url(#6c83783fd8)"><g transform="matrix(1, 0, 0, 1, 103, 117)"><g clip-path="url(#77a310cbe5)"><g clip-path="url(#bd2956be31)"><g clip-path="url(#5d94d47d59)"><path fill="#ffffff" d="M 0.617188 0.277344 L 21.179688 0.277344 L 21.179688 20.839844 L 0.617188 20.839844 Z M 0.617188 0.277344 " fill-opacity="1" fill-rule="nonzero"/></g></g></g></g></g></g><g transform="matrix(1, 0, 0, 1, 11, 252)"><g clip-path="url(#e25c06337c)"><g fill="#0f203b" fill-opacity="1"><g transform="translate(0.216765, 36.853603)"><g><path d="M 11.890625 0.453125 C 9.785156 0.453125 7.75 0.171875 5.78125 -0.390625 C 3.820312 -0.960938 2.25 -1.707031 1.0625 -2.625 L 3.15625 -7.25 C 4.289062 -6.414062 5.640625 -5.742188 7.203125 -5.234375 C 8.773438 -4.734375 10.347656 -4.484375 11.921875 -4.484375 C 13.671875 -4.484375 14.960938 -4.738281 15.796875 -5.25 C 16.628906 -5.769531 17.046875 -6.460938 17.046875 -7.328125 C 17.046875 -7.960938 16.796875 -8.488281 16.296875 -8.90625 C 15.804688 -9.320312 15.175781 -9.65625 14.40625 -9.90625 C 13.632812 -10.164062 12.59375 -10.445312 11.28125 -10.75 C 9.25 -11.226562 7.585938 -11.707031 6.296875 -12.1875 C 5.003906 -12.664062 3.894531 -13.4375 2.96875 -14.5 C 2.050781 -15.5625 1.59375 -16.976562 1.59375 -18.75 C 1.59375 -20.300781 2.007812 -21.703125 2.84375 -22.953125 C 3.675781 -24.203125 4.9375 -25.191406 6.625 -25.921875 C 8.3125 -26.660156 10.367188 -27.03125 12.796875 -27.03125 C 14.492188 -27.03125 16.148438 -26.828125 17.765625 -26.421875 C 19.390625 -26.015625 20.804688 -25.429688 22.015625 -24.671875 L 20.125 -20.015625 C 17.664062 -21.398438 15.207031 -22.09375 12.75 -22.09375 C 11.03125 -22.09375 9.757812 -21.8125 8.9375 -21.25 C 8.113281 -20.695312 7.703125 -19.96875 7.703125 -19.0625 C 7.703125 -18.144531 8.175781 -17.460938 9.125 -17.015625 C 10.082031 -16.578125 11.535156 -16.144531 13.484375 -15.71875 C 15.503906 -15.238281 17.160156 -14.757812 18.453125 -14.28125 C 19.742188 -13.800781 20.847656 -13.039062 21.765625 -12 C 22.691406 -10.957031 23.15625 -9.550781 23.15625 -7.78125 C 23.15625 -6.257812 22.726562 -4.875 21.875 -3.625 C 21.03125 -2.375 19.757812 -1.378906 18.0625 -0.640625 C 16.375 0.0859375 14.316406 0.453125 11.890625 0.453125 Z M 11.890625 0.453125 "/></g></g></g><g fill="#0f203b" fill-opacity="1"><g transform="translate(24.430673, 36.853603)"><g><path d="M 12.828125 -10.4375 L 9.265625 -6.71875 L 9.265625 0 L 3.15625 0 L 3.15625 -26.578125 L 9.265625 -26.578125 L 9.265625 -14.15625 L 21.03125 -26.578125 L 27.875 -26.578125 L 16.859375 -14.734375 L 28.515625 0 L 21.34375 0 Z M 12.828125 -10.4375 "/></g></g></g><g fill="#0f203b" fill-opacity="1"><g transform="translate(52.51577, 36.853603)"><g><path d="M 16.015625 0.453125 C 13.265625 0.453125 10.78125 -0.140625 8.5625 -1.328125 C 6.34375 -2.515625 4.609375 -4.148438 3.359375 -6.234375 C 2.109375 -8.328125 1.484375 -10.675781 1.484375 -13.28125 C 1.484375 -15.894531 2.109375 -18.242188 3.359375 -20.328125 C 4.609375 -22.421875 6.34375 -24.0625 8.5625 -25.25 C 10.78125 -26.4375 13.265625 -27.03125 16.015625 -27.03125 C 18.773438 -27.03125 21.253906 -26.4375 23.453125 -25.25 C 25.660156 -24.0625 27.394531 -22.421875 28.65625 -20.328125 C 29.925781 -18.242188 30.5625 -15.894531 30.5625 -13.28125 C 30.5625 -10.675781 29.925781 -8.328125 28.65625 -6.234375 C 27.394531 -4.148438 25.660156 -2.515625 23.453125 -1.328125 C 21.253906 -0.140625 18.773438 0.453125 16.015625 0.453125 Z M 16.015625 -4.78125 C 17.585938 -4.78125 19.003906 -5.140625 20.265625 -5.859375 C 21.535156 -6.585938 22.53125 -7.597656 23.25 -8.890625 C 23.976562 -10.179688 24.34375 -11.644531 24.34375 -13.28125 C 24.34375 -14.925781 23.976562 -16.394531 23.25 -17.6875 C 22.53125 -18.976562 21.535156 -19.984375 20.265625 -20.703125 C 19.003906 -21.429688 17.585938 -21.796875 16.015625 -21.796875 C 14.453125 -21.796875 13.035156 -21.429688 11.765625 -20.703125 C 10.503906 -19.984375 9.507812 -18.976562 8.78125 -17.6875 C 8.0625 -16.394531 7.703125 -14.925781 7.703125 -13.28125 C 7.703125 -11.644531 8.0625 -10.179688 8.78125 -8.890625 C 9.507812 -7.597656 10.503906 -6.585938 11.765625 -5.859375 C 13.035156 -5.140625 14.453125 -4.78125 16.015625 -4.78125 Z M 16.015625 -4.78125 "/></g></g></g><g fill="#0f203b" fill-opacity="1"><g transform="translate(84.547959, 36.853603)"><g><path d="M 16.015625 0.453125 C 13.265625 0.453125 10.78125 -0.140625 8.5625 -1.328125 C 6.34375 -2.515625 4.609375 -4.148438 3.359375 -6.234375 C 2.109375 -8.328125 1.484375 -10.675781 1.484375 -13.28125 C 1.484375 -15.894531 2.109375 -18.242188 3.359375 -20.328125 C 4.609375 -22.421875 6.34375 -24.0625 8.5625 -25.25 C 10.78125 -26.4375 13.265625 -27.03125 16.015625 -27.03125 C 18.773438 -27.03125 21.253906 -26.4375 23.453125 -25.25 C 25.660156 -24.0625 27.394531 -22.421875 28.65625 -20.328125 C 29.925781 -18.242188 30.5625 -15.894531 30.5625 -13.28125 C 30.5625 -10.675781 29.925781 -8.328125 28.65625 -6.234375 C 27.394531 -4.148438 25.660156 -2.515625 23.453125 -1.328125 C 21.253906 -0.140625 18.773438 0.453125 16.015625 0.453125 Z M 16.015625 -4.78125 C 17.585938 -4.78125 19.003906 -5.140625 20.265625 -5.859375 C 21.535156 -6.585938 22.53125 -7.597656 23.25 -8.890625 C 23.976562 -10.179688 24.34375 -11.644531 24.34375 -13.28125 C 24.34375 -14.925781 23.976562 -16.394531 23.25 -17.6875 C 22.53125 -18.976562 21.535156 -19.984375 20.265625 -20.703125 C 19.003906 -21.429688 17.585938 -21.796875 16.015625 -21.796875 C 14.453125 -21.796875 13.035156 -21.429688 11.765625 -20.703125 C 10.503906 -19.984375 9.507812 -18.976562 8.78125 -17.6875 C 8.0625 -16.394531 7.703125 -14.925781 7.703125 -13.28125 C 7.703125 -11.644531 8.0625 -10.179688 8.78125 -8.890625 C 9.507812 -7.597656 10.503906 -6.585938 11.765625 -5.859375 C 13.035156 -5.140625 14.453125 -4.78125 16.015625 -4.78125 Z M 16.015625 -4.78125 "/></g></g></g><g fill="#0f203b" fill-opacity="1"><g transform="translate(116.580147, 36.853603)"><g><path d="M 3.15625 -26.578125 L 9.296875 -26.578125 L 9.296875 -5.015625 L 22.625 -5.015625 L 22.625 0 L 3.15625 0 Z M 3.15625 -26.578125 "/></g></g></g><g fill="#0f203b" fill-opacity="1"><g transform="translate(139.503651, 36.853603)"><g><path d="M 27.34375 0 L 27.296875 -15.953125 L 19.484375 -2.8125 L 16.703125 -2.8125 L 8.921875 -15.609375 L 8.921875 0 L 3.15625 0 L 3.15625 -26.578125 L 8.234375 -26.578125 L 18.1875 -10.0625 L 27.984375 -26.578125 L 33.03125 -26.578125 L 33.109375 0 Z M 27.34375 0 "/></g></g></g><g fill="#0f203b" fill-opacity="1"><g transform="translate(175.748599, 36.853603)"><g><path d="M 20.65625 -5.6875 L 8.3125 -5.6875 L 5.96875 0 L -0.34375 0 L 11.5 -26.578125 L 17.578125 -26.578125 L 29.46875 0 L 23.015625 0 Z M 18.71875 -10.359375 L 14.5 -20.546875 L 10.296875 -10.359375 Z M 18.71875 -10.359375 "/></g></g></g><g fill="#0f203b" fill-opacity="1"><g transform="translate(204.820469, 36.853603)"><g><path d="M 8.65625 -21.5625 L 0.15625 -21.5625 L 0.15625 -26.578125 L 23.3125 -26.578125 L 23.3125 -21.5625 L 14.8125 -21.5625 L 14.8125 0 L 8.65625 0 Z M 8.65625 -21.5625 "/></g></g></g><g fill="#0f203b" fill-opacity="1"><g transform="translate(228.275311, 36.853603)"><g><path d="M 23.734375 -4.9375 L 23.734375 0 L 3.15625 0 L 3.15625 -26.578125 L 23.234375 -26.578125 L 23.234375 -21.640625 L 9.265625 -21.640625 L 9.265625 -15.875 L 21.609375 -15.875 L 21.609375 -11.09375 L 9.265625 -11.09375 L 9.265625 -4.9375 Z M 23.734375 -4.9375 "/></g></g></g></g></g><g transform="matrix(1, 0, 0, 1, 241, 242)"><g clip-path="url(#edf24e7ff3)"><g fill="#0f203b" fill-opacity="1"><g transform="translate(0.406882, 14.726872)"><g><path d="M 6.3125 0.09375 C 5.269531 0.09375 4.320312 -0.140625 3.46875 -0.609375 C 2.625 -1.078125 1.960938 -1.71875 1.484375 -2.53125 C 1.015625 -3.34375 0.78125 -4.253906 0.78125 -5.265625 C 0.78125 -6.273438 1.015625 -7.1875 1.484375 -8 C 1.960938 -8.8125 2.625 -9.445312 3.46875 -9.90625 C 4.320312 -10.375 5.269531 -10.609375 6.3125 -10.609375 C 7.351562 -10.609375 8.289062 -10.378906 9.125 -9.921875 C 9.96875 -9.460938 10.628906 -8.820312 11.109375 -8 C 11.585938 -7.1875 11.828125 -6.273438 11.828125 -5.265625 C 11.828125 -4.253906 11.585938 -3.335938 11.109375 -2.515625 C 10.628906 -1.703125 9.96875 -1.0625 9.125 -0.59375 C 8.289062 -0.132812 7.351562 0.09375 6.3125 0.09375 Z M 6.3125 -0.90625 C 7.144531 -0.90625 7.894531 -1.09375 8.5625 -1.46875 C 9.238281 -1.84375 9.765625 -2.363281 10.140625 -3.03125 C 10.523438 -3.695312 10.71875 -4.441406 10.71875 -5.265625 C 10.71875 -6.085938 10.523438 -6.832031 10.140625 -7.5 C 9.765625 -8.164062 9.238281 -8.6875 8.5625 -9.0625 C 7.894531 -9.4375 7.144531 -9.625 6.3125 -9.625 C 5.476562 -9.625 4.722656 -9.4375 4.046875 -9.0625 C 3.367188 -8.6875 2.835938 -8.164062 2.453125 -7.5 C 2.066406 -6.832031 1.875 -6.085938 1.875 -5.265625 C 1.875 -4.441406 2.066406 -3.695312 2.453125 -3.03125 C 2.835938 -2.363281 3.367188 -1.84375 4.046875 -1.46875 C 4.722656 -1.09375 5.476562 -0.90625 6.3125 -0.90625 Z M 6.3125 -0.90625 "/></g></g></g><g fill="#0f203b" fill-opacity="1"><g transform="translate(13.014844, 14.726872)"><g><path d="M 4.609375 0.09375 C 3.828125 0.09375 3.078125 -0.03125 2.359375 -0.28125 C 1.648438 -0.53125 1.097656 -0.863281 0.703125 -1.28125 L 1.140625 -2.140625 C 1.523438 -1.753906 2.03125 -1.441406 2.65625 -1.203125 C 3.289062 -0.972656 3.941406 -0.859375 4.609375 -0.859375 C 5.554688 -0.859375 6.265625 -1.03125 6.734375 -1.375 C 7.203125 -1.71875 7.4375 -2.164062 7.4375 -2.71875 C 7.4375 -3.144531 7.304688 -3.484375 7.046875 -3.734375 C 6.796875 -3.984375 6.484375 -4.175781 6.109375 -4.3125 C 5.742188 -4.445312 5.226562 -4.59375 4.5625 -4.75 C 3.769531 -4.945312 3.140625 -5.140625 2.671875 -5.328125 C 2.203125 -5.515625 1.800781 -5.796875 1.46875 -6.171875 C 1.132812 -6.554688 0.96875 -7.070312 0.96875 -7.71875 C 0.96875 -8.25 1.101562 -8.734375 1.375 -9.171875 C 1.65625 -9.609375 2.085938 -9.957031 2.671875 -10.21875 C 3.253906 -10.476562 3.976562 -10.609375 4.84375 -10.609375 C 5.4375 -10.609375 6.019531 -10.523438 6.59375 -10.359375 C 7.175781 -10.191406 7.679688 -9.96875 8.109375 -9.6875 L 7.71875 -8.796875 C 7.28125 -9.085938 6.8125 -9.304688 6.3125 -9.453125 C 5.8125 -9.597656 5.320312 -9.671875 4.84375 -9.671875 C 3.914062 -9.671875 3.21875 -9.488281 2.75 -9.125 C 2.289062 -8.769531 2.0625 -8.3125 2.0625 -7.75 C 2.0625 -7.332031 2.1875 -6.992188 2.4375 -6.734375 C 2.695312 -6.484375 3.019531 -6.289062 3.40625 -6.15625 C 3.789062 -6.019531 4.304688 -5.875 4.953125 -5.71875 C 5.734375 -5.519531 6.359375 -5.328125 6.828125 -5.140625 C 7.304688 -4.960938 7.707031 -4.6875 8.03125 -4.3125 C 8.363281 -3.9375 8.53125 -3.425781 8.53125 -2.78125 C 8.53125 -2.25 8.390625 -1.765625 8.109375 -1.328125 C 7.828125 -0.890625 7.390625 -0.539062 6.796875 -0.28125 C 6.203125 -0.03125 5.472656 0.09375 4.609375 0.09375 Z M 4.609375 0.09375 "/></g></g></g></g></g><g clip-path="url(#41540962d9)"><g clip-path="url(#7a0fc4572e)"><g transform="matrix(1, 0, 0, 1, 19, 0.000000000000026117)"><g clip-path="url(#a77740f169)"><g clip-path="url(#b12160602b)"><g clip-path="url(#f5438a1fa3)"><path fill="#0b1c39" d="M 0.132812 0 L 254.273438 0 L 254.273438 98.875 L 0.132812 98.875 Z M 0.132812 0 " fill-opacity="1" fill-rule="nonzero"/></g></g></g></g></g></g><g clip-path="url(#40a264e5a0)"><g transform="matrix(1, 0, 0, 1, 248, 49)"><g clip-path="url(#b2d17f3f0c)"><g clip-path="url(#cf37440db1)"><path fill="#0b1c39" d="M 0.632812 0.4375 L 9.824219 0.4375 L 9.824219 49.878906 L 0.632812 49.878906 Z M 0.632812 0.4375 " fill-opacity="1" fill-rule="nonzero"/></g></g></g></g><g clip-path="url(#1a6f8f5a77)"><g clip-path="url(#89fe325057)"><g transform="matrix(1, 0, 0, 1, 113, 142)"><g clip-path="url(#c0045b97a1)"><g clip-path="url(#09b10d739c)"><g clip-path="url(#6c630cd8ef)"><path fill="#0b1c39" d="M 0.523438 0.144531 L 68.730469 0.144531 L 68.730469 108.851562 L 0.523438 108.851562 Z M 0.523438 0.144531 " fill-opacity="1" fill-rule="nonzero"/></g></g></g></g></g></g><g clip-path="url(#365b00539a)"><g clip-path="url(#71f9477f73)"><g transform="matrix(1, 0, 0, 1, 127, 64)"><g clip-path="url(#422b9bc1d4)"><g clip-path="url(#f40e090210)"><g clip-path="url(#c50f3c8b5a)"><path fill="#ffffff" d="M 0.160156 0.457031 L 158.316406 0.457031 L 158.316406 158.613281 L 0.160156 158.613281 Z M 0.160156 0.457031 " fill-opacity="1" fill-rule="nonzero"/></g></g></g></g></g></g><g clip-path="url(#4e27ace330)"><g clip-path="url(#574c5450d3)"><path stroke-linecap="butt" transform="matrix(0.748197, 0, 0, 0.748197, 127.161468, 64.458197)" fill="none" stroke-linejoin="miter" d="M 105.689824 -0.00155761 C 47.32034 -0.00155761 -0.00175372 47.315315 -0.00175372 105.69002 C -0.00175372 164.059504 47.32034 211.376377 105.689824 211.376377 C 164.059308 211.376377 211.376181 164.059504 211.376181 105.69002 C 211.376181 47.315315 164.059308 -0.00155761 105.689824 -0.00155761 Z M 105.689824 -0.00155761 " stroke="#ffffff" stroke-width="12" stroke-opacity="1" stroke-miterlimit="4"/></g></g><g clip-path="url(#8fe49538fc)"><g clip-path="url(#ef4513c87c)"><g transform="matrix(1, 0, 0, 1, 5, 64)"><g clip-path="url(#c41c0b5647)"><g clip-path="url(#74c7b5cab7)"><g clip-path="url(#67b4dcb930)"><path fill="#ffffff" d="M 0.5 0.457031 L 161.769531 0.457031 L 161.769531 161.726562 L 0.5 161.726562 Z M 0.5 0.457031 " fill-opacity="1" fill-rule="nonzero"/></g></g></g></g></g></g><g clip-path="url(#0c96dbac08)"><g clip-path="url(#a36c8d1555)"><path stroke-linecap="butt" transform="matrix(0.748197, 0, 0, 0.748197, 5.501668, 64.458197)" fill="none" stroke-linejoin="miter" d="M 107.76726 -0.00155761 C 48.249182 -0.00155761 -0.00222898 48.249853 -0.00222898 107.767932 C -0.00222898 167.28079 48.249182 215.5322 107.76726 215.5322 C 167.285339 215.5322 215.531529 167.28079 215.531529 107.767932 C 215.531529 48.249853 167.285339 -0.00155761 107.76726 -0.00155761 Z M 107.76726 -0.00155761 " stroke="#ffffff" stroke-width="12" stroke-opacity="1" stroke-miterlimit="4"/></g></g><g clip-path="url(#f715893589)"><g clip-path="url(#1db530f25f)"><g transform="matrix(1, 0, 0, 1, 139, 74)"><g clip-path="url(#9f6ca95ab6)"><g clip-path="url(#948b58556f)"><g clip-path="url(#4913765c60)"><path fill="#0b1c39" d="M 0.175781 0.15625 L 134.300781 0.15625 L 134.300781 134.277344 L 0.175781 134.277344 Z M 0.175781 0.15625 " fill-opacity="1" fill-rule="nonzero"/></g></g></g></g></g></g><g clip-path="url(#61f12bcb55)"><g clip-path="url(#a8adead1eb)"><path stroke-linecap="butt" transform="matrix(0.748197, 0, 0, 0.748197, 139.176872, 74.156073)" fill="none" stroke-linejoin="miter" d="M 89.625454 0.000235968 C 40.126255 0.000235968 -0.00145767 40.127949 -0.00145767 89.627147 C -0.00145767 139.121126 40.126255 179.248838 89.625454 179.248838 C 139.124653 179.248838 179.252365 139.121126 179.252365 89.627147 C 179.252365 40.127949 139.124653 0.000235968 89.625454 0.000235968 Z M 89.625454 0.000235968 " stroke="#0b1c39" stroke-width="6" stroke-opacity="1" stroke-miterlimit="4"/></g></g><g clip-path="url(#e9cdc98cec)"><g clip-path="url(#ead117f106)"><g transform="matrix(1, 0, 0, 1, 164, 97)"><g clip-path="url(#c1983e4512)"><g clip-path="url(#ae8ae40fbe)"><g clip-path="url(#050e6a2bcb)"><path fill="#ffffff" d="M 0.292969 0.421875 L 87.882812 0.421875 L 87.882812 88.011719 L 0.292969 88.011719 Z M 0.292969 0.421875 " fill-opacity="1" fill-rule="nonzero"/></g></g></g></g></g></g><g clip-path="url(#3eab341b23)"><g clip-path="url(#2a0c62c129)"><g transform="matrix(1, 0, 0, 1, 180, 113)"><g clip-path="url(#8092808bc6)"><g clip-path="url(#a68829f543)"><g clip-path="url(#9e1825aa1a)"><path fill="#0b1c39" d="M 0.3125 0.441406 L 55.863281 0.441406 L 55.863281 55.996094 L 0.3125 55.996094 Z M 0.3125 0.441406 " fill-opacity="1" fill-rule="nonzero"/></g></g></g></g></g></g><g clip-path="url(#e6acbf1eed)"><g clip-path="url(#b050bb915d)"><g transform="matrix(1, 0, 0, 1, 212, 119)"><g clip-path="url(#f4dd3d6c84)"><g clip-path="url(#ac77bbed53)"><g clip-path="url(#b80e3fb8f5)"><path fill="#ffffff" d="M 0.226562 0.625 L 22.417969 0.625 L 22.417969 22.820312 L 0.226562 22.820312 Z M 0.226562 0.625 " fill-opacity="1" fill-rule="nonzero"/></g></g></g></g></g></g><g clip-path="url(#c50f3fa596)"><g clip-path="url(#4b46af5834)"><g transform="matrix(1, 0, 0, 1, 20, 76)"><g clip-path="url(#6784863f90)"><g clip-path="url(#0131272509)"><g clip-path="url(#08b705e0c0)"><path fill="#0b1c39" d="M 0.46875 0.472656 L 134.589844 0.472656 L 134.589844 134.597656 L 0.46875 134.597656 Z M 0.46875 0.472656 " fill-opacity="1" fill-rule="nonzero"/></g></g></g></g></g></g><g clip-path="url(#db51487178)"><g clip-path="url(#2982409cc8)"><path stroke-linecap="butt" transform="matrix(0.748197, 0, 0, 0.748197, 20.467345, 76.473607)" fill="none" stroke-linejoin="miter" d="M 89.623568 -0.00127116 C 40.124369 -0.00127116 0.00187758 40.126441 0.00187758 89.62564 C 0.00187758 139.124839 40.124369 179.252552 89.623568 179.252552 C 139.122767 179.252552 179.25048 139.124839 179.25048 89.62564 C 179.25048 40.126441 139.122767 -0.00127116 89.623568 -0.00127116 Z M 89.623568 -0.00127116 " stroke="#0b1c39" stroke-width="6" stroke-opacity="1" stroke-miterlimit="4"/></g></g><g clip-path="url(#6c2643062f)"><g clip-path="url(#e45ccbabe6)"><g transform="matrix(1, 0, 0, 1, 43, 101)"><g clip-path="url(#98fb06051a)"><g clip-path="url(#000081b66f)"><g clip-path="url(#1445641d74)"><path fill="#ffffff" d="M 0.734375 0.296875 L 88.324219 0.296875 L 88.324219 87.886719 L 0.734375 87.886719 Z M 0.734375 0.296875 " fill-opacity="1" fill-rule="nonzero"/></g></g></g></g></g></g><g clip-path="url(#6d88a70290)"><g clip-path="url(#3c35592bcc)"><g transform="matrix(1, 0, 0, 1, 59, 117)"><g clip-path="url(#bb30395631)"><g clip-path="url(#69c6f5c153)"><g clip-path="url(#94b8226693)"><path fill="#0b1c39" d="M 0.75 0.316406 L 56.304688 0.316406 L 56.304688 55.871094 L 0.75 55.871094 Z M 0.75 0.316406 " fill-opacity="1" fill-rule="nonzero"/></g></g></g></g></g></g><g clip-path="url(#73430fbe01)"><g clip-path="url(#47e88a5c13)"><g transform="matrix(1, 0, 0, 1, 93, 121)"><g clip-path="url(#d2a189c5bd)"><g clip-path="url(#ad5352f452)"><g clip-path="url(#6b037337cf)"><path fill="#ffffff" d="M 0.335938 0.507812 L 22.53125 0.507812 L 22.53125 22.699219 L 0.335938 22.699219 Z M 0.335938 0.507812 " fill-opacity="1" fill-rule="nonzero"/></g></g></g></g></g></g></svg>