<svg xmlns="http://www.w3.org/2000/svg" xmlns:xlink="http://www.w3.org/1999/xlink" width="500" zoomAndPan="magnify" viewBox="0 0 375 374.999991" height="500" preserveAspectRatio="xMidYMid meet" version="1.0"><defs><g/><clipPath id="6f182788d1"><path d="M 32.207031 0.601562 L 268.628906 0.601562 L 268.628906 92.445312 L 32.207031 92.445312 Z M 32.207031 0.601562 " clip-rule="nonzero"/></clipPath><clipPath id="35d47eda5a"><path d="M 150.25 0.601562 L 268.296875 46.523438 L 150.25 92.445312 L 32.207031 46.523438 Z M 150.25 0.601562 " clip-rule="nonzero"/></clipPath><clipPath id="347f6eb48b"><path d="M 0.207031 0.601562 L 236.480469 0.601562 L 236.480469 92.445312 L 0.207031 92.445312 Z M 0.207031 0.601562 " clip-rule="nonzero"/></clipPath><clipPath id="a25d00b5d7"><path d="M 118.25 0.601562 L 236.296875 46.523438 L 118.25 92.445312 L 0.207031 46.523438 Z M 118.25 0.601562 " clip-rule="nonzero"/></clipPath><clipPath id="c8855b51ca"><rect x="0" width="237" y="0" height="93"/></clipPath><clipPath id="9c69b1b666"><path d="M 245.386719 46.523438 L 253.921875 46.523438 L 253.921875 92.445312 L 245.386719 92.445312 Z M 245.386719 46.523438 " clip-rule="nonzero"/></clipPath><clipPath id="2bbb85aa10"><path d="M 0.386719 0.523438 L 8.921875 0.523438 L 8.921875 46.445312 L 0.386719 46.445312 Z M 0.386719 0.523438 " clip-rule="nonzero"/></clipPath><clipPath id="a3576c4f34"><rect x="0" width="9" y="0" height="47"/></clipPath><clipPath id="3deaaec0a6"><path d="M 119.882812 132.636719 L 183.238281 132.636719 L 183.238281 233.613281 L 119.882812 233.613281 Z M 119.882812 132.636719 " clip-rule="nonzero"/></clipPath><clipPath id="df907bedef"><path d="M 151.558594 132.636719 L 183.238281 183.113281 L 151.558594 233.585938 L 119.882812 183.113281 Z M 151.558594 132.636719 " clip-rule="nonzero"/></clipPath><clipPath id="8a4d9d17bb"><path d="M 0.882812 0.636719 L 64.238281 0.636719 L 64.238281 101.613281 L 0.882812 101.613281 Z M 0.882812 0.636719 " clip-rule="nonzero"/></clipPath><clipPath id="a7ae87124a"><path d="M 32.558594 0.636719 L 64.238281 51.113281 L 32.558594 101.585938 L 0.882812 51.113281 Z M 32.558594 0.636719 " clip-rule="nonzero"/></clipPath><clipPath id="c2384191ba"><rect x="0" width="65" y="0" height="102"/></clipPath><clipPath id="ce3e2118c1"><path d="M 132.550781 60.476562 L 279.457031 60.476562 L 279.457031 207.382812 L 132.550781 207.382812 Z M 132.550781 60.476562 " clip-rule="nonzero"/></clipPath><clipPath id="2519134bd0"><path d="M 206.003906 60.476562 C 165.4375 60.476562 132.550781 93.359375 132.550781 133.929688 C 132.550781 174.496094 165.4375 207.382812 206.003906 207.382812 C 246.570312 207.382812 279.457031 174.496094 279.457031 133.929688 C 279.457031 93.359375 246.570312 60.476562 206.003906 60.476562 Z M 206.003906 60.476562 " clip-rule="nonzero"/></clipPath><clipPath id="c6aecd9705"><path d="M 0.550781 0.476562 L 147.457031 0.476562 L 147.457031 147.382812 L 0.550781 147.382812 Z M 0.550781 0.476562 " clip-rule="nonzero"/></clipPath><clipPath id="e8728254f7"><path d="M 74.003906 0.476562 C 33.4375 0.476562 0.550781 33.359375 0.550781 73.929688 C 0.550781 114.496094 33.4375 147.382812 74.003906 147.382812 C 114.570312 147.382812 147.457031 114.496094 147.457031 73.929688 C 147.457031 33.359375 114.570312 0.476562 74.003906 0.476562 Z M 74.003906 0.476562 " clip-rule="nonzero"/></clipPath><clipPath id="06fe34ebfc"><rect x="0" width="148" y="0" height="148"/></clipPath><clipPath id="932aa4b854"><path d="M 132.550781 60.476562 L 279.457031 60.476562 L 279.457031 207.378906 L 132.550781 207.378906 Z M 132.550781 60.476562 " clip-rule="nonzero"/></clipPath><clipPath id="f388f7d268"><path d="M 206.003906 60.476562 C 165.4375 60.476562 132.550781 93.359375 132.550781 133.925781 C 132.550781 174.496094 165.4375 207.378906 206.003906 207.378906 C 246.570312 207.378906 279.457031 174.496094 279.457031 133.925781 C 279.457031 93.359375 246.570312 60.476562 206.003906 60.476562 Z M 206.003906 60.476562 " clip-rule="nonzero"/></clipPath><clipPath id="a50a371aa4"><path d="M 19.542969 60.476562 L 169.34375 60.476562 L 169.34375 210.273438 L 19.542969 210.273438 Z M 19.542969 60.476562 " clip-rule="nonzero"/></clipPath><clipPath id="b7184fedbd"><path d="M 94.441406 60.476562 C 53.078125 60.476562 19.542969 94.007812 19.542969 135.375 C 19.542969 176.742188 53.078125 210.273438 94.441406 210.273438 C 135.808594 210.273438 169.34375 176.742188 169.34375 135.375 C 169.34375 94.007812 135.808594 60.476562 94.441406 60.476562 Z M 94.441406 60.476562 " clip-rule="nonzero"/></clipPath><clipPath id="a6c1e3190f"><path d="M 0.542969 0.476562 L 150.34375 0.476562 L 150.34375 150.273438 L 0.542969 150.273438 Z M 0.542969 0.476562 " clip-rule="nonzero"/></clipPath><clipPath id="e9457d7252"><path d="M 75.441406 0.476562 C 34.078125 0.476562 0.542969 34.007812 0.542969 75.375 C 0.542969 116.742188 34.078125 150.273438 75.441406 150.273438 C 116.808594 150.273438 150.34375 116.742188 150.34375 75.375 C 150.34375 34.007812 116.808594 0.476562 75.441406 0.476562 Z M 75.441406 0.476562 " clip-rule="nonzero"/></clipPath><clipPath id="10eff49b7b"><rect x="0" width="151" y="0" height="151"/></clipPath><clipPath id="807d5db0ec"><path d="M 19.542969 60.476562 L 169.335938 60.476562 L 169.335938 210.269531 L 19.542969 210.269531 Z M 19.542969 60.476562 " clip-rule="nonzero"/></clipPath><clipPath id="8733fe73cd"><path d="M 94.441406 60.476562 C 53.074219 60.476562 19.542969 94.007812 19.542969 135.371094 C 19.542969 176.734375 53.074219 210.269531 94.441406 210.269531 C 135.804688 210.269531 169.335938 176.734375 169.335938 135.371094 C 169.335938 94.007812 135.804688 60.476562 94.441406 60.476562 Z M 94.441406 60.476562 " clip-rule="nonzero"/></clipPath><clipPath id="3d80dfdeb7"><path d="M 143.710938 69.484375 L 268.296875 69.484375 L 268.296875 194.066406 L 143.710938 194.066406 Z M 143.710938 69.484375 " clip-rule="nonzero"/></clipPath><clipPath id="3e05e0a21d"><path d="M 206.003906 69.484375 C 171.601562 69.484375 143.710938 97.371094 143.710938 131.777344 C 143.710938 166.179688 171.601562 194.066406 206.003906 194.066406 C 240.40625 194.066406 268.296875 166.179688 268.296875 131.777344 C 268.296875 97.371094 240.40625 69.484375 206.003906 69.484375 Z M 206.003906 69.484375 " clip-rule="nonzero"/></clipPath><clipPath id="79e764a4f7"><path d="M 0.710938 0.484375 L 125.296875 0.484375 L 125.296875 125.066406 L 0.710938 125.066406 Z M 0.710938 0.484375 " clip-rule="nonzero"/></clipPath><clipPath id="4a0d11ac1d"><path d="M 63.003906 0.484375 C 28.601562 0.484375 0.710938 28.371094 0.710938 62.777344 C 0.710938 97.179688 28.601562 125.066406 63.003906 125.066406 C 97.40625 125.066406 125.296875 97.179688 125.296875 62.777344 C 125.296875 28.371094 97.40625 0.484375 63.003906 0.484375 Z M 63.003906 0.484375 " clip-rule="nonzero"/></clipPath><clipPath id="3f125724b3"><rect x="0" width="126" y="0" height="126"/></clipPath><clipPath id="42713bcd70"><path d="M 143.710938 69.484375 L 268.289062 69.484375 L 268.289062 194.058594 L 143.710938 194.058594 Z M 143.710938 69.484375 " clip-rule="nonzero"/></clipPath><clipPath id="455a3a7390"><path d="M 206 69.484375 C 171.597656 69.484375 143.710938 97.371094 143.710938 131.773438 C 143.710938 166.171875 171.597656 194.058594 206 194.058594 C 240.402344 194.058594 268.289062 166.171875 268.289062 131.773438 C 268.289062 97.371094 240.402344 69.484375 206 69.484375 Z M 206 69.484375 " clip-rule="nonzero"/></clipPath><clipPath id="b383aceb69"><path d="M 160.632812 88.394531 L 251.375 88.394531 L 251.375 179.136719 L 160.632812 179.136719 Z M 160.632812 88.394531 " clip-rule="nonzero"/></clipPath><clipPath id="200239f867"><path d="M 206.003906 88.394531 C 180.945312 88.394531 160.632812 108.707031 160.632812 133.765625 C 160.632812 158.824219 180.945312 179.136719 206.003906 179.136719 C 231.0625 179.136719 251.375 158.824219 251.375 133.765625 C 251.375 108.707031 231.0625 88.394531 206.003906 88.394531 Z M 206.003906 88.394531 " clip-rule="nonzero"/></clipPath><clipPath id="45406619ab"><path d="M 0.632812 0.394531 L 91.375 0.394531 L 91.375 91.136719 L 0.632812 91.136719 Z M 0.632812 0.394531 " clip-rule="nonzero"/></clipPath><clipPath id="ffa28ba391"><path d="M 46.003906 0.394531 C 20.945312 0.394531 0.632812 20.707031 0.632812 45.765625 C 0.632812 70.824219 20.945312 91.136719 46.003906 91.136719 C 71.0625 91.136719 91.375 70.824219 91.375 45.765625 C 91.375 20.707031 71.0625 0.394531 46.003906 0.394531 Z M 46.003906 0.394531 " clip-rule="nonzero"/></clipPath><clipPath id="4230348a0d"><rect x="0" width="92" y="0" height="92"/></clipPath><clipPath id="8c3b6e2f37"><path d="M 181.921875 108.28125 L 233.523438 108.28125 L 233.523438 159.882812 L 181.921875 159.882812 Z M 181.921875 108.28125 " clip-rule="nonzero"/></clipPath><clipPath id="cb057a0bf8"><path d="M 207.722656 108.28125 C 193.472656 108.28125 181.921875 119.832031 181.921875 134.082031 C 181.921875 148.332031 193.472656 159.882812 207.722656 159.882812 C 221.972656 159.882812 233.523438 148.332031 233.523438 134.082031 C 233.523438 119.832031 221.972656 108.28125 207.722656 108.28125 Z M 207.722656 108.28125 " clip-rule="nonzero"/></clipPath><clipPath id="b17f425409"><path d="M 0.921875 0.28125 L 52.523438 0.28125 L 52.523438 51.882812 L 0.921875 51.882812 Z M 0.921875 0.28125 " clip-rule="nonzero"/></clipPath><clipPath id="4dd896a570"><path d="M 26.722656 0.28125 C 12.472656 0.28125 0.921875 11.832031 0.921875 26.082031 C 0.921875 40.332031 12.472656 51.882812 26.722656 51.882812 C 40.972656 51.882812 52.523438 40.332031 52.523438 26.082031 C 52.523438 11.832031 40.972656 0.28125 26.722656 0.28125 Z M 26.722656 0.28125 " clip-rule="nonzero"/></clipPath><clipPath id="71a14c376f"><rect x="0" width="53" y="0" height="52"/></clipPath><clipPath id="ef3a398ae0"><path d="M 217.875 108.28125 L 238.488281 108.28125 L 238.488281 128.894531 L 217.875 128.894531 Z M 217.875 108.28125 " clip-rule="nonzero"/></clipPath><clipPath id="35fe1ca756"><path d="M 228.179688 108.28125 C 222.488281 108.28125 217.875 112.894531 217.875 118.585938 C 217.875 124.28125 222.488281 128.894531 228.179688 128.894531 C 233.875 128.894531 238.488281 124.28125 238.488281 118.585938 C 238.488281 112.894531 233.875 108.28125 228.179688 108.28125 Z M 228.179688 108.28125 " clip-rule="nonzero"/></clipPath><clipPath id="bb6ecb6702"><path d="M 0.875 0.28125 L 21.488281 0.28125 L 21.488281 20.894531 L 0.875 20.894531 Z M 0.875 0.28125 " clip-rule="nonzero"/></clipPath><clipPath id="1b3c0f5e65"><path d="M 11.179688 0.28125 C 5.488281 0.28125 0.875 4.894531 0.875 10.585938 C 0.875 16.28125 5.488281 20.894531 11.179688 20.894531 C 16.875 20.894531 21.488281 16.28125 21.488281 10.585938 C 21.488281 4.894531 16.875 0.28125 11.179688 0.28125 Z M 11.179688 0.28125 " clip-rule="nonzero"/></clipPath><clipPath id="dac6927670"><rect x="0" width="22" y="0" height="21"/></clipPath><clipPath id="b1e451cc8d"><path d="M 33.445312 71.636719 L 158.027344 71.636719 L 158.027344 196.21875 L 33.445312 196.21875 Z M 33.445312 71.636719 " clip-rule="nonzero"/></clipPath><clipPath id="6b8f2c641b"><path d="M 95.738281 71.636719 C 61.332031 71.636719 33.445312 99.523438 33.445312 133.929688 C 33.445312 168.332031 61.332031 196.21875 95.738281 196.21875 C 130.140625 196.21875 158.027344 168.332031 158.027344 133.929688 C 158.027344 99.523438 130.140625 71.636719 95.738281 71.636719 Z M 95.738281 71.636719 " clip-rule="nonzero"/></clipPath><clipPath id="825bcf67c8"><path d="M 0.445312 0.636719 L 125.027344 0.636719 L 125.027344 125.21875 L 0.445312 125.21875 Z M 0.445312 0.636719 " clip-rule="nonzero"/></clipPath><clipPath id="ba5506646c"><path d="M 62.738281 0.636719 C 28.332031 0.636719 0.445312 28.523438 0.445312 62.929688 C 0.445312 97.332031 28.332031 125.21875 62.738281 125.21875 C 97.140625 125.21875 125.027344 97.332031 125.027344 62.929688 C 125.027344 28.523438 97.140625 0.636719 62.738281 0.636719 Z M 62.738281 0.636719 " clip-rule="nonzero"/></clipPath><clipPath id="df37954b66"><rect x="0" width="126" y="0" height="126"/></clipPath><clipPath id="ca59d706b2"><path d="M 33.445312 71.636719 L 158.019531 71.636719 L 158.019531 196.214844 L 33.445312 196.214844 Z M 33.445312 71.636719 " clip-rule="nonzero"/></clipPath><clipPath id="67fb743a9a"><path d="M 95.734375 71.636719 C 61.332031 71.636719 33.445312 99.523438 33.445312 133.925781 C 33.445312 168.324219 61.332031 196.214844 95.734375 196.214844 C 130.132812 196.214844 158.019531 168.324219 158.019531 133.925781 C 158.019531 99.523438 130.132812 71.636719 95.734375 71.636719 Z M 95.734375 71.636719 " clip-rule="nonzero"/></clipPath><clipPath id="dfc1e868ed"><path d="M 50.367188 90.546875 L 141.105469 90.546875 L 141.105469 181.289062 L 50.367188 181.289062 Z M 50.367188 90.546875 " clip-rule="nonzero"/></clipPath><clipPath id="582ab87188"><path d="M 95.738281 90.546875 C 70.679688 90.546875 50.367188 110.863281 50.367188 135.917969 C 50.367188 160.976562 70.679688 181.289062 95.738281 181.289062 C 120.792969 181.289062 141.105469 160.976562 141.105469 135.917969 C 141.105469 110.863281 120.792969 90.546875 95.738281 90.546875 Z M 95.738281 90.546875 " clip-rule="nonzero"/></clipPath><clipPath id="22e957b6ec"><path d="M 0.367188 0.546875 L 91.105469 0.546875 L 91.105469 91.289062 L 0.367188 91.289062 Z M 0.367188 0.546875 " clip-rule="nonzero"/></clipPath><clipPath id="60cb0f6181"><path d="M 45.738281 0.546875 C 20.679688 0.546875 0.367188 20.863281 0.367188 45.917969 C 0.367188 70.976562 20.679688 91.289062 45.738281 91.289062 C 70.792969 91.289062 91.105469 70.976562 91.105469 45.917969 C 91.105469 20.863281 70.792969 0.546875 45.738281 0.546875 Z M 45.738281 0.546875 " clip-rule="nonzero"/></clipPath><clipPath id="43fd5ee5dc"><rect x="0" width="92" y="0" height="92"/></clipPath><clipPath id="3cc5a8b141"><path d="M 71.652344 110.433594 L 123.257812 110.433594 L 123.257812 162.035156 L 71.652344 162.035156 Z M 71.652344 110.433594 " clip-rule="nonzero"/></clipPath><clipPath id="af47d731b8"><path d="M 97.453125 110.433594 C 83.203125 110.433594 71.652344 121.984375 71.652344 136.234375 C 71.652344 150.484375 83.203125 162.035156 97.453125 162.035156 C 111.703125 162.035156 123.257812 150.484375 123.257812 136.234375 C 123.257812 121.984375 111.703125 110.433594 97.453125 110.433594 Z M 97.453125 110.433594 " clip-rule="nonzero"/></clipPath><clipPath id="9fe6380d6e"><path d="M 0.652344 0.433594 L 52.257812 0.433594 L 52.257812 52.035156 L 0.652344 52.035156 Z M 0.652344 0.433594 " clip-rule="nonzero"/></clipPath><clipPath id="9a66d87abe"><path d="M 26.453125 0.433594 C 12.203125 0.433594 0.652344 11.984375 0.652344 26.234375 C 0.652344 40.484375 12.203125 52.035156 26.453125 52.035156 C 40.703125 52.035156 52.257812 40.484375 52.257812 26.234375 C 52.257812 11.984375 40.703125 0.433594 26.453125 0.433594 Z M 26.453125 0.433594 " clip-rule="nonzero"/></clipPath><clipPath id="cb8dbb45c2"><rect x="0" width="53" y="0" height="53"/></clipPath><clipPath id="890d519006"><path d="M 107.605469 110.433594 L 128.222656 110.433594 L 128.222656 131.046875 L 107.605469 131.046875 Z M 107.605469 110.433594 " clip-rule="nonzero"/></clipPath><clipPath id="d5532bb304"><path d="M 117.914062 110.433594 C 112.222656 110.433594 107.605469 115.046875 107.605469 120.738281 C 107.605469 126.433594 112.222656 131.046875 117.914062 131.046875 C 123.605469 131.046875 128.222656 126.433594 128.222656 120.738281 C 128.222656 115.046875 123.605469 110.433594 117.914062 110.433594 Z M 117.914062 110.433594 " clip-rule="nonzero"/></clipPath><clipPath id="227e7c97b0"><path d="M 0.605469 0.433594 L 21.222656 0.433594 L 21.222656 21.046875 L 0.605469 21.046875 Z M 0.605469 0.433594 " clip-rule="nonzero"/></clipPath><clipPath id="5e9f19049c"><path d="M 10.914062 0.433594 C 5.222656 0.433594 0.605469 5.046875 0.605469 10.738281 C 0.605469 16.433594 5.222656 21.046875 10.914062 21.046875 C 16.605469 21.046875 21.222656 16.433594 21.222656 10.738281 C 21.222656 5.046875 16.605469 0.433594 10.914062 0.433594 Z M 10.914062 0.433594 " clip-rule="nonzero"/></clipPath><clipPath id="7050978d9b"><rect x="0" width="22" y="0" height="22"/></clipPath><clipPath id="ac4427e379"><path d="M 14 246 L 270 246 L 270 292.601562 L 14 292.601562 Z M 14 246 " clip-rule="nonzero"/></clipPath><clipPath id="b8aab1ac53"><rect x="0" width="256" y="0" height="47"/></clipPath><clipPath id="648c662887"><rect x="0" width="23" y="0" height="20"/></clipPath><clipPath id="4140db7ac3"><rect x="0" width="298" y="0" height="293"/></clipPath></defs><g transform="matrix(1, 0, 0, 1, 38, 41)"><g clip-path="url(#4140db7ac3)"><g clip-path="url(#6f182788d1)"><g clip-path="url(#35d47eda5a)"><g transform="matrix(1, 0, 0, 1, 32, 0)"><g clip-path="url(#c8855b51ca)"><g clip-path="url(#347f6eb48b)"><g clip-path="url(#a25d00b5d7)"><path fill="#c8a857" d="M 0.207031 0.601562 L 236.273438 0.601562 L 236.273438 92.445312 L 0.207031 92.445312 Z M 0.207031 0.601562 " fill-opacity="1" fill-rule="nonzero"/></g></g></g></g></g></g><g clip-path="url(#9c69b1b666)"><g transform="matrix(1, 0, 0, 1, 245, 46)"><g clip-path="url(#a3576c4f34)"><g clip-path="url(#2bbb85aa10)"><path fill="#c8a857" d="M 0.386719 0.523438 L 8.921875 0.523438 L 8.921875 46.445312 L 0.386719 46.445312 Z M 0.386719 0.523438 " fill-opacity="1" fill-rule="nonzero"/></g></g></g></g><g clip-path="url(#3deaaec0a6)"><g clip-path="url(#df907bedef)"><g transform="matrix(1, 0, 0, 1, 119, 132)"><g clip-path="url(#c2384191ba)"><g clip-path="url(#8a4d9d17bb)"><g clip-path="url(#a7ae87124a)"><path fill="#c8a857" d="M 0.882812 0.636719 L 64.238281 0.636719 L 64.238281 101.613281 L 0.882812 101.613281 Z M 0.882812 0.636719 " fill-opacity="1" fill-rule="nonzero"/></g></g></g></g></g></g><g clip-path="url(#ce3e2118c1)"><g clip-path="url(#2519134bd0)"><g transform="matrix(1, 0, 0, 1, 132, 60)"><g clip-path="url(#06fe34ebfc)"><g clip-path="url(#c6aecd9705)"><g clip-path="url(#e8728254f7)"><path fill="#ffffff" d="M 0.550781 0.476562 L 147.457031 0.476562 L 147.457031 147.382812 L 0.550781 147.382812 Z M 0.550781 0.476562 " fill-opacity="1" fill-rule="nonzero"/></g></g></g></g></g></g><g clip-path="url(#932aa4b854)"><g clip-path="url(#f388f7d268)"><path stroke-linecap="butt" transform="matrix(0.602184, 0, 0, 0.602184, 132.550725, 60.47519)" fill="none" stroke-linejoin="miter" d="M 121.977874 0.00227898 C 54.61246 0.00227898 0.0000929109 54.608159 0.0000929109 121.973574 C 0.0000929109 189.345475 54.61246 243.951355 121.977874 243.951355 C 189.343289 243.951355 243.955656 189.345475 243.955656 121.973574 C 243.955656 54.608159 189.343289 0.00227898 121.977874 0.00227898 Z M 121.977874 0.00227898 " stroke="#ffffff" stroke-width="14.945587" stroke-opacity="1" stroke-miterlimit="4"/></g></g><g clip-path="url(#a50a371aa4)"><g clip-path="url(#b7184fedbd)"><g transform="matrix(1, 0, 0, 1, 19, 60)"><g clip-path="url(#10eff49b7b)"><g clip-path="url(#a6c1e3190f)"><g clip-path="url(#e9457d7252)"><path fill="#ffffff" d="M 0.542969 0.476562 L 150.34375 0.476562 L 150.34375 150.273438 L 0.542969 150.273438 Z M 0.542969 0.476562 " fill-opacity="1" fill-rule="nonzero"/></g></g></g></g></g></g><g clip-path="url(#807d5db0ec)"><g clip-path="url(#8733fe73cd)"><path stroke-linecap="butt" transform="matrix(0.602184, 0, 0, 0.602184, 19.542974, 60.47519)" fill="none" stroke-linejoin="miter" d="M 124.377898 0.00227898 C 55.682684 0.00227898 -0.00000925189 55.684972 -0.00000925189 124.373699 C -0.00000925189 193.062427 55.682684 248.751607 124.377898 248.751607 C 193.066625 248.751607 248.749318 193.062427 248.749318 124.373699 C 248.749318 55.684972 193.066625 0.00227898 124.377898 0.00227898 Z M 124.377898 0.00227898 " stroke="#ffffff" stroke-width="14.945587" stroke-opacity="1" stroke-miterlimit="4"/></g></g><g clip-path="url(#3d80dfdeb7)"><g clip-path="url(#3e05e0a21d)"><g transform="matrix(1, 0, 0, 1, 143, 69)"><g clip-path="url(#3f125724b3)"><g clip-path="url(#79e764a4f7)"><g clip-path="url(#4a0d11ac1d)"><path fill="#0b1c39" d="M 0.710938 0.484375 L 125.296875 0.484375 L 125.296875 125.066406 L 0.710938 125.066406 Z M 0.710938 0.484375 " fill-opacity="1" fill-rule="nonzero"/></g></g></g></g></g></g><g clip-path="url(#42713bcd70)"><g clip-path="url(#455a3a7390)"><path stroke-linecap="butt" transform="matrix(0.602184, 0, 0, 0.602184, 143.711617, 69.483393)" fill="none" stroke-linejoin="miter" d="M 103.437379 0.00163115 C 46.308134 0.00163115 -0.001129 46.310894 -0.001129 103.440139 C -0.001129 160.562897 46.308134 206.87216 103.437379 206.87216 C 160.566624 206.87216 206.875887 160.562897 206.875887 103.440139 C 206.875887 46.310894 160.566624 0.00163115 103.437379 0.00163115 Z M 103.437379 0.00163115 " stroke="#0b1c39" stroke-width="7.472794" stroke-opacity="1" stroke-miterlimit="4"/></g></g><g clip-path="url(#b383aceb69)"><g clip-path="url(#200239f867)"><g transform="matrix(1, 0, 0, 1, 160, 88)"><g clip-path="url(#4230348a0d)"><g clip-path="url(#45406619ab)"><g clip-path="url(#ffa28ba391)"><path fill="#ffffff" d="M 0.632812 0.394531 L 91.375 0.394531 L 91.375 91.136719 L 0.632812 91.136719 Z M 0.632812 0.394531 " fill-opacity="1" fill-rule="nonzero"/></g></g></g></g></g></g><g clip-path="url(#8c3b6e2f37)"><g clip-path="url(#cb057a0bf8)"><g transform="matrix(1, 0, 0, 1, 181, 108)"><g clip-path="url(#71a14c376f)"><g clip-path="url(#b17f425409)"><g clip-path="url(#4dd896a570)"><path fill="#0b1c39" d="M 0.921875 0.28125 L 52.523438 0.28125 L 52.523438 51.882812 L 0.921875 51.882812 Z M 0.921875 0.28125 " fill-opacity="1" fill-rule="nonzero"/></g></g></g></g></g></g><g clip-path="url(#ef3a398ae0)"><g clip-path="url(#35fe1ca756)"><g transform="matrix(1, 0, 0, 1, 217, 108)"><g clip-path="url(#dac6927670)"><g clip-path="url(#bb6ecb6702)"><g clip-path="url(#1b3c0f5e65)"><path fill="#ffffff" d="M 0.875 0.28125 L 21.488281 0.28125 L 21.488281 20.894531 L 0.875 20.894531 Z M 0.875 0.28125 " fill-opacity="1" fill-rule="nonzero"/></g></g></g></g></g></g><g clip-path="url(#b1e451cc8d)"><g clip-path="url(#6b8f2c641b)"><g transform="matrix(1, 0, 0, 1, 33, 71)"><g clip-path="url(#df37954b66)"><g clip-path="url(#825bcf67c8)"><g clip-path="url(#ba5506646c)"><path fill="#0b1c39" d="M 0.445312 0.636719 L 125.027344 0.636719 L 125.027344 125.21875 L 0.445312 125.21875 Z M 0.445312 0.636719 " fill-opacity="1" fill-rule="nonzero"/></g></g></g></g></g></g><g clip-path="url(#ca59d706b2)"><g clip-path="url(#67fb743a9a)"><path stroke-linecap="butt" transform="matrix(0.602184, 0, 0, 0.602184, 33.444333, 71.636113)" fill="none" stroke-linejoin="miter" d="M 103.440134 0.00100525 C 46.310889 0.00100525 0.00162603 46.310268 0.00162603 103.439513 C 0.00162603 160.562271 46.310889 206.878021 103.440134 206.878021 C 160.562892 206.878021 206.872155 160.562271 206.872155 103.439513 C 206.872155 46.310268 160.562892 0.00100525 103.440134 0.00100525 Z M 103.440134 0.00100525 " stroke="#0b1c39" stroke-width="7.472794" stroke-opacity="1" stroke-miterlimit="4"/></g></g><g clip-path="url(#dfc1e868ed)"><g clip-path="url(#582ab87188)"><g transform="matrix(1, 0, 0, 1, 50, 90)"><g clip-path="url(#43fd5ee5dc)"><g clip-path="url(#22e957b6ec)"><g clip-path="url(#60cb0f6181)"><path fill="#ffffff" d="M 0.367188 0.546875 L 91.105469 0.546875 L 91.105469 91.289062 L 0.367188 91.289062 Z M 0.367188 0.546875 " fill-opacity="1" fill-rule="nonzero"/></g></g></g></g></g></g><g clip-path="url(#3cc5a8b141)"><g clip-path="url(#af47d731b8)"><g transform="matrix(1, 0, 0, 1, 71, 110)"><g clip-path="url(#cb8dbb45c2)"><g clip-path="url(#9fe6380d6e)"><g clip-path="url(#9a66d87abe)"><path fill="#0b1c39" d="M 0.652344 0.433594 L 52.257812 0.433594 L 52.257812 52.035156 L 0.652344 52.035156 Z M 0.652344 0.433594 " fill-opacity="1" fill-rule="nonzero"/></g></g></g></g></g></g><g clip-path="url(#890d519006)"><g clip-path="url(#d5532bb304)"><g transform="matrix(1, 0, 0, 1, 107, 110)"><g clip-path="url(#7050978d9b)"><g clip-path="url(#227e7c97b0)"><g clip-path="url(#5e9f19049c)"><path fill="#ffffff" d="M 0.605469 0.433594 L 21.222656 0.433594 L 21.222656 21.046875 L 0.605469 21.046875 Z M 0.605469 0.433594 " fill-opacity="1" fill-rule="nonzero"/></g></g></g></g></g></g><g clip-path="url(#ac4427e379)"><g transform="matrix(1, 0, 0, 1, 14, 246)"><g clip-path="url(#b8aab1ac53)"><g fill="#0f203b" fill-opacity="1"><g transform="translate(0.984996, 36.423254)"><g><path d="M 11.90625 0.453125 C 9.800781 0.453125 7.765625 0.171875 5.796875 -0.390625 C 3.835938 -0.960938 2.257812 -1.707031 1.0625 -2.625 L 3.15625 -7.265625 C 4.300781 -6.429688 5.660156 -5.757812 7.234375 -5.25 C 8.804688 -4.738281 10.378906 -4.484375 11.953125 -4.484375 C 13.703125 -4.484375 14.992188 -4.742188 15.828125 -5.265625 C 16.660156 -5.785156 17.078125 -6.476562 17.078125 -7.34375 C 17.078125 -7.976562 16.828125 -8.503906 16.328125 -8.921875 C 15.835938 -9.335938 15.207031 -9.671875 14.4375 -9.921875 C 13.664062 -10.179688 12.617188 -10.460938 11.296875 -10.765625 C 9.265625 -11.242188 7.601562 -11.722656 6.3125 -12.203125 C 5.019531 -12.691406 3.910156 -13.46875 2.984375 -14.53125 C 2.054688 -15.59375 1.59375 -17.015625 1.59375 -18.796875 C 1.59375 -20.335938 2.007812 -21.734375 2.84375 -22.984375 C 3.6875 -24.242188 4.953125 -25.242188 6.640625 -25.984375 C 8.328125 -26.722656 10.390625 -27.09375 12.828125 -27.09375 C 14.523438 -27.09375 16.179688 -26.890625 17.796875 -26.484375 C 19.421875 -26.078125 20.84375 -25.492188 22.0625 -24.734375 L 20.171875 -20.046875 C 17.703125 -21.441406 15.238281 -22.140625 12.78125 -22.140625 C 11.0625 -22.140625 9.785156 -21.859375 8.953125 -21.296875 C 8.128906 -20.742188 7.71875 -20.007812 7.71875 -19.09375 C 7.71875 -18.1875 8.191406 -17.507812 9.140625 -17.0625 C 10.097656 -16.613281 11.550781 -16.175781 13.5 -15.75 C 15.53125 -15.269531 17.191406 -14.785156 18.484375 -14.296875 C 19.785156 -13.816406 20.894531 -13.054688 21.8125 -12.015625 C 22.738281 -10.984375 23.203125 -9.578125 23.203125 -7.796875 C 23.203125 -6.273438 22.773438 -4.882812 21.921875 -3.625 C 21.078125 -2.375 19.804688 -1.378906 18.109375 -0.640625 C 16.410156 0.0859375 14.34375 0.453125 11.90625 0.453125 Z M 11.90625 0.453125 "/></g></g></g><g fill="#0f203b" fill-opacity="1"><g transform="translate(25.257253, 36.423254)"><g><path d="M 12.859375 -10.46875 L 9.28125 -6.734375 L 9.28125 0 L 3.15625 0 L 3.15625 -26.625 L 9.28125 -26.625 L 9.28125 -14.1875 L 21.078125 -26.625 L 27.921875 -26.625 L 16.890625 -14.765625 L 28.578125 0 L 21.375 0 Z M 12.859375 -10.46875 "/></g></g></g><g fill="#0f203b" fill-opacity="1"><g transform="translate(53.410027, 36.423254)"><g><path d="M 16.0625 0.453125 C 13.289062 0.453125 10.796875 -0.140625 8.578125 -1.328125 C 6.359375 -2.523438 4.617188 -4.164062 3.359375 -6.25 C 2.109375 -8.34375 1.484375 -10.695312 1.484375 -13.3125 C 1.484375 -15.925781 2.109375 -18.28125 3.359375 -20.375 C 4.617188 -22.46875 6.359375 -24.109375 8.578125 -25.296875 C 10.796875 -26.492188 13.289062 -27.09375 16.0625 -27.09375 C 18.820312 -27.09375 21.304688 -26.492188 23.515625 -25.296875 C 25.722656 -24.109375 27.457031 -22.46875 28.71875 -20.375 C 29.988281 -18.28125 30.625 -15.925781 30.625 -13.3125 C 30.625 -10.695312 29.988281 -8.34375 28.71875 -6.25 C 27.457031 -4.164062 25.722656 -2.523438 23.515625 -1.328125 C 21.304688 -0.140625 18.820312 0.453125 16.0625 0.453125 Z M 16.0625 -4.796875 C 17.632812 -4.796875 19.050781 -5.15625 20.3125 -5.875 C 21.582031 -6.601562 22.578125 -7.613281 23.296875 -8.90625 C 24.023438 -10.195312 24.390625 -11.664062 24.390625 -13.3125 C 24.390625 -14.96875 24.023438 -16.441406 23.296875 -17.734375 C 22.578125 -19.023438 21.582031 -20.03125 20.3125 -20.75 C 19.050781 -21.476562 17.632812 -21.84375 16.0625 -21.84375 C 14.488281 -21.84375 13.066406 -21.476562 11.796875 -20.75 C 10.523438 -20.03125 9.523438 -19.023438 8.796875 -17.734375 C 8.078125 -16.441406 7.71875 -14.96875 7.71875 -13.3125 C 7.71875 -11.664062 8.078125 -10.195312 8.796875 -8.90625 C 9.523438 -7.613281 10.523438 -6.601562 11.796875 -5.875 C 13.066406 -5.15625 14.488281 -4.796875 16.0625 -4.796875 Z M 16.0625 -4.796875 "/></g></g></g><g fill="#0f203b" fill-opacity="1"><g transform="translate(85.519404, 36.423254)"><g><path d="M 16.0625 0.453125 C 13.289062 0.453125 10.796875 -0.140625 8.578125 -1.328125 C 6.359375 -2.523438 4.617188 -4.164062 3.359375 -6.25 C 2.109375 -8.34375 1.484375 -10.695312 1.484375 -13.3125 C 1.484375 -15.925781 2.109375 -18.28125 3.359375 -20.375 C 4.617188 -22.46875 6.359375 -24.109375 8.578125 -25.296875 C 10.796875 -26.492188 13.289062 -27.09375 16.0625 -27.09375 C 18.820312 -27.09375 21.304688 -26.492188 23.515625 -25.296875 C 25.722656 -24.109375 27.457031 -22.46875 28.71875 -20.375 C 29.988281 -18.28125 30.625 -15.925781 30.625 -13.3125 C 30.625 -10.695312 29.988281 -8.34375 28.71875 -6.25 C 27.457031 -4.164062 25.722656 -2.523438 23.515625 -1.328125 C 21.304688 -0.140625 18.820312 0.453125 16.0625 0.453125 Z M 16.0625 -4.796875 C 17.632812 -4.796875 19.050781 -5.15625 20.3125 -5.875 C 21.582031 -6.601562 22.578125 -7.613281 23.296875 -8.90625 C 24.023438 -10.195312 24.390625 -11.664062 24.390625 -13.3125 C 24.390625 -14.96875 24.023438 -16.441406 23.296875 -17.734375 C 22.578125 -19.023438 21.582031 -20.03125 20.3125 -20.75 C 19.050781 -21.476562 17.632812 -21.84375 16.0625 -21.84375 C 14.488281 -21.84375 13.066406 -21.476562 11.796875 -20.75 C 10.523438 -20.03125 9.523438 -19.023438 8.796875 -17.734375 C 8.078125 -16.441406 7.71875 -14.96875 7.71875 -13.3125 C 7.71875 -11.664062 8.078125 -10.195312 8.796875 -8.90625 C 9.523438 -7.613281 10.523438 -6.601562 11.796875 -5.875 C 13.066406 -5.15625 14.488281 -4.796875 16.0625 -4.796875 Z M 16.0625 -4.796875 "/></g></g></g><g fill="#0f203b" fill-opacity="1"><g transform="translate(117.62878, 36.423254)"><g><path d="M 3.15625 -26.625 L 9.328125 -26.625 L 9.328125 -5.015625 L 22.671875 -5.015625 L 22.671875 0 L 3.15625 0 Z M 3.15625 -26.625 "/></g></g></g><g fill="#0f203b" fill-opacity="1"><g transform="translate(140.607523, 36.423254)"><g><path d="M 27.390625 0 L 27.359375 -15.984375 L 19.515625 -2.8125 L 16.734375 -2.8125 L 8.9375 -15.640625 L 8.9375 0 L 3.15625 0 L 3.15625 -26.625 L 8.25 -26.625 L 18.21875 -10.078125 L 28.046875 -26.625 L 33.09375 -26.625 L 33.171875 0 Z M 27.390625 0 "/></g></g></g><g fill="#0f203b" fill-opacity="1"><g transform="translate(176.939811, 36.423254)"><g><path d="M 20.703125 -5.703125 L 8.328125 -5.703125 L 5.96875 0 L -0.34375 0 L 11.53125 -26.625 L 17.609375 -26.625 L 29.53125 0 L 23.0625 0 Z M 18.75 -10.390625 L 14.53125 -20.578125 L 10.3125 -10.390625 Z M 18.75 -10.390625 "/></g></g></g><g fill="#0f203b" fill-opacity="1"><g transform="translate(206.081736, 36.423254)"><g><path d="M 8.671875 -21.609375 L 0.15625 -21.609375 L 0.15625 -26.625 L 23.359375 -26.625 L 23.359375 -21.609375 L 14.84375 -21.609375 L 14.84375 0 L 8.671875 0 Z M 8.671875 -21.609375 "/></g></g></g><g fill="#0f203b" fill-opacity="1"><g transform="translate(229.593097, 36.423254)"><g><path d="M 23.78125 -4.953125 L 23.78125 0 L 3.15625 0 L 3.15625 -26.625 L 23.28125 -26.625 L 23.28125 -21.6875 L 9.28125 -21.6875 L 9.28125 -15.90625 L 21.65625 -15.90625 L 21.65625 -11.109375 L 9.28125 -11.109375 L 9.28125 -4.953125 Z M 23.78125 -4.953125 "/></g></g></g></g></g></g><g transform="matrix(1, 0, 0, 1, 245, 235)"><g clip-path="url(#648c662887)"><g fill="#0f203b" fill-opacity="1"><g transform="translate(0.729849, 15.219137)"><g><path d="M 6.328125 0.09375 C 5.285156 0.09375 4.335938 -0.140625 3.484375 -0.609375 C 2.640625 -1.078125 1.976562 -1.71875 1.5 -2.53125 C 1.019531 -3.34375 0.78125 -4.253906 0.78125 -5.265625 C 0.78125 -6.285156 1.019531 -7.203125 1.5 -8.015625 C 1.976562 -8.828125 2.640625 -9.46875 3.484375 -9.9375 C 4.335938 -10.40625 5.285156 -10.640625 6.328125 -10.640625 C 7.367188 -10.640625 8.304688 -10.40625 9.140625 -9.9375 C 9.984375 -9.476562 10.644531 -8.835938 11.125 -8.015625 C 11.613281 -7.203125 11.859375 -6.285156 11.859375 -5.265625 C 11.859375 -4.253906 11.613281 -3.335938 11.125 -2.515625 C 10.644531 -1.703125 9.984375 -1.0625 9.140625 -0.59375 C 8.304688 -0.132812 7.367188 0.09375 6.328125 0.09375 Z M 6.328125 -0.90625 C 7.160156 -0.90625 7.910156 -1.09375 8.578125 -1.46875 C 9.253906 -1.84375 9.78125 -2.363281 10.15625 -3.03125 C 10.539062 -3.695312 10.734375 -4.441406 10.734375 -5.265625 C 10.734375 -6.085938 10.539062 -6.832031 10.15625 -7.5 C 9.78125 -8.175781 9.253906 -8.703125 8.578125 -9.078125 C 7.910156 -9.453125 7.160156 -9.640625 6.328125 -9.640625 C 5.492188 -9.640625 4.738281 -9.453125 4.0625 -9.078125 C 3.382812 -8.703125 2.851562 -8.175781 2.46875 -7.5 C 2.082031 -6.832031 1.890625 -6.085938 1.890625 -5.265625 C 1.890625 -4.441406 2.082031 -3.695312 2.46875 -3.03125 C 2.851562 -2.363281 3.382812 -1.84375 4.0625 -1.46875 C 4.738281 -1.09375 5.492188 -0.90625 6.328125 -0.90625 Z M 6.328125 -0.90625 "/></g></g></g><g fill="#0f203b" fill-opacity="1"><g transform="translate(13.368192, 15.219137)"><g><path d="M 4.625 0.09375 C 3.84375 0.09375 3.09375 -0.03125 2.375 -0.28125 C 1.65625 -0.53125 1.097656 -0.863281 0.703125 -1.28125 L 1.140625 -2.140625 C 1.523438 -1.753906 2.03125 -1.441406 2.65625 -1.203125 C 3.289062 -0.972656 3.945312 -0.859375 4.625 -0.859375 C 5.570312 -0.859375 6.28125 -1.03125 6.75 -1.375 C 7.21875 -1.71875 7.453125 -2.164062 7.453125 -2.71875 C 7.453125 -3.144531 7.320312 -3.484375 7.0625 -3.734375 C 6.8125 -3.984375 6.5 -4.175781 6.125 -4.3125 C 5.757812 -4.445312 5.242188 -4.597656 4.578125 -4.765625 C 3.785156 -4.960938 3.148438 -5.15625 2.671875 -5.34375 C 2.203125 -5.53125 1.800781 -5.8125 1.46875 -6.1875 C 1.132812 -6.570312 0.96875 -7.085938 0.96875 -7.734375 C 0.96875 -8.273438 1.109375 -8.757812 1.390625 -9.1875 C 1.671875 -9.625 2.101562 -9.972656 2.6875 -10.234375 C 3.269531 -10.503906 3.988281 -10.640625 4.84375 -10.640625 C 5.445312 -10.640625 6.035156 -10.554688 6.609375 -10.390625 C 7.191406 -10.222656 7.695312 -9.992188 8.125 -9.703125 L 7.734375 -8.8125 C 7.296875 -9.101562 6.828125 -9.320312 6.328125 -9.46875 C 5.828125 -9.613281 5.332031 -9.6875 4.84375 -9.6875 C 3.925781 -9.6875 3.234375 -9.503906 2.765625 -9.140625 C 2.296875 -8.785156 2.0625 -8.328125 2.0625 -7.765625 C 2.0625 -7.347656 2.1875 -7.007812 2.4375 -6.75 C 2.695312 -6.5 3.019531 -6.304688 3.40625 -6.171875 C 3.789062 -6.035156 4.3125 -5.882812 4.96875 -5.71875 C 5.738281 -5.53125 6.363281 -5.34375 6.84375 -5.15625 C 7.320312 -4.96875 7.726562 -4.6875 8.0625 -4.3125 C 8.394531 -3.9375 8.5625 -3.425781 8.5625 -2.78125 C 8.5625 -2.25 8.414062 -1.765625 8.125 -1.328125 C 7.84375 -0.890625 7.40625 -0.539062 6.8125 -0.28125 C 6.21875 -0.03125 5.488281 0.09375 4.625 0.09375 Z M 4.625 0.09375 "/></g></g></g></g></g></g></g></svg>