<svg xmlns="http://www.w3.org/2000/svg" xmlns:xlink="http://www.w3.org/1999/xlink" width="389" zoomAndPan="magnify" viewBox="0 0 291.75 311.25" height="415" preserveAspectRatio="xMidYMid meet" version="1.0"><defs><g/><clipPath id="6cda94e59b"><rect x="0" width="255" y="0" height="48"/></clipPath><clipPath id="b692ee7f2d"><rect x="0" width="23" y="0" height="19"/></clipPath><clipPath id="69387092c6"><path d="M 19.132812 0 L 273.660156 0 L 273.660156 98.875 L 19.132812 98.875 Z M 19.132812 0 " clip-rule="nonzero"/></clipPath><clipPath id="2a472413a7"><path d="M 146.21875 0 L 273.300781 49.4375 L 146.21875 98.875 L 19.132812 49.4375 Z M 146.21875 0 " clip-rule="nonzero"/></clipPath><clipPath id="e558cc56db"><path d="M 0.132812 0 L 254.40625 0 L 254.40625 98.875 L 0.132812 98.875 Z M 0.132812 0 " clip-rule="nonzero"/></clipPath><clipPath id="3265f6ab52"><path d="M 127.21875 0 L 254.300781 49.4375 L 127.21875 98.875 L 0.132812 49.4375 Z M 127.21875 0 " clip-rule="nonzero"/></clipPath><clipPath id="28ce2f7fc6"><rect x="0" width="255" y="0" height="99"/></clipPath><clipPath id="712b2d627a"><path d="M 248.632812 49.4375 L 257.824219 49.4375 L 257.824219 98.875 L 248.632812 98.875 Z M 248.632812 49.4375 " clip-rule="nonzero"/></clipPath><clipPath id="6eb247284a"><path d="M 0.632812 0.4375 L 9.824219 0.4375 L 9.824219 49.875 L 0.632812 49.875 Z M 0.632812 0.4375 " clip-rule="nonzero"/></clipPath><clipPath id="83e8c58ca8"><rect x="0" width="10" y="0" height="50"/></clipPath><clipPath id="9920b8bede"><path d="M 113.523438 142.144531 L 181.730469 142.144531 L 181.730469 250.851562 L 113.523438 250.851562 Z M 113.523438 142.144531 " clip-rule="nonzero"/></clipPath><clipPath id="0f1b54a3d5"><path d="M 147.625 142.144531 L 181.730469 196.484375 L 147.625 250.824219 L 113.523438 196.484375 Z M 147.625 142.144531 " clip-rule="nonzero"/></clipPath><clipPath id="10c347f1ba"><path d="M 0.523438 0.144531 L 68.730469 0.144531 L 68.730469 108.851562 L 0.523438 108.851562 Z M 0.523438 0.144531 " clip-rule="nonzero"/></clipPath><clipPath id="dcf37a3ddf"><path d="M 34.625 0.144531 L 68.730469 54.484375 L 34.625 108.824219 L 0.523438 54.484375 Z M 34.625 0.144531 " clip-rule="nonzero"/></clipPath><clipPath id="e2011d550a"><rect x="0" width="69" y="0" height="109"/></clipPath><clipPath id="2c3863b49e"><path d="M 127.160156 64.457031 L 285.316406 64.457031 L 285.316406 222.613281 L 127.160156 222.613281 Z M 127.160156 64.457031 " clip-rule="nonzero"/></clipPath><clipPath id="d59ce52ddc"><path d="M 206.238281 64.457031 C 162.566406 64.457031 127.160156 99.863281 127.160156 143.535156 C 127.160156 187.207031 162.566406 222.613281 206.238281 222.613281 C 249.910156 222.613281 285.316406 187.207031 285.316406 143.535156 C 285.316406 99.863281 249.910156 64.457031 206.238281 64.457031 Z M 206.238281 64.457031 " clip-rule="nonzero"/></clipPath><clipPath id="bc988c8d32"><path d="M 0.160156 0.457031 L 158.316406 0.457031 L 158.316406 158.613281 L 0.160156 158.613281 Z M 0.160156 0.457031 " clip-rule="nonzero"/></clipPath><clipPath id="61d390b1e2"><path d="M 79.238281 0.457031 C 35.566406 0.457031 0.160156 35.863281 0.160156 79.535156 C 0.160156 123.207031 35.566406 158.613281 79.238281 158.613281 C 122.910156 158.613281 158.316406 123.207031 158.316406 79.535156 C 158.316406 35.863281 122.910156 0.457031 79.238281 0.457031 Z M 79.238281 0.457031 " clip-rule="nonzero"/></clipPath><clipPath id="1fa9b50c23"><rect x="0" width="159" y="0" height="159"/></clipPath><clipPath id="efbb325ce7"><path d="M 127.160156 64.457031 L 285.03125 64.457031 L 285.03125 222.328125 L 127.160156 222.328125 Z M 127.160156 64.457031 " clip-rule="nonzero"/></clipPath><clipPath id="461cb88f09"><path d="M 206.238281 64.457031 C 162.566406 64.457031 127.160156 99.859375 127.160156 143.535156 C 127.160156 187.207031 162.566406 222.609375 206.238281 222.609375 C 249.910156 222.609375 285.3125 187.207031 285.3125 143.535156 C 285.3125 99.859375 249.910156 64.457031 206.238281 64.457031 Z M 206.238281 64.457031 " clip-rule="nonzero"/></clipPath><clipPath id="c4907ed070"><path d="M 5.5 64.457031 L 166.769531 64.457031 L 166.769531 225.726562 L 5.5 225.726562 Z M 5.5 64.457031 " clip-rule="nonzero"/></clipPath><clipPath id="736c3defc2"><path d="M 86.136719 64.457031 C 41.601562 64.457031 5.5 100.558594 5.5 145.09375 C 5.5 189.625 41.601562 225.726562 86.136719 225.726562 C 130.667969 225.726562 166.769531 189.625 166.769531 145.09375 C 166.769531 100.558594 130.667969 64.457031 86.136719 64.457031 Z M 86.136719 64.457031 " clip-rule="nonzero"/></clipPath><clipPath id="416622de35"><path d="M 0.5 0.457031 L 161.769531 0.457031 L 161.769531 161.726562 L 0.5 161.726562 Z M 0.5 0.457031 " clip-rule="nonzero"/></clipPath><clipPath id="a8d33974da"><path d="M 81.136719 0.457031 C 36.601562 0.457031 0.5 36.558594 0.5 81.09375 C 0.5 125.625 36.601562 161.726562 81.136719 161.726562 C 125.667969 161.726562 161.769531 125.625 161.769531 81.09375 C 161.769531 36.558594 125.667969 0.457031 81.136719 0.457031 Z M 81.136719 0.457031 " clip-rule="nonzero"/></clipPath><clipPath id="dd526ce97b"><rect x="0" width="162" y="0" height="162"/></clipPath><clipPath id="844f2d7270"><path d="M 5.5 64.457031 L 166.761719 64.457031 L 166.761719 225.71875 L 5.5 225.71875 Z M 5.5 64.457031 " clip-rule="nonzero"/></clipPath><clipPath id="09c473744e"><path d="M 86.132812 64.457031 C 41.601562 64.457031 5.5 100.558594 5.5 145.089844 C 5.5 189.617188 41.601562 225.71875 86.132812 225.71875 C 130.664062 225.71875 166.761719 189.617188 166.761719 145.089844 C 166.761719 100.558594 130.664062 64.457031 86.132812 64.457031 Z M 86.132812 64.457031 " clip-rule="nonzero"/></clipPath><clipPath id="83555ac53f"><path d="M 139.175781 74.15625 L 273.300781 74.15625 L 273.300781 208.277344 L 139.175781 208.277344 Z M 139.175781 74.15625 " clip-rule="nonzero"/></clipPath><clipPath id="9a9cd0d9d3"><path d="M 206.238281 74.15625 C 169.203125 74.15625 139.175781 104.179688 139.175781 141.21875 C 139.175781 178.253906 169.203125 208.277344 206.238281 208.277344 C 243.273438 208.277344 273.300781 178.253906 273.300781 141.21875 C 273.300781 104.179688 243.273438 74.15625 206.238281 74.15625 Z M 206.238281 74.15625 " clip-rule="nonzero"/></clipPath><clipPath id="5ef3858a77"><path d="M 0.175781 0.15625 L 134.300781 0.15625 L 134.300781 134.277344 L 0.175781 134.277344 Z M 0.175781 0.15625 " clip-rule="nonzero"/></clipPath><clipPath id="30ad0fe9e8"><path d="M 67.238281 0.15625 C 30.203125 0.15625 0.175781 30.179688 0.175781 67.21875 C 0.175781 104.253906 30.203125 134.277344 67.238281 134.277344 C 104.273438 134.277344 134.300781 104.253906 134.300781 67.21875 C 134.300781 30.179688 104.273438 0.15625 67.238281 0.15625 Z M 67.238281 0.15625 " clip-rule="nonzero"/></clipPath><clipPath id="1468e15f46"><rect x="0" width="135" y="0" height="135"/></clipPath><clipPath id="32b0070fb2"><path d="M 139.175781 74.15625 L 273.105469 74.15625 L 273.105469 208.082031 L 139.175781 208.082031 Z M 139.175781 74.15625 " clip-rule="nonzero"/></clipPath><clipPath id="bea83b67e8"><path d="M 206.234375 74.15625 C 169.199219 74.15625 139.175781 104.179688 139.175781 141.214844 C 139.175781 178.246094 169.199219 208.269531 206.234375 208.269531 C 243.269531 208.269531 273.292969 178.246094 273.292969 141.214844 C 273.292969 104.179688 243.269531 74.15625 206.234375 74.15625 Z M 206.234375 74.15625 " clip-rule="nonzero"/></clipPath><clipPath id="de86e02c0d"><path d="M 164.292969 97.421875 L 251.882812 97.421875 L 251.882812 185.011719 L 164.292969 185.011719 Z M 164.292969 97.421875 " clip-rule="nonzero"/></clipPath><clipPath id="b2a6b76a55"><path d="M 208.089844 97.421875 C 183.902344 97.421875 164.292969 117.03125 164.292969 141.21875 C 164.292969 165.40625 183.902344 185.011719 208.089844 185.011719 C 232.273438 185.011719 251.882812 165.40625 251.882812 141.21875 C 251.882812 117.03125 232.273438 97.421875 208.089844 97.421875 Z M 208.089844 97.421875 " clip-rule="nonzero"/></clipPath><clipPath id="5fed5d7d88"><path d="M 0.292969 0.421875 L 87.882812 0.421875 L 87.882812 88.011719 L 0.292969 88.011719 Z M 0.292969 0.421875 " clip-rule="nonzero"/></clipPath><clipPath id="753445ac27"><path d="M 44.089844 0.421875 C 19.902344 0.421875 0.292969 20.03125 0.292969 44.21875 C 0.292969 68.40625 19.902344 88.011719 44.089844 88.011719 C 68.273438 88.011719 87.882812 68.40625 87.882812 44.21875 C 87.882812 20.03125 68.273438 0.421875 44.089844 0.421875 Z M 44.089844 0.421875 " clip-rule="nonzero"/></clipPath><clipPath id="17118e84c3"><rect x="0" width="88" y="0" height="89"/></clipPath><clipPath id="afbc69827d"><path d="M 180.3125 113.441406 L 235.863281 113.441406 L 235.863281 168.996094 L 180.3125 168.996094 Z M 180.3125 113.441406 " clip-rule="nonzero"/></clipPath><clipPath id="b6a216effb"><path d="M 208.089844 113.441406 C 192.746094 113.441406 180.3125 125.875 180.3125 141.21875 C 180.3125 156.558594 192.746094 168.996094 208.089844 168.996094 C 223.429688 168.996094 235.863281 156.558594 235.863281 141.21875 C 235.863281 125.875 223.429688 113.441406 208.089844 113.441406 Z M 208.089844 113.441406 " clip-rule="nonzero"/></clipPath><clipPath id="260d48d109"><path d="M 0.3125 0.441406 L 55.863281 0.441406 L 55.863281 55.996094 L 0.3125 55.996094 Z M 0.3125 0.441406 " clip-rule="nonzero"/></clipPath><clipPath id="1332d643eb"><path d="M 28.089844 0.441406 C 12.746094 0.441406 0.3125 12.875 0.3125 28.21875 C 0.3125 43.558594 12.746094 55.996094 28.089844 55.996094 C 43.429688 55.996094 55.863281 43.558594 55.863281 28.21875 C 55.863281 12.875 43.429688 0.441406 28.089844 0.441406 Z M 28.089844 0.441406 " clip-rule="nonzero"/></clipPath><clipPath id="84a9b11c31"><rect x="0" width="56" y="0" height="56"/></clipPath><clipPath id="6ebf107598"><path d="M 212.226562 119.625 L 234.417969 119.625 L 234.417969 141.820312 L 212.226562 141.820312 Z M 212.226562 119.625 " clip-rule="nonzero"/></clipPath><clipPath id="6af5e2b831"><path d="M 223.324219 119.625 C 217.195312 119.625 212.226562 124.59375 212.226562 130.722656 C 212.226562 136.851562 217.195312 141.820312 223.324219 141.820312 C 229.453125 141.820312 234.417969 136.851562 234.417969 130.722656 C 234.417969 124.59375 229.453125 119.625 223.324219 119.625 Z M 223.324219 119.625 " clip-rule="nonzero"/></clipPath><clipPath id="d3316762df"><path d="M 0.226562 0.625 L 22.417969 0.625 L 22.417969 22.820312 L 0.226562 22.820312 Z M 0.226562 0.625 " clip-rule="nonzero"/></clipPath><clipPath id="b51889f819"><path d="M 11.324219 0.625 C 5.195312 0.625 0.226562 5.59375 0.226562 11.722656 C 0.226562 17.851562 5.195312 22.820312 11.324219 22.820312 C 17.453125 22.820312 22.417969 17.851562 22.417969 11.722656 C 22.417969 5.59375 17.453125 0.625 11.324219 0.625 Z M 11.324219 0.625 " clip-rule="nonzero"/></clipPath><clipPath id="80986d3afa"><rect x="0" width="23" y="0" height="23"/></clipPath><clipPath id="af6b8f6f88"><path d="M 20.46875 76.472656 L 154.589844 76.472656 L 154.589844 210.597656 L 20.46875 210.597656 Z M 20.46875 76.472656 " clip-rule="nonzero"/></clipPath><clipPath id="5521ff3e83"><path d="M 87.527344 76.472656 C 50.492188 76.472656 20.46875 106.496094 20.46875 143.535156 C 20.46875 180.570312 50.492188 210.597656 87.527344 210.597656 C 124.566406 210.597656 154.589844 180.570312 154.589844 143.535156 C 154.589844 106.496094 124.566406 76.472656 87.527344 76.472656 Z M 87.527344 76.472656 " clip-rule="nonzero"/></clipPath><clipPath id="a585de4b60"><path d="M 0.46875 0.472656 L 134.589844 0.472656 L 134.589844 134.597656 L 0.46875 134.597656 Z M 0.46875 0.472656 " clip-rule="nonzero"/></clipPath><clipPath id="f9f2322fd3"><path d="M 67.527344 0.472656 C 30.492188 0.472656 0.46875 30.496094 0.46875 67.535156 C 0.46875 104.570312 30.492188 134.597656 67.527344 134.597656 C 104.566406 134.597656 134.589844 104.570312 134.589844 67.535156 C 134.589844 30.496094 104.566406 0.472656 67.527344 0.472656 Z M 67.527344 0.472656 " clip-rule="nonzero"/></clipPath><clipPath id="8fc8ca96dc"><rect x="0" width="135" y="0" height="135"/></clipPath><clipPath id="a26650762d"><path d="M 20.46875 76.472656 L 154.394531 76.472656 L 154.394531 210.402344 L 20.46875 210.402344 Z M 20.46875 76.472656 " clip-rule="nonzero"/></clipPath><clipPath id="11f5edf83f"><path d="M 87.523438 76.472656 C 50.488281 76.472656 20.46875 106.496094 20.46875 143.53125 C 20.46875 180.566406 50.488281 210.589844 87.523438 210.589844 C 124.558594 210.589844 154.582031 180.566406 154.582031 143.53125 C 154.582031 106.496094 124.558594 76.472656 87.523438 76.472656 Z M 87.523438 76.472656 " clip-rule="nonzero"/></clipPath><clipPath id="9d2a0612b5"><path d="M 43.734375 101.296875 L 131.324219 101.296875 L 131.324219 188.886719 L 43.734375 188.886719 Z M 43.734375 101.296875 " clip-rule="nonzero"/></clipPath><clipPath id="70d7433da8"><path d="M 87.527344 101.296875 C 63.339844 101.296875 43.734375 120.90625 43.734375 145.09375 C 43.734375 169.28125 63.339844 188.886719 87.527344 188.886719 C 111.714844 188.886719 131.324219 169.28125 131.324219 145.09375 C 131.324219 120.90625 111.714844 101.296875 87.527344 101.296875 Z M 87.527344 101.296875 " clip-rule="nonzero"/></clipPath><clipPath id="f36ab80bdc"><path d="M 0.734375 0.296875 L 88.324219 0.296875 L 88.324219 87.886719 L 0.734375 87.886719 Z M 0.734375 0.296875 " clip-rule="nonzero"/></clipPath><clipPath id="6e28f9a4fd"><path d="M 44.527344 0.296875 C 20.339844 0.296875 0.734375 19.90625 0.734375 44.09375 C 0.734375 68.28125 20.339844 87.886719 44.527344 87.886719 C 68.714844 87.886719 88.324219 68.28125 88.324219 44.09375 C 88.324219 19.90625 68.714844 0.296875 44.527344 0.296875 Z M 44.527344 0.296875 " clip-rule="nonzero"/></clipPath><clipPath id="b9120d76b4"><rect x="0" width="89" y="0" height="88"/></clipPath><clipPath id="6c9e6dac53"><path d="M 59.75 117.316406 L 115.304688 117.316406 L 115.304688 172.871094 L 59.75 172.871094 Z M 59.75 117.316406 " clip-rule="nonzero"/></clipPath><clipPath id="27939c2d24"><path d="M 87.527344 117.316406 C 72.1875 117.316406 59.75 129.75 59.75 145.09375 C 59.75 160.433594 72.1875 172.871094 87.527344 172.871094 C 102.871094 172.871094 115.304688 160.433594 115.304688 145.09375 C 115.304688 129.75 102.871094 117.316406 87.527344 117.316406 Z M 87.527344 117.316406 " clip-rule="nonzero"/></clipPath><clipPath id="0b6e773e31"><path d="M 0.75 0.316406 L 56.304688 0.316406 L 56.304688 55.871094 L 0.75 55.871094 Z M 0.75 0.316406 " clip-rule="nonzero"/></clipPath><clipPath id="32a44033d8"><path d="M 28.527344 0.316406 C 13.1875 0.316406 0.75 12.75 0.75 28.09375 C 0.75 43.433594 13.1875 55.871094 28.527344 55.871094 C 43.871094 55.871094 56.304688 43.433594 56.304688 28.09375 C 56.304688 12.75 43.871094 0.316406 28.527344 0.316406 Z M 28.527344 0.316406 " clip-rule="nonzero"/></clipPath><clipPath id="06e6fd6d11"><rect x="0" width="57" y="0" height="56"/></clipPath><clipPath id="0c5d2646bc"><path d="M 93.335938 121.507812 L 115.53125 121.507812 L 115.53125 143.699219 L 93.335938 143.699219 Z M 93.335938 121.507812 " clip-rule="nonzero"/></clipPath><clipPath id="3a576f4083"><path d="M 104.433594 121.507812 C 98.304688 121.507812 93.335938 126.472656 93.335938 132.601562 C 93.335938 138.730469 98.304688 143.699219 104.433594 143.699219 C 110.5625 143.699219 115.53125 138.730469 115.53125 132.601562 C 115.53125 126.472656 110.5625 121.507812 104.433594 121.507812 Z M 104.433594 121.507812 " clip-rule="nonzero"/></clipPath><clipPath id="86ac81d46e"><path d="M 0.335938 0.507812 L 22.53125 0.507812 L 22.53125 22.699219 L 0.335938 22.699219 Z M 0.335938 0.507812 " clip-rule="nonzero"/></clipPath><clipPath id="582a5e494a"><path d="M 11.433594 0.507812 C 5.304688 0.507812 0.335938 5.472656 0.335938 11.601562 C 0.335938 17.730469 5.304688 22.699219 11.433594 22.699219 C 17.5625 22.699219 22.53125 17.730469 22.53125 11.601562 C 22.53125 5.472656 17.5625 0.507812 11.433594 0.507812 Z M 11.433594 0.507812 " clip-rule="nonzero"/></clipPath><clipPath id="a8a2c2b516"><rect x="0" width="23" y="0" height="23"/></clipPath></defs><g transform="matrix(1, 0, 0, 1, 11, 252)"><g clip-path="url(#6cda94e59b)"><g fill="#ffffff" fill-opacity="1"><g transform="translate(0.216765, 36.853603)"><g><path d="M 11.890625 0.453125 C 9.785156 0.453125 7.75 0.171875 5.78125 -0.390625 C 3.820312 -0.960938 2.25 -1.707031 1.0625 -2.625 L 3.15625 -7.25 C 4.289062 -6.414062 5.640625 -5.742188 7.203125 -5.234375 C 8.773438 -4.734375 10.347656 -4.484375 11.921875 -4.484375 C 13.671875 -4.484375 14.960938 -4.738281 15.796875 -5.25 C 16.628906 -5.769531 17.046875 -6.460938 17.046875 -7.328125 C 17.046875 -7.960938 16.796875 -8.488281 16.296875 -8.90625 C 15.804688 -9.320312 15.175781 -9.65625 14.40625 -9.90625 C 13.632812 -10.164062 12.59375 -10.445312 11.28125 -10.75 C 9.25 -11.226562 7.585938 -11.707031 6.296875 -12.1875 C 5.003906 -12.664062 3.894531 -13.4375 2.96875 -14.5 C 2.050781 -15.5625 1.59375 -16.976562 1.59375 -18.75 C 1.59375 -20.300781 2.007812 -21.703125 2.84375 -22.953125 C 3.675781 -24.203125 4.9375 -25.191406 6.625 -25.921875 C 8.3125 -26.660156 10.367188 -27.03125 12.796875 -27.03125 C 14.492188 -27.03125 16.148438 -26.828125 17.765625 -26.421875 C 19.390625 -26.015625 20.804688 -25.429688 22.015625 -24.671875 L 20.125 -20.015625 C 17.664062 -21.398438 15.207031 -22.09375 12.75 -22.09375 C 11.03125 -22.09375 9.757812 -21.8125 8.9375 -21.25 C 8.113281 -20.695312 7.703125 -19.96875 7.703125 -19.0625 C 7.703125 -18.144531 8.175781 -17.460938 9.125 -17.015625 C 10.082031 -16.578125 11.535156 -16.144531 13.484375 -15.71875 C 15.503906 -15.238281 17.160156 -14.757812 18.453125 -14.28125 C 19.742188 -13.800781 20.847656 -13.039062 21.765625 -12 C 22.691406 -10.957031 23.15625 -9.550781 23.15625 -7.78125 C 23.15625 -6.257812 22.726562 -4.875 21.875 -3.625 C 21.03125 -2.375 19.757812 -1.378906 18.0625 -0.640625 C 16.375 0.0859375 14.316406 0.453125 11.890625 0.453125 Z M 11.890625 0.453125 "/></g></g></g><g fill="#ffffff" fill-opacity="1"><g transform="translate(24.430673, 36.853603)"><g><path d="M 12.828125 -10.4375 L 9.265625 -6.71875 L 9.265625 0 L 3.15625 0 L 3.15625 -26.578125 L 9.265625 -26.578125 L 9.265625 -14.15625 L 21.03125 -26.578125 L 27.875 -26.578125 L 16.859375 -14.734375 L 28.515625 0 L 21.34375 0 Z M 12.828125 -10.4375 "/></g></g></g><g fill="#ffffff" fill-opacity="1"><g transform="translate(52.51577, 36.853603)"><g><path d="M 16.015625 0.453125 C 13.265625 0.453125 10.78125 -0.140625 8.5625 -1.328125 C 6.34375 -2.515625 4.609375 -4.148438 3.359375 -6.234375 C 2.109375 -8.328125 1.484375 -10.675781 1.484375 -13.28125 C 1.484375 -15.894531 2.109375 -18.242188 3.359375 -20.328125 C 4.609375 -22.421875 6.34375 -24.0625 8.5625 -25.25 C 10.78125 -26.4375 13.265625 -27.03125 16.015625 -27.03125 C 18.773438 -27.03125 21.253906 -26.4375 23.453125 -25.25 C 25.660156 -24.0625 27.394531 -22.421875 28.65625 -20.328125 C 29.925781 -18.242188 30.5625 -15.894531 30.5625 -13.28125 C 30.5625 -10.675781 29.925781 -8.328125 28.65625 -6.234375 C 27.394531 -4.148438 25.660156 -2.515625 23.453125 -1.328125 C 21.253906 -0.140625 18.773438 0.453125 16.015625 0.453125 Z M 16.015625 -4.78125 C 17.585938 -4.78125 19.003906 -5.140625 20.265625 -5.859375 C 21.535156 -6.585938 22.53125 -7.597656 23.25 -8.890625 C 23.976562 -10.179688 24.34375 -11.644531 24.34375 -13.28125 C 24.34375 -14.925781 23.976562 -16.394531 23.25 -17.6875 C 22.53125 -18.976562 21.535156 -19.984375 20.265625 -20.703125 C 19.003906 -21.429688 17.585938 -21.796875 16.015625 -21.796875 C 14.453125 -21.796875 13.035156 -21.429688 11.765625 -20.703125 C 10.503906 -19.984375 9.507812 -18.976562 8.78125 -17.6875 C 8.0625 -16.394531 7.703125 -14.925781 7.703125 -13.28125 C 7.703125 -11.644531 8.0625 -10.179688 8.78125 -8.890625 C 9.507812 -7.597656 10.503906 -6.585938 11.765625 -5.859375 C 13.035156 -5.140625 14.453125 -4.78125 16.015625 -4.78125 Z M 16.015625 -4.78125 "/></g></g></g><g fill="#ffffff" fill-opacity="1"><g transform="translate(84.547959, 36.853603)"><g><path d="M 16.015625 0.453125 C 13.265625 0.453125 10.78125 -0.140625 8.5625 -1.328125 C 6.34375 -2.515625 4.609375 -4.148438 3.359375 -6.234375 C 2.109375 -8.328125 1.484375 -10.675781 1.484375 -13.28125 C 1.484375 -15.894531 2.109375 -18.242188 3.359375 -20.328125 C 4.609375 -22.421875 6.34375 -24.0625 8.5625 -25.25 C 10.78125 -26.4375 13.265625 -27.03125 16.015625 -27.03125 C 18.773438 -27.03125 21.253906 -26.4375 23.453125 -25.25 C 25.660156 -24.0625 27.394531 -22.421875 28.65625 -20.328125 C 29.925781 -18.242188 30.5625 -15.894531 30.5625 -13.28125 C 30.5625 -10.675781 29.925781 -8.328125 28.65625 -6.234375 C 27.394531 -4.148438 25.660156 -2.515625 23.453125 -1.328125 C 21.253906 -0.140625 18.773438 0.453125 16.015625 0.453125 Z M 16.015625 -4.78125 C 17.585938 -4.78125 19.003906 -5.140625 20.265625 -5.859375 C 21.535156 -6.585938 22.53125 -7.597656 23.25 -8.890625 C 23.976562 -10.179688 24.34375 -11.644531 24.34375 -13.28125 C 24.34375 -14.925781 23.976562 -16.394531 23.25 -17.6875 C 22.53125 -18.976562 21.535156 -19.984375 20.265625 -20.703125 C 19.003906 -21.429688 17.585938 -21.796875 16.015625 -21.796875 C 14.453125 -21.796875 13.035156 -21.429688 11.765625 -20.703125 C 10.503906 -19.984375 9.507812 -18.976562 8.78125 -17.6875 C 8.0625 -16.394531 7.703125 -14.925781 7.703125 -13.28125 C 7.703125 -11.644531 8.0625 -10.179688 8.78125 -8.890625 C 9.507812 -7.597656 10.503906 -6.585938 11.765625 -5.859375 C 13.035156 -5.140625 14.453125 -4.78125 16.015625 -4.78125 Z M 16.015625 -4.78125 "/></g></g></g><g fill="#ffffff" fill-opacity="1"><g transform="translate(116.580147, 36.853603)"><g><path d="M 3.15625 -26.578125 L 9.296875 -26.578125 L 9.296875 -5.015625 L 22.625 -5.015625 L 22.625 0 L 3.15625 0 Z M 3.15625 -26.578125 "/></g></g></g><g fill="#ffffff" fill-opacity="1"><g transform="translate(139.503651, 36.853603)"><g><path d="M 27.34375 0 L 27.296875 -15.953125 L 19.484375 -2.8125 L 16.703125 -2.8125 L 8.921875 -15.609375 L 8.921875 0 L 3.15625 0 L 3.15625 -26.578125 L 8.234375 -26.578125 L 18.1875 -10.0625 L 27.984375 -26.578125 L 33.03125 -26.578125 L 33.109375 0 Z M 27.34375 0 "/></g></g></g><g fill="#ffffff" fill-opacity="1"><g transform="translate(175.748599, 36.853603)"><g><path d="M 20.65625 -5.6875 L 8.3125 -5.6875 L 5.96875 0 L -0.34375 0 L 11.5 -26.578125 L 17.578125 -26.578125 L 29.46875 0 L 23.015625 0 Z M 18.71875 -10.359375 L 14.5 -20.546875 L 10.296875 -10.359375 Z M 18.71875 -10.359375 "/></g></g></g><g fill="#ffffff" fill-opacity="1"><g transform="translate(204.820469, 36.853603)"><g><path d="M 8.65625 -21.5625 L 0.15625 -21.5625 L 0.15625 -26.578125 L 23.3125 -26.578125 L 23.3125 -21.5625 L 14.8125 -21.5625 L 14.8125 0 L 8.65625 0 Z M 8.65625 -21.5625 "/></g></g></g><g fill="#ffffff" fill-opacity="1"><g transform="translate(228.275311, 36.853603)"><g><path d="M 23.734375 -4.9375 L 23.734375 0 L 3.15625 0 L 3.15625 -26.578125 L 23.234375 -26.578125 L 23.234375 -21.640625 L 9.265625 -21.640625 L 9.265625 -15.875 L 21.609375 -15.875 L 21.609375 -11.09375 L 9.265625 -11.09375 L 9.265625 -4.9375 Z M 23.734375 -4.9375 "/></g></g></g></g></g><g transform="matrix(1, 0, 0, 1, 241, 242)"><g clip-path="url(#b692ee7f2d)"><g fill="#ffffff" fill-opacity="1"><g transform="translate(0.406882, 14.726872)"><g><path d="M 6.3125 0.09375 C 5.269531 0.09375 4.320312 -0.140625 3.46875 -0.609375 C 2.625 -1.078125 1.960938 -1.71875 1.484375 -2.53125 C 1.015625 -3.34375 0.78125 -4.253906 0.78125 -5.265625 C 0.78125 -6.273438 1.015625 -7.1875 1.484375 -8 C 1.960938 -8.8125 2.625 -9.445312 3.46875 -9.90625 C 4.320312 -10.375 5.269531 -10.609375 6.3125 -10.609375 C 7.351562 -10.609375 8.289062 -10.378906 9.125 -9.921875 C 9.96875 -9.460938 10.628906 -8.820312 11.109375 -8 C 11.585938 -7.1875 11.828125 -6.273438 11.828125 -5.265625 C 11.828125 -4.253906 11.585938 -3.335938 11.109375 -2.515625 C 10.628906 -1.703125 9.96875 -1.0625 9.125 -0.59375 C 8.289062 -0.132812 7.351562 0.09375 6.3125 0.09375 Z M 6.3125 -0.90625 C 7.144531 -0.90625 7.894531 -1.09375 8.5625 -1.46875 C 9.238281 -1.84375 9.765625 -2.363281 10.140625 -3.03125 C 10.523438 -3.695312 10.71875 -4.441406 10.71875 -5.265625 C 10.71875 -6.085938 10.523438 -6.832031 10.140625 -7.5 C 9.765625 -8.164062 9.238281 -8.6875 8.5625 -9.0625 C 7.894531 -9.4375 7.144531 -9.625 6.3125 -9.625 C 5.476562 -9.625 4.722656 -9.4375 4.046875 -9.0625 C 3.367188 -8.6875 2.835938 -8.164062 2.453125 -7.5 C 2.066406 -6.832031 1.875 -6.085938 1.875 -5.265625 C 1.875 -4.441406 2.066406 -3.695312 2.453125 -3.03125 C 2.835938 -2.363281 3.367188 -1.84375 4.046875 -1.46875 C 4.722656 -1.09375 5.476562 -0.90625 6.3125 -0.90625 Z M 6.3125 -0.90625 "/></g></g></g><g fill="#ffffff" fill-opacity="1"><g transform="translate(13.014844, 14.726872)"><g><path d="M 4.609375 0.09375 C 3.828125 0.09375 3.078125 -0.03125 2.359375 -0.28125 C 1.648438 -0.53125 1.097656 -0.863281 0.703125 -1.28125 L 1.140625 -2.140625 C 1.523438 -1.753906 2.03125 -1.441406 2.65625 -1.203125 C 3.289062 -0.972656 3.941406 -0.859375 4.609375 -0.859375 C 5.554688 -0.859375 6.265625 -1.03125 6.734375 -1.375 C 7.203125 -1.71875 7.4375 -2.164062 7.4375 -2.71875 C 7.4375 -3.144531 7.304688 -3.484375 7.046875 -3.734375 C 6.796875 -3.984375 6.484375 -4.175781 6.109375 -4.3125 C 5.742188 -4.445312 5.226562 -4.59375 4.5625 -4.75 C 3.769531 -4.945312 3.140625 -5.140625 2.671875 -5.328125 C 2.203125 -5.515625 1.800781 -5.796875 1.46875 -6.171875 C 1.132812 -6.554688 0.96875 -7.070312 0.96875 -7.71875 C 0.96875 -8.25 1.101562 -8.734375 1.375 -9.171875 C 1.65625 -9.609375 2.085938 -9.957031 2.671875 -10.21875 C 3.253906 -10.476562 3.976562 -10.609375 4.84375 -10.609375 C 5.4375 -10.609375 6.019531 -10.523438 6.59375 -10.359375 C 7.175781 -10.191406 7.679688 -9.96875 8.109375 -9.6875 L 7.71875 -8.796875 C 7.28125 -9.085938 6.8125 -9.304688 6.3125 -9.453125 C 5.8125 -9.597656 5.320312 -9.671875 4.84375 -9.671875 C 3.914062 -9.671875 3.21875 -9.488281 2.75 -9.125 C 2.289062 -8.769531 2.0625 -8.3125 2.0625 -7.75 C 2.0625 -7.332031 2.1875 -6.992188 2.4375 -6.734375 C 2.695312 -6.484375 3.019531 -6.289062 3.40625 -6.15625 C 3.789062 -6.019531 4.304688 -5.875 4.953125 -5.71875 C 5.734375 -5.519531 6.359375 -5.328125 6.828125 -5.140625 C 7.304688 -4.960938 7.707031 -4.6875 8.03125 -4.3125 C 8.363281 -3.9375 8.53125 -3.425781 8.53125 -2.78125 C 8.53125 -2.25 8.390625 -1.765625 8.109375 -1.328125 C 7.828125 -0.890625 7.390625 -0.539062 6.796875 -0.28125 C 6.203125 -0.03125 5.472656 0.09375 4.609375 0.09375 Z M 4.609375 0.09375 "/></g></g></g></g></g><g clip-path="url(#69387092c6)"><g clip-path="url(#2a472413a7)"><g transform="matrix(1, 0, 0, 1, 19, 0.000000000000026117)"><g clip-path="url(#28ce2f7fc6)"><g clip-path="url(#e558cc56db)"><g clip-path="url(#3265f6ab52)"><path fill="#ffffff" d="M 0.132812 0 L 254.273438 0 L 254.273438 98.875 L 0.132812 98.875 Z M 0.132812 0 " fill-opacity="1" fill-rule="nonzero"/></g></g></g></g></g></g><g clip-path="url(#712b2d627a)"><g transform="matrix(1, 0, 0, 1, 248, 49)"><g clip-path="url(#83e8c58ca8)"><g clip-path="url(#6eb247284a)"><path fill="#ffffff" d="M 0.632812 0.4375 L 9.824219 0.4375 L 9.824219 49.878906 L 0.632812 49.878906 Z M 0.632812 0.4375 " fill-opacity="1" fill-rule="nonzero"/></g></g></g></g><g clip-path="url(#9920b8bede)"><g clip-path="url(#0f1b54a3d5)"><g transform="matrix(1, 0, 0, 1, 113, 142)"><g clip-path="url(#e2011d550a)"><g clip-path="url(#10c347f1ba)"><g clip-path="url(#dcf37a3ddf)"><path fill="#ffffff" d="M 0.523438 0.144531 L 68.730469 0.144531 L 68.730469 108.851562 L 0.523438 108.851562 Z M 0.523438 0.144531 " fill-opacity="1" fill-rule="nonzero"/></g></g></g></g></g></g><g clip-path="url(#2c3863b49e)"><g clip-path="url(#d59ce52ddc)"><g transform="matrix(1, 0, 0, 1, 127, 64)"><g clip-path="url(#1fa9b50c23)"><g clip-path="url(#bc988c8d32)"><g clip-path="url(#61d390b1e2)"><path fill="#ffffff" d="M 0.160156 0.457031 L 158.316406 0.457031 L 158.316406 158.613281 L 0.160156 158.613281 Z M 0.160156 0.457031 " fill-opacity="1" fill-rule="nonzero"/></g></g></g></g></g></g><g clip-path="url(#efbb325ce7)"><g clip-path="url(#461cb88f09)"><path stroke-linecap="butt" transform="matrix(0.748197, 0, 0, 0.748197, 127.161468, 64.458197)" fill="none" stroke-linejoin="miter" d="M 105.689824 -0.00155761 C 47.32034 -0.00155761 -0.00175372 47.315315 -0.00175372 105.69002 C -0.00175372 164.059504 47.32034 211.376377 105.689824 211.376377 C 164.059308 211.376377 211.376181 164.059504 211.376181 105.69002 C 211.376181 47.315315 164.059308 -0.00155761 105.689824 -0.00155761 Z M 105.689824 -0.00155761 " stroke="#ffffff" stroke-width="12" stroke-opacity="1" stroke-miterlimit="4"/></g></g><g clip-path="url(#c4907ed070)"><g clip-path="url(#736c3defc2)"><g transform="matrix(1, 0, 0, 1, 5, 64)"><g clip-path="url(#dd526ce97b)"><g clip-path="url(#416622de35)"><g clip-path="url(#a8d33974da)"><path fill="#ffffff" d="M 0.5 0.457031 L 161.769531 0.457031 L 161.769531 161.726562 L 0.5 161.726562 Z M 0.5 0.457031 " fill-opacity="1" fill-rule="nonzero"/></g></g></g></g></g></g><g clip-path="url(#844f2d7270)"><g clip-path="url(#09c473744e)"><path stroke-linecap="butt" transform="matrix(0.748197, 0, 0, 0.748197, 5.501668, 64.458197)" fill="none" stroke-linejoin="miter" d="M 107.76726 -0.00155761 C 48.249182 -0.00155761 -0.00222898 48.249853 -0.00222898 107.767932 C -0.00222898 167.28079 48.249182 215.5322 107.76726 215.5322 C 167.285339 215.5322 215.531529 167.28079 215.531529 107.767932 C 215.531529 48.249853 167.285339 -0.00155761 107.76726 -0.00155761 Z M 107.76726 -0.00155761 " stroke="#ffffff" stroke-width="12" stroke-opacity="1" stroke-miterlimit="4"/></g></g><g clip-path="url(#83555ac53f)"><g clip-path="url(#9a9cd0d9d3)"><g transform="matrix(1, 0, 0, 1, 139, 74)"><g clip-path="url(#1468e15f46)"><g clip-path="url(#5ef3858a77)"><g clip-path="url(#30ad0fe9e8)"><path fill="#0b1c39" d="M 0.175781 0.15625 L 134.300781 0.15625 L 134.300781 134.277344 L 0.175781 134.277344 Z M 0.175781 0.15625 " fill-opacity="1" fill-rule="nonzero"/></g></g></g></g></g></g><g clip-path="url(#32b0070fb2)"><g clip-path="url(#bea83b67e8)"><path stroke-linecap="butt" transform="matrix(0.748197, 0, 0, 0.748197, 139.176872, 74.156073)" fill="none" stroke-linejoin="miter" d="M 89.625454 0.000235968 C 40.126255 0.000235968 -0.00145767 40.127949 -0.00145767 89.627147 C -0.00145767 139.121126 40.126255 179.248838 89.625454 179.248838 C 139.124653 179.248838 179.252365 139.121126 179.252365 89.627147 C 179.252365 40.127949 139.124653 0.000235968 89.625454 0.000235968 Z M 89.625454 0.000235968 " stroke="#0b1c39" stroke-width="6" stroke-opacity="1" stroke-miterlimit="4"/></g></g><g clip-path="url(#de86e02c0d)"><g clip-path="url(#b2a6b76a55)"><g transform="matrix(1, 0, 0, 1, 164, 97)"><g clip-path="url(#17118e84c3)"><g clip-path="url(#5fed5d7d88)"><g clip-path="url(#753445ac27)"><path fill="#ffffff" d="M 0.292969 0.421875 L 87.882812 0.421875 L 87.882812 88.011719 L 0.292969 88.011719 Z M 0.292969 0.421875 " fill-opacity="1" fill-rule="nonzero"/></g></g></g></g></g></g><g clip-path="url(#afbc69827d)"><g clip-path="url(#b6a216effb)"><g transform="matrix(1, 0, 0, 1, 180, 113)"><g clip-path="url(#84a9b11c31)"><g clip-path="url(#260d48d109)"><g clip-path="url(#1332d643eb)"><path fill="#0b1c39" d="M 0.3125 0.441406 L 55.863281 0.441406 L 55.863281 55.996094 L 0.3125 55.996094 Z M 0.3125 0.441406 " fill-opacity="1" fill-rule="nonzero"/></g></g></g></g></g></g><g clip-path="url(#6ebf107598)"><g clip-path="url(#6af5e2b831)"><g transform="matrix(1, 0, 0, 1, 212, 119)"><g clip-path="url(#80986d3afa)"><g clip-path="url(#d3316762df)"><g clip-path="url(#b51889f819)"><path fill="#ffffff" d="M 0.226562 0.625 L 22.417969 0.625 L 22.417969 22.820312 L 0.226562 22.820312 Z M 0.226562 0.625 " fill-opacity="1" fill-rule="nonzero"/></g></g></g></g></g></g><g clip-path="url(#af6b8f6f88)"><g clip-path="url(#5521ff3e83)"><g transform="matrix(1, 0, 0, 1, 20, 76)"><g clip-path="url(#8fc8ca96dc)"><g clip-path="url(#a585de4b60)"><g clip-path="url(#f9f2322fd3)"><path fill="#0b1c39" d="M 0.46875 0.472656 L 134.589844 0.472656 L 134.589844 134.597656 L 0.46875 134.597656 Z M 0.46875 0.472656 " fill-opacity="1" fill-rule="nonzero"/></g></g></g></g></g></g><g clip-path="url(#a26650762d)"><g clip-path="url(#11f5edf83f)"><path stroke-linecap="butt" transform="matrix(0.748197, 0, 0, 0.748197, 20.467345, 76.473607)" fill="none" stroke-linejoin="miter" d="M 89.623568 -0.00127116 C 40.124369 -0.00127116 0.00187758 40.126441 0.00187758 89.62564 C 0.00187758 139.124839 40.124369 179.252552 89.623568 179.252552 C 139.122767 179.252552 179.25048 139.124839 179.25048 89.62564 C 179.25048 40.126441 139.122767 -0.00127116 89.623568 -0.00127116 Z M 89.623568 -0.00127116 " stroke="#0b1c39" stroke-width="6" stroke-opacity="1" stroke-miterlimit="4"/></g></g><g clip-path="url(#9d2a0612b5)"><g clip-path="url(#70d7433da8)"><g transform="matrix(1, 0, 0, 1, 43, 101)"><g clip-path="url(#b9120d76b4)"><g clip-path="url(#f36ab80bdc)"><g clip-path="url(#6e28f9a4fd)"><path fill="#ffffff" d="M 0.734375 0.296875 L 88.324219 0.296875 L 88.324219 87.886719 L 0.734375 87.886719 Z M 0.734375 0.296875 " fill-opacity="1" fill-rule="nonzero"/></g></g></g></g></g></g><g clip-path="url(#6c9e6dac53)"><g clip-path="url(#27939c2d24)"><g transform="matrix(1, 0, 0, 1, 59, 117)"><g clip-path="url(#06e6fd6d11)"><g clip-path="url(#0b6e773e31)"><g clip-path="url(#32a44033d8)"><path fill="#0b1c39" d="M 0.75 0.316406 L 56.304688 0.316406 L 56.304688 55.871094 L 0.75 55.871094 Z M 0.75 0.316406 " fill-opacity="1" fill-rule="nonzero"/></g></g></g></g></g></g><g clip-path="url(#0c5d2646bc)"><g clip-path="url(#3a576f4083)"><g transform="matrix(1, 0, 0, 1, 93, 121)"><g clip-path="url(#a8a2c2b516)"><g clip-path="url(#86ac81d46e)"><g clip-path="url(#582a5e494a)"><path fill="#ffffff" d="M 0.335938 0.507812 L 22.53125 0.507812 L 22.53125 22.699219 L 0.335938 22.699219 Z M 0.335938 0.507812 " fill-opacity="1" fill-rule="nonzero"/></g></g></g></g></g></g></svg>