<svg xmlns="http://www.w3.org/2000/svg" xmlns:xlink="http://www.w3.org/1999/xlink" width="463" zoomAndPan="magnify" viewBox="0 0 347.25 55.5" height="74" preserveAspectRatio="xMidYMid meet" version="1.0"><defs><g/><clipPath id="e6e965c2dd"><path d="M 1.179688 0 L 332 0 L 332 55.003906 L 1.179688 55.003906 Z M 1.179688 0 " clip-rule="nonzero"/></clipPath><clipPath id="6c412487d4"><path d="M 0.015625 7 L 20 7 L 20 31 L 0.015625 31 Z M 0.015625 7 " clip-rule="nonzero"/></clipPath><clipPath id="8ea783607e"><rect x="0" width="208" y="0" height="38"/></clipPath><clipPath id="db2ef657ee"><path d="M 283 8 L 330.085938 8 L 330.085938 46 L 283 46 Z M 283 8 " clip-rule="nonzero"/></clipPath><clipPath id="a03669fea9"><rect x="0" width="48" y="0" height="38"/></clipPath><clipPath id="6e4923eafd"><path d="M 3.085938 0.253906 L 57.371094 0.253906 L 57.371094 21.34375 L 3.085938 21.34375 Z M 3.085938 0.253906 " clip-rule="nonzero"/></clipPath><clipPath id="2c0fbde093"><path d="M 30.191406 0.253906 L 57.296875 10.800781 L 30.191406 21.34375 L 3.085938 10.800781 Z M 30.191406 0.253906 " clip-rule="nonzero"/></clipPath><clipPath id="c49d2dc86e"><path d="M 0.0859375 0.253906 L 54.371094 0.253906 L 54.371094 21.34375 L 0.0859375 21.34375 Z M 0.0859375 0.253906 " clip-rule="nonzero"/></clipPath><clipPath id="8843446474"><path d="M 27.191406 0.253906 L 54.296875 10.800781 L 27.191406 21.34375 L 0.0859375 10.800781 Z M 27.191406 0.253906 " clip-rule="nonzero"/></clipPath><clipPath id="0d1fc8ae89"><rect x="0" width="55" y="0" height="22"/></clipPath><clipPath id="a370a98586"><path d="M 52.035156 10.800781 L 53.996094 10.800781 L 53.996094 21.34375 L 52.035156 21.34375 Z M 52.035156 10.800781 " clip-rule="nonzero"/></clipPath><clipPath id="a708d84f08"><path d="M 0.0351562 0.800781 L 1.996094 0.800781 L 1.996094 11.34375 L 0.0351562 11.34375 Z M 0.0351562 0.800781 " clip-rule="nonzero"/></clipPath><clipPath id="52bb914bd2"><rect x="0" width="2" y="0" height="12"/></clipPath><clipPath id="790784afd4"><path d="M 23.21875 30.574219 L 37.765625 30.574219 L 37.765625 53.757812 L 23.21875 53.757812 Z M 23.21875 30.574219 " clip-rule="nonzero"/></clipPath><clipPath id="fed5912dc3"><path d="M 30.492188 30.574219 L 37.765625 42.164062 L 30.492188 53.753906 L 23.21875 42.164062 Z M 30.492188 30.574219 " clip-rule="nonzero"/></clipPath><clipPath id="2096bba980"><path d="M 0.21875 0.574219 L 14.765625 0.574219 L 14.765625 23.753906 L 0.21875 23.753906 Z M 0.21875 0.574219 " clip-rule="nonzero"/></clipPath><clipPath id="33cc0c79a8"><path d="M 7.492188 0.574219 L 14.765625 12.164062 L 7.492188 23.753906 L 0.21875 12.164062 Z M 7.492188 0.574219 " clip-rule="nonzero"/></clipPath><clipPath id="3b06ac5832"><rect x="0" width="15" y="0" height="24"/></clipPath><clipPath id="d1ebac6134"><path d="M 26.125 14.003906 L 59.859375 14.003906 L 59.859375 47.734375 L 26.125 47.734375 Z M 26.125 14.003906 " clip-rule="nonzero"/></clipPath><clipPath id="c6b11093cb"><path d="M 42.992188 14.003906 C 33.679688 14.003906 26.125 21.554688 26.125 30.871094 C 26.125 40.183594 33.679688 47.734375 42.992188 47.734375 C 52.308594 47.734375 59.859375 40.183594 59.859375 30.871094 C 59.859375 21.554688 52.308594 14.003906 42.992188 14.003906 Z M 42.992188 14.003906 " clip-rule="nonzero"/></clipPath><clipPath id="af8e7b7905"><path d="M 0.125 0.00390625 L 33.859375 0.00390625 L 33.859375 33.734375 L 0.125 33.734375 Z M 0.125 0.00390625 " clip-rule="nonzero"/></clipPath><clipPath id="6de0521928"><path d="M 16.992188 0.00390625 C 7.679688 0.00390625 0.125 7.554688 0.125 16.871094 C 0.125 26.183594 7.679688 33.734375 16.992188 33.734375 C 26.308594 33.734375 33.859375 26.183594 33.859375 16.871094 C 33.859375 7.554688 26.308594 0.00390625 16.992188 0.00390625 Z M 16.992188 0.00390625 " clip-rule="nonzero"/></clipPath><clipPath id="829e7960ef"><rect x="0" width="34" y="0" height="34"/></clipPath><clipPath id="a8af44eb44"><path d="M 0.179688 14.003906 L 34.574219 14.003906 L 34.574219 48.398438 L 0.179688 48.398438 Z M 0.179688 14.003906 " clip-rule="nonzero"/></clipPath><clipPath id="4ec423d809"><path d="M 17.375 14.003906 C 7.878906 14.003906 0.179688 21.703125 0.179688 31.203125 C 0.179688 40.699219 7.878906 48.398438 17.375 48.398438 C 26.875 48.398438 34.574219 40.699219 34.574219 31.203125 C 34.574219 21.703125 26.875 14.003906 17.375 14.003906 Z M 17.375 14.003906 " clip-rule="nonzero"/></clipPath><clipPath id="a794d81bde"><path d="M 0.179688 0.00390625 L 34.574219 0.00390625 L 34.574219 34.398438 L 0.179688 34.398438 Z M 0.179688 0.00390625 " clip-rule="nonzero"/></clipPath><clipPath id="34eb505cca"><path d="M 17.375 0.00390625 C 7.878906 0.00390625 0.179688 7.703125 0.179688 17.203125 C 0.179688 26.699219 7.878906 34.398438 17.375 34.398438 C 26.875 34.398438 34.574219 26.699219 34.574219 17.203125 C 34.574219 7.703125 26.875 0.00390625 17.375 0.00390625 Z M 17.375 0.00390625 " clip-rule="nonzero"/></clipPath><clipPath id="175c7ff1fd"><rect x="0" width="35" y="0" height="35"/></clipPath><clipPath id="039e81bf46"><path d="M 0.179688 14.003906 L 34.574219 14.003906 L 34.574219 48.398438 L 0.179688 48.398438 Z M 0.179688 14.003906 " clip-rule="nonzero"/></clipPath><clipPath id="9f090c4efe"><path d="M 17.375 14.003906 C 7.878906 14.003906 0.179688 21.703125 0.179688 31.199219 C 0.179688 40.699219 7.878906 48.398438 17.375 48.398438 C 26.875 48.398438 34.574219 40.699219 34.574219 31.199219 C 34.574219 21.703125 26.875 14.003906 17.375 14.003906 Z M 17.375 14.003906 " clip-rule="nonzero"/></clipPath><clipPath id="b20ca999e8"><path d="M 28.691406 16.070312 L 57.296875 16.070312 L 57.296875 44.679688 L 28.691406 44.679688 Z M 28.691406 16.070312 " clip-rule="nonzero"/></clipPath><clipPath id="9d9f85a976"><path d="M 42.992188 16.070312 C 35.09375 16.070312 28.691406 22.476562 28.691406 30.375 C 28.691406 38.273438 35.09375 44.679688 42.992188 44.679688 C 50.890625 44.679688 57.296875 38.273438 57.296875 30.375 C 57.296875 22.476562 50.890625 16.070312 42.992188 16.070312 Z M 42.992188 16.070312 " clip-rule="nonzero"/></clipPath><clipPath id="3b7f932700"><path d="M 0.691406 0.0703125 L 29.296875 0.0703125 L 29.296875 28.679688 L 0.691406 28.679688 Z M 0.691406 0.0703125 " clip-rule="nonzero"/></clipPath><clipPath id="0f986621b3"><path d="M 14.992188 0.0703125 C 7.09375 0.0703125 0.691406 6.476562 0.691406 14.375 C 0.691406 22.273438 7.09375 28.679688 14.992188 28.679688 C 22.890625 28.679688 29.296875 22.273438 29.296875 14.375 C 29.296875 6.476562 22.890625 0.0703125 14.992188 0.0703125 Z M 14.992188 0.0703125 " clip-rule="nonzero"/></clipPath><clipPath id="6289048088"><rect x="0" width="30" y="0" height="29"/></clipPath><clipPath id="4a0416e8ca"><path d="M 28.691406 16.070312 L 57.292969 16.070312 L 57.292969 44.675781 L 28.691406 44.675781 Z M 28.691406 16.070312 " clip-rule="nonzero"/></clipPath><clipPath id="1de3f1a493"><path d="M 42.992188 16.070312 C 35.09375 16.070312 28.691406 22.476562 28.691406 30.375 C 28.691406 38.273438 35.09375 44.675781 42.992188 44.675781 C 50.890625 44.675781 57.292969 38.273438 57.292969 30.375 C 57.292969 22.476562 50.890625 16.070312 42.992188 16.070312 Z M 42.992188 16.070312 " clip-rule="nonzero"/></clipPath><clipPath id="57b751d4e4"><path d="M 32.574219 20.414062 L 53.410156 20.414062 L 53.410156 41.25 L 32.574219 41.25 Z M 32.574219 20.414062 " clip-rule="nonzero"/></clipPath><clipPath id="db0212fb77"><path d="M 42.992188 20.414062 C 37.238281 20.414062 32.574219 25.078125 32.574219 30.832031 C 32.574219 36.585938 37.238281 41.25 42.992188 41.25 C 48.746094 41.25 53.410156 36.585938 53.410156 30.832031 C 53.410156 25.078125 48.746094 20.414062 42.992188 20.414062 Z M 42.992188 20.414062 " clip-rule="nonzero"/></clipPath><clipPath id="b1e2d8caa6"><path d="M 0.574219 0.414062 L 21.410156 0.414062 L 21.410156 21.25 L 0.574219 21.25 Z M 0.574219 0.414062 " clip-rule="nonzero"/></clipPath><clipPath id="5edf27390d"><path d="M 10.992188 0.414062 C 5.238281 0.414062 0.574219 5.078125 0.574219 10.832031 C 0.574219 16.585938 5.238281 21.25 10.992188 21.25 C 16.746094 21.25 21.410156 16.585938 21.410156 10.832031 C 21.410156 5.078125 16.746094 0.414062 10.992188 0.414062 Z M 10.992188 0.414062 " clip-rule="nonzero"/></clipPath><clipPath id="a85e21f115"><rect x="0" width="22" y="0" height="22"/></clipPath><clipPath id="029d29928e"><path d="M 37.460938 24.980469 L 49.3125 24.980469 L 49.3125 36.828125 L 37.460938 36.828125 Z M 37.460938 24.980469 " clip-rule="nonzero"/></clipPath><clipPath id="ecb774a747"><path d="M 43.386719 24.980469 C 40.113281 24.980469 37.460938 27.632812 37.460938 30.90625 C 37.460938 34.175781 40.113281 36.828125 43.386719 36.828125 C 46.660156 36.828125 49.3125 34.175781 49.3125 30.90625 C 49.3125 27.632812 46.660156 24.980469 43.386719 24.980469 Z M 43.386719 24.980469 " clip-rule="nonzero"/></clipPath><clipPath id="79d5329671"><path d="M 0.460938 0.980469 L 12.3125 0.980469 L 12.3125 12.828125 L 0.460938 12.828125 Z M 0.460938 0.980469 " clip-rule="nonzero"/></clipPath><clipPath id="e06fc89cdc"><path d="M 6.386719 0.980469 C 3.113281 0.980469 0.460938 3.632812 0.460938 6.90625 C 0.460938 10.175781 3.113281 12.828125 6.386719 12.828125 C 9.660156 12.828125 12.3125 10.175781 12.3125 6.90625 C 12.3125 3.632812 9.660156 0.980469 6.386719 0.980469 Z M 6.386719 0.980469 " clip-rule="nonzero"/></clipPath><clipPath id="cb123c9107"><rect x="0" width="13" y="0" height="13"/></clipPath><clipPath id="87196e0d0c"><path d="M 44.269531 25.769531 L 49.003906 25.769531 L 49.003906 30.503906 L 44.269531 30.503906 Z M 44.269531 25.769531 " clip-rule="nonzero"/></clipPath><clipPath id="ea8c52c335"><path d="M 46.636719 25.769531 C 45.328125 25.769531 44.269531 26.828125 44.269531 28.136719 C 44.269531 29.445312 45.328125 30.503906 46.636719 30.503906 C 47.945312 30.503906 49.003906 29.445312 49.003906 28.136719 C 49.003906 26.828125 47.945312 25.769531 46.636719 25.769531 Z M 46.636719 25.769531 " clip-rule="nonzero"/></clipPath><clipPath id="31d3ca0890"><path d="M 0.269531 0.769531 L 5.003906 0.769531 L 5.003906 5.503906 L 0.269531 5.503906 Z M 0.269531 0.769531 " clip-rule="nonzero"/></clipPath><clipPath id="ba710bafc1"><path d="M 2.636719 0.769531 C 1.328125 0.769531 0.269531 1.828125 0.269531 3.136719 C 0.269531 4.445312 1.328125 5.503906 2.636719 5.503906 C 3.945312 5.503906 5.003906 4.445312 5.003906 3.136719 C 5.003906 1.828125 3.945312 0.769531 2.636719 0.769531 Z M 2.636719 0.769531 " clip-rule="nonzero"/></clipPath><clipPath id="34da773429"><rect x="0" width="6" y="0" height="6"/></clipPath><clipPath id="e47ac17032"><path d="M 3.371094 16.566406 L 31.976562 16.566406 L 31.976562 45.171875 L 3.371094 45.171875 Z M 3.371094 16.566406 " clip-rule="nonzero"/></clipPath><clipPath id="3944d8283f"><path d="M 17.671875 16.566406 C 9.773438 16.566406 3.371094 22.96875 3.371094 30.871094 C 3.371094 38.769531 9.773438 45.171875 17.671875 45.171875 C 25.574219 45.171875 31.976562 38.769531 31.976562 30.871094 C 31.976562 22.96875 25.574219 16.566406 17.671875 16.566406 Z M 17.671875 16.566406 " clip-rule="nonzero"/></clipPath><clipPath id="506ddfaf82"><path d="M 0.371094 0.566406 L 28.976562 0.566406 L 28.976562 29.171875 L 0.371094 29.171875 Z M 0.371094 0.566406 " clip-rule="nonzero"/></clipPath><clipPath id="8e6e6e4d83"><path d="M 14.671875 0.566406 C 6.773438 0.566406 0.371094 6.96875 0.371094 14.871094 C 0.371094 22.769531 6.773438 29.171875 14.671875 29.171875 C 22.574219 29.171875 28.976562 22.769531 28.976562 14.871094 C 28.976562 6.96875 22.574219 0.566406 14.671875 0.566406 Z M 14.671875 0.566406 " clip-rule="nonzero"/></clipPath><clipPath id="0622c219bf"><rect x="0" width="29" y="0" height="30"/></clipPath><clipPath id="f56dd0c46b"><path d="M 3.371094 16.566406 L 31.976562 16.566406 L 31.976562 45.171875 L 3.371094 45.171875 Z M 3.371094 16.566406 " clip-rule="nonzero"/></clipPath><clipPath id="37e52f1ee2"><path d="M 17.671875 16.566406 C 9.773438 16.566406 3.371094 22.96875 3.371094 30.867188 C 3.371094 38.769531 9.773438 45.171875 17.671875 45.171875 C 25.570312 45.171875 31.976562 38.769531 31.976562 30.867188 C 31.976562 22.96875 25.570312 16.566406 17.671875 16.566406 Z M 17.671875 16.566406 " clip-rule="nonzero"/></clipPath><clipPath id="38672c0478"><path d="M 7.257812 20.910156 L 28.089844 20.910156 L 28.089844 41.746094 L 7.257812 41.746094 Z M 7.257812 20.910156 " clip-rule="nonzero"/></clipPath><clipPath id="5c3b6e1427"><path d="M 17.671875 20.910156 C 11.921875 20.910156 7.257812 25.574219 7.257812 31.328125 C 7.257812 37.082031 11.921875 41.746094 17.671875 41.746094 C 23.425781 41.746094 28.089844 37.082031 28.089844 31.328125 C 28.089844 25.574219 23.425781 20.910156 17.671875 20.910156 Z M 17.671875 20.910156 " clip-rule="nonzero"/></clipPath><clipPath id="6bb5b9e589"><path d="M 0.257812 0.910156 L 21.089844 0.910156 L 21.089844 21.746094 L 0.257812 21.746094 Z M 0.257812 0.910156 " clip-rule="nonzero"/></clipPath><clipPath id="c3e1cb61ef"><path d="M 10.671875 0.910156 C 4.921875 0.910156 0.257812 5.574219 0.257812 11.328125 C 0.257812 17.082031 4.921875 21.746094 10.671875 21.746094 C 16.425781 21.746094 21.089844 17.082031 21.089844 11.328125 C 21.089844 5.574219 16.425781 0.910156 10.671875 0.910156 Z M 10.671875 0.910156 " clip-rule="nonzero"/></clipPath><clipPath id="cf8d2971d0"><rect x="0" width="22" y="0" height="22"/></clipPath><clipPath id="74e0da0889"><path d="M 12.144531 25.476562 L 23.992188 25.476562 L 23.992188 37.324219 L 12.144531 37.324219 Z M 12.144531 25.476562 " clip-rule="nonzero"/></clipPath><clipPath id="205c8dc2a4"><path d="M 18.066406 25.476562 C 14.796875 25.476562 12.144531 28.128906 12.144531 31.398438 C 12.144531 34.671875 14.796875 37.324219 18.066406 37.324219 C 21.339844 37.324219 23.992188 34.671875 23.992188 31.398438 C 23.992188 28.128906 21.339844 25.476562 18.066406 25.476562 Z M 18.066406 25.476562 " clip-rule="nonzero"/></clipPath><clipPath id="b3710d2874"><path d="M 0.144531 0.476562 L 11.992188 0.476562 L 11.992188 12.324219 L 0.144531 12.324219 Z M 0.144531 0.476562 " clip-rule="nonzero"/></clipPath><clipPath id="cc1f64a53a"><path d="M 6.066406 0.476562 C 2.796875 0.476562 0.144531 3.128906 0.144531 6.398438 C 0.144531 9.671875 2.796875 12.324219 6.066406 12.324219 C 9.339844 12.324219 11.992188 9.671875 11.992188 6.398438 C 11.992188 3.128906 9.339844 0.476562 6.066406 0.476562 Z M 6.066406 0.476562 " clip-rule="nonzero"/></clipPath><clipPath id="cff01592db"><rect x="0" width="12" y="0" height="13"/></clipPath><clipPath id="825bea3332"><path d="M 18.914062 26.171875 L 23.644531 26.171875 L 23.644531 30.90625 L 18.914062 30.90625 Z M 18.914062 26.171875 " clip-rule="nonzero"/></clipPath><clipPath id="a36399d71a"><path d="M 21.28125 26.171875 C 19.972656 26.171875 18.914062 27.230469 18.914062 28.539062 C 18.914062 29.847656 19.972656 30.90625 21.28125 30.90625 C 22.585938 30.90625 23.644531 29.847656 23.644531 28.539062 C 23.644531 27.230469 22.585938 26.171875 21.28125 26.171875 Z M 21.28125 26.171875 " clip-rule="nonzero"/></clipPath><clipPath id="b6b654d0ee"><path d="M 0.914062 0.171875 L 5.644531 0.171875 L 5.644531 4.90625 L 0.914062 4.90625 Z M 0.914062 0.171875 " clip-rule="nonzero"/></clipPath><clipPath id="cceb8e1990"><path d="M 3.28125 0.171875 C 1.972656 0.171875 0.914062 1.230469 0.914062 2.539062 C 0.914062 3.847656 1.972656 4.90625 3.28125 4.90625 C 4.585938 4.90625 5.644531 3.847656 5.644531 2.539062 C 5.644531 1.230469 4.585938 0.171875 3.28125 0.171875 Z M 3.28125 0.171875 " clip-rule="nonzero"/></clipPath><clipPath id="d78263706d"><rect x="0" width="6" y="0" height="5"/></clipPath><clipPath id="ebcbb9497c"><rect x="0" width="331" y="0" height="56"/></clipPath></defs><g clip-path="url(#e6e965c2dd)"><g transform="matrix(1, 0, 0, 1, 1, -0.000000000000005846)"><g clip-path="url(#ebcbb9497c)"><g transform="matrix(1, 0, 0, 1, 67, 8)"><g clip-path="url(#8ea783607e)"><g clip-path="url(#6c412487d4)"><g fill="#0f203b" fill-opacity="1"><g transform="translate(0.111895, 29.728072)"><g><path d="M 9.703125 0.375 C 7.984375 0.375 6.320312 0.144531 4.71875 -0.3125 C 3.125 -0.78125 1.84375 -1.390625 0.875 -2.140625 L 2.578125 -5.921875 C 3.503906 -5.234375 4.609375 -4.679688 5.890625 -4.265625 C 7.171875 -3.859375 8.453125 -3.65625 9.734375 -3.65625 C 11.160156 -3.65625 12.210938 -3.863281 12.890625 -4.28125 C 13.578125 -4.707031 13.921875 -5.273438 13.921875 -5.984375 C 13.921875 -6.503906 13.71875 -6.929688 13.3125 -7.265625 C 12.90625 -7.609375 12.382812 -7.882812 11.75 -8.09375 C 11.125 -8.300781 10.273438 -8.523438 9.203125 -8.765625 C 7.554688 -9.160156 6.203125 -9.554688 5.140625 -9.953125 C 4.085938 -10.347656 3.179688 -10.976562 2.421875 -11.84375 C 1.671875 -12.707031 1.296875 -13.863281 1.296875 -15.3125 C 1.296875 -16.570312 1.632812 -17.710938 2.3125 -18.734375 C 3 -19.765625 4.03125 -20.578125 5.40625 -21.171875 C 6.78125 -21.773438 8.460938 -22.078125 10.453125 -22.078125 C 11.835938 -22.078125 13.1875 -21.910156 14.5 -21.578125 C 15.820312 -21.242188 16.984375 -20.769531 17.984375 -20.15625 L 16.4375 -16.34375 C 14.425781 -17.476562 12.421875 -18.046875 10.421875 -18.046875 C 9.015625 -18.046875 7.972656 -17.816406 7.296875 -17.359375 C 6.628906 -16.898438 6.296875 -16.300781 6.296875 -15.5625 C 6.296875 -14.820312 6.679688 -14.269531 7.453125 -13.90625 C 8.234375 -13.539062 9.414062 -13.179688 11 -12.828125 C 12.65625 -12.441406 14.007812 -12.050781 15.0625 -11.65625 C 16.113281 -11.257812 17.015625 -10.640625 17.765625 -9.796875 C 18.523438 -8.953125 18.90625 -7.804688 18.90625 -6.359375 C 18.90625 -5.117188 18.554688 -3.984375 17.859375 -2.953125 C 17.171875 -1.929688 16.132812 -1.117188 14.75 -0.515625 C 13.363281 0.078125 11.679688 0.375 9.703125 0.375 Z M 9.703125 0.375 "/></g></g></g></g><g fill="#0f203b" fill-opacity="1"><g transform="translate(19.883661, 29.728072)"><g><path d="M 10.484375 -8.53125 L 7.5625 -5.484375 L 7.5625 0 L 2.578125 0 L 2.578125 -21.703125 L 7.5625 -21.703125 L 7.5625 -11.5625 L 17.171875 -21.703125 L 22.75 -21.703125 L 13.765625 -12.03125 L 23.28125 0 L 17.421875 0 Z M 10.484375 -8.53125 "/></g></g></g><g fill="#0f203b" fill-opacity="1"><g transform="translate(42.81643, 29.728072)"><g><path d="M 13.078125 0.375 C 10.828125 0.375 8.796875 -0.109375 6.984375 -1.078125 C 5.179688 -2.054688 3.765625 -3.394531 2.734375 -5.09375 C 1.710938 -6.800781 1.203125 -8.71875 1.203125 -10.84375 C 1.203125 -12.976562 1.710938 -14.894531 2.734375 -16.59375 C 3.765625 -18.300781 5.179688 -19.640625 6.984375 -20.609375 C 8.796875 -21.585938 10.828125 -22.078125 13.078125 -22.078125 C 15.335938 -22.078125 17.363281 -21.585938 19.15625 -20.609375 C 20.957031 -19.640625 22.375 -18.300781 23.40625 -16.59375 C 24.4375 -14.894531 24.953125 -12.976562 24.953125 -10.84375 C 24.953125 -8.71875 24.4375 -6.800781 23.40625 -5.09375 C 22.375 -3.394531 20.957031 -2.054688 19.15625 -1.078125 C 17.363281 -0.109375 15.335938 0.375 13.078125 0.375 Z M 13.078125 -3.90625 C 14.359375 -3.90625 15.515625 -4.195312 16.546875 -4.78125 C 17.585938 -5.375 18.398438 -6.195312 18.984375 -7.25 C 19.578125 -8.300781 19.875 -9.5 19.875 -10.84375 C 19.875 -12.1875 19.578125 -13.382812 18.984375 -14.4375 C 18.398438 -15.5 17.585938 -16.320312 16.546875 -16.90625 C 15.515625 -17.5 14.359375 -17.796875 13.078125 -17.796875 C 11.796875 -17.796875 10.640625 -17.5 9.609375 -16.90625 C 8.578125 -16.320312 7.765625 -15.5 7.171875 -14.4375 C 6.585938 -13.382812 6.296875 -12.1875 6.296875 -10.84375 C 6.296875 -9.5 6.585938 -8.300781 7.171875 -7.25 C 7.765625 -6.195312 8.578125 -5.375 9.609375 -4.78125 C 10.640625 -4.195312 11.796875 -3.90625 13.078125 -3.90625 Z M 13.078125 -3.90625 "/></g></g></g><g fill="#0f203b" fill-opacity="1"><g transform="translate(68.97218, 29.728072)"><g><path d="M 13.078125 0.375 C 10.828125 0.375 8.796875 -0.109375 6.984375 -1.078125 C 5.179688 -2.054688 3.765625 -3.394531 2.734375 -5.09375 C 1.710938 -6.800781 1.203125 -8.71875 1.203125 -10.84375 C 1.203125 -12.976562 1.710938 -14.894531 2.734375 -16.59375 C 3.765625 -18.300781 5.179688 -19.640625 6.984375 -20.609375 C 8.796875 -21.585938 10.828125 -22.078125 13.078125 -22.078125 C 15.335938 -22.078125 17.363281 -21.585938 19.15625 -20.609375 C 20.957031 -19.640625 22.375 -18.300781 23.40625 -16.59375 C 24.4375 -14.894531 24.953125 -12.976562 24.953125 -10.84375 C 24.953125 -8.71875 24.4375 -6.800781 23.40625 -5.09375 C 22.375 -3.394531 20.957031 -2.054688 19.15625 -1.078125 C 17.363281 -0.109375 15.335938 0.375 13.078125 0.375 Z M 13.078125 -3.90625 C 14.359375 -3.90625 15.515625 -4.195312 16.546875 -4.78125 C 17.585938 -5.375 18.398438 -6.195312 18.984375 -7.25 C 19.578125 -8.300781 19.875 -9.5 19.875 -10.84375 C 19.875 -12.1875 19.578125 -13.382812 18.984375 -14.4375 C 18.398438 -15.5 17.585938 -16.320312 16.546875 -16.90625 C 15.515625 -17.5 14.359375 -17.796875 13.078125 -17.796875 C 11.796875 -17.796875 10.640625 -17.5 9.609375 -16.90625 C 8.578125 -16.320312 7.765625 -15.5 7.171875 -14.4375 C 6.585938 -13.382812 6.296875 -12.1875 6.296875 -10.84375 C 6.296875 -9.5 6.585938 -8.300781 7.171875 -7.25 C 7.765625 -6.195312 8.578125 -5.375 9.609375 -4.78125 C 10.640625 -4.195312 11.796875 -3.90625 13.078125 -3.90625 Z M 13.078125 -3.90625 "/></g></g></g><g fill="#0f203b" fill-opacity="1"><g transform="translate(95.127931, 29.728072)"><g><path d="M 2.578125 -21.703125 L 7.59375 -21.703125 L 7.59375 -4.09375 L 18.46875 -4.09375 L 18.46875 0 L 2.578125 0 Z M 2.578125 -21.703125 "/></g></g></g><g fill="#0f203b" fill-opacity="1"><g transform="translate(113.846022, 29.728072)"><g><path d="M 22.3125 0 L 22.28125 -13.015625 L 15.90625 -2.296875 L 13.640625 -2.296875 L 7.28125 -12.734375 L 7.28125 0 L 2.578125 0 L 2.578125 -21.703125 L 6.734375 -21.703125 L 14.84375 -8.21875 L 22.84375 -21.703125 L 26.96875 -21.703125 L 27.03125 0 Z M 22.3125 0 "/></g></g></g><g fill="#0f203b" fill-opacity="1"><g transform="translate(143.441684, 29.728072)"><g><path d="M 16.859375 -4.65625 L 6.78125 -4.65625 L 4.859375 0 L -0.28125 0 L 9.390625 -21.703125 L 14.359375 -21.703125 L 24.0625 0 L 18.78125 0 Z M 15.28125 -8.46875 L 11.84375 -16.765625 L 8.40625 -8.46875 Z M 15.28125 -8.46875 "/></g></g></g><g fill="#0f203b" fill-opacity="1"><g transform="translate(167.180199, 29.728072)"><g><path d="M 7.0625 -17.609375 L 0.125 -17.609375 L 0.125 -21.703125 L 19.03125 -21.703125 L 19.03125 -17.609375 L 12.09375 -17.609375 L 12.09375 0 L 7.0625 0 Z M 7.0625 -17.609375 "/></g></g></g><g fill="#0f203b" fill-opacity="1"><g transform="translate(186.332152, 29.728072)"><g><path d="M 19.375 -4.03125 L 19.375 0 L 2.578125 0 L 2.578125 -21.703125 L 18.96875 -21.703125 L 18.96875 -17.671875 L 7.5625 -17.671875 L 7.5625 -12.953125 L 17.640625 -12.953125 L 17.640625 -9.046875 L 7.5625 -9.046875 L 7.5625 -4.03125 Z M 19.375 -4.03125 "/></g></g></g></g></g><g clip-path="url(#db2ef657ee)"><g transform="matrix(1, 0, 0, 1, 283, 8)"><g clip-path="url(#a03669fea9)"><g fill="#c8a857" fill-opacity="1"><g transform="translate(0.618793, 29.728072)"><g><path d="M 13.078125 0.375 C 10.828125 0.375 8.796875 -0.109375 6.984375 -1.078125 C 5.179688 -2.054688 3.765625 -3.394531 2.734375 -5.09375 C 1.710938 -6.800781 1.203125 -8.71875 1.203125 -10.84375 C 1.203125 -12.976562 1.710938 -14.894531 2.734375 -16.59375 C 3.765625 -18.300781 5.179688 -19.640625 6.984375 -20.609375 C 8.796875 -21.585938 10.828125 -22.078125 13.078125 -22.078125 C 15.335938 -22.078125 17.363281 -21.585938 19.15625 -20.609375 C 20.957031 -19.640625 22.375 -18.300781 23.40625 -16.59375 C 24.4375 -14.894531 24.953125 -12.976562 24.953125 -10.84375 C 24.953125 -8.71875 24.4375 -6.800781 23.40625 -5.09375 C 22.375 -3.394531 20.957031 -2.054688 19.15625 -1.078125 C 17.363281 -0.109375 15.335938 0.375 13.078125 0.375 Z M 13.078125 -3.90625 C 14.359375 -3.90625 15.515625 -4.195312 16.546875 -4.78125 C 17.585938 -5.375 18.398438 -6.195312 18.984375 -7.25 C 19.578125 -8.300781 19.875 -9.5 19.875 -10.84375 C 19.875 -12.1875 19.578125 -13.382812 18.984375 -14.4375 C 18.398438 -15.5 17.585938 -16.320312 16.546875 -16.90625 C 15.515625 -17.5 14.359375 -17.796875 13.078125 -17.796875 C 11.796875 -17.796875 10.640625 -17.5 9.609375 -16.90625 C 8.578125 -16.320312 7.765625 -15.5 7.171875 -14.4375 C 6.585938 -13.382812 6.296875 -12.1875 6.296875 -10.84375 C 6.296875 -9.5 6.585938 -8.300781 7.171875 -7.25 C 7.765625 -6.195312 8.578125 -5.375 9.609375 -4.78125 C 10.640625 -4.195312 11.796875 -3.90625 13.078125 -3.90625 Z M 13.078125 -3.90625 "/></g></g></g><g fill="#c8a857" fill-opacity="1"><g transform="translate(26.774543, 29.728072)"><g><path d="M 9.703125 0.375 C 7.984375 0.375 6.320312 0.144531 4.71875 -0.3125 C 3.125 -0.78125 1.84375 -1.390625 0.875 -2.140625 L 2.578125 -5.921875 C 3.503906 -5.234375 4.609375 -4.679688 5.890625 -4.265625 C 7.171875 -3.859375 8.453125 -3.65625 9.734375 -3.65625 C 11.160156 -3.65625 12.210938 -3.863281 12.890625 -4.28125 C 13.578125 -4.707031 13.921875 -5.273438 13.921875 -5.984375 C 13.921875 -6.503906 13.71875 -6.929688 13.3125 -7.265625 C 12.90625 -7.609375 12.382812 -7.882812 11.75 -8.09375 C 11.125 -8.300781 10.273438 -8.523438 9.203125 -8.765625 C 7.554688 -9.160156 6.203125 -9.554688 5.140625 -9.953125 C 4.085938 -10.347656 3.179688 -10.976562 2.421875 -11.84375 C 1.671875 -12.707031 1.296875 -13.863281 1.296875 -15.3125 C 1.296875 -16.570312 1.632812 -17.710938 2.3125 -18.734375 C 3 -19.765625 4.03125 -20.578125 5.40625 -21.171875 C 6.78125 -21.773438 8.460938 -22.078125 10.453125 -22.078125 C 11.835938 -22.078125 13.1875 -21.910156 14.5 -21.578125 C 15.820312 -21.242188 16.984375 -20.769531 17.984375 -20.15625 L 16.4375 -16.34375 C 14.425781 -17.476562 12.421875 -18.046875 10.421875 -18.046875 C 9.015625 -18.046875 7.972656 -17.816406 7.296875 -17.359375 C 6.628906 -16.898438 6.296875 -16.300781 6.296875 -15.5625 C 6.296875 -14.820312 6.679688 -14.269531 7.453125 -13.90625 C 8.234375 -13.539062 9.414062 -13.179688 11 -12.828125 C 12.65625 -12.441406 14.007812 -12.050781 15.0625 -11.65625 C 16.113281 -11.257812 17.015625 -10.640625 17.765625 -9.796875 C 18.523438 -8.953125 18.90625 -7.804688 18.90625 -6.359375 C 18.90625 -5.117188 18.554688 -3.984375 17.859375 -2.953125 C 17.171875 -1.929688 16.132812 -1.117188 14.75 -0.515625 C 13.363281 0.078125 11.679688 0.375 9.703125 0.375 Z M 9.703125 0.375 "/></g></g></g></g></g></g><g clip-path="url(#6e4923eafd)"><g clip-path="url(#2c0fbde093)"><g transform="matrix(1, 0, 0, 1, 3, -0.000000000000005856)"><g clip-path="url(#0d1fc8ae89)"><g clip-path="url(#c49d2dc86e)"><g clip-path="url(#8843446474)"><path fill="#c8a857" d="M 0.0859375 0.253906 L 54.289062 0.253906 L 54.289062 21.34375 L 0.0859375 21.34375 Z M 0.0859375 0.253906 " fill-opacity="1" fill-rule="nonzero"/></g></g></g></g></g></g><g clip-path="url(#a370a98586)"><g transform="matrix(1, 0, 0, 1, 52, 10)"><g clip-path="url(#52bb914bd2)"><g clip-path="url(#a708d84f08)"><path fill="#c8a857" d="M 0.0351562 0.800781 L 1.996094 0.800781 L 1.996094 11.34375 L 0.0351562 11.34375 Z M 0.0351562 0.800781 " fill-opacity="1" fill-rule="nonzero"/></g></g></g></g><g clip-path="url(#790784afd4)"><g clip-path="url(#fed5912dc3)"><g transform="matrix(1, 0, 0, 1, 23, 30)"><g clip-path="url(#3b06ac5832)"><g clip-path="url(#2096bba980)"><g clip-path="url(#33cc0c79a8)"><path fill="#c8a857" d="M 0.21875 0.574219 L 14.765625 0.574219 L 14.765625 23.757812 L 0.21875 23.757812 Z M 0.21875 0.574219 " fill-opacity="1" fill-rule="nonzero"/></g></g></g></g></g></g><g clip-path="url(#d1ebac6134)"><g clip-path="url(#c6b11093cb)"><g transform="matrix(1, 0, 0, 1, 26, 14)"><g clip-path="url(#829e7960ef)"><g clip-path="url(#af8e7b7905)"><g clip-path="url(#6de0521928)"><path fill="#ffffff" d="M 0.125 0.00390625 L 33.859375 0.00390625 L 33.859375 33.734375 L 0.125 33.734375 Z M 0.125 0.00390625 " fill-opacity="1" fill-rule="nonzero"/></g></g></g></g><path stroke-linecap="butt" transform="matrix(0.13827, 0, 0, 0.13827, 26.126753, 14.003786)" fill="none" stroke-linejoin="miter" d="M 121.974548 0.000869136 C 54.624491 0.000869136 -0.0126778 54.609787 -0.0126778 121.988095 C -0.0126778 189.338152 54.624491 243.947069 121.974548 243.947069 C 189.352856 243.947069 243.961773 189.338152 243.961773 121.988095 C 243.961773 54.609787 189.352856 0.000869136 121.974548 0.000869136 Z M 121.974548 0.000869136 " stroke="#ffffff" stroke-width="64.508835" stroke-opacity="1" stroke-miterlimit="4"/></g></g><g clip-path="url(#a8af44eb44)"><g clip-path="url(#4ec423d809)"><g transform="matrix(1, 0, 0, 1, 0, 14)"><g clip-path="url(#175c7ff1fd)"><g clip-path="url(#a794d81bde)"><g clip-path="url(#34eb505cca)"><path fill="#ffffff" d="M 0.179688 0.00390625 L 34.574219 0.00390625 L 34.574219 34.398438 L 0.179688 34.398438 Z M 0.179688 0.00390625 " fill-opacity="1" fill-rule="nonzero"/></g></g></g></g></g></g><g clip-path="url(#039e81bf46)"><g clip-path="url(#9f090c4efe)"><path stroke-linecap="butt" transform="matrix(0.13827, 0, 0, 0.13827, 0.178573, 14.003786)" fill="none" stroke-linejoin="miter" d="M 124.368374 0.000869136 C 55.690519 0.000869136 0.00806269 55.683325 0.00806269 124.36118 C 0.00806269 193.067285 55.690519 248.749742 124.368374 248.749742 C 193.074479 248.749742 248.756935 193.067285 248.756935 124.36118 C 248.756935 55.683325 193.074479 0.000869136 124.368374 0.000869136 Z M 124.368374 0.000869136 " stroke="#ffffff" stroke-width="64.508835" stroke-opacity="1" stroke-miterlimit="4"/></g></g><g clip-path="url(#b20ca999e8)"><g clip-path="url(#9d9f85a976)"><g transform="matrix(1, 0, 0, 1, 28, 16)"><g clip-path="url(#6289048088)"><g clip-path="url(#3b7f932700)"><g clip-path="url(#0f986621b3)"><path fill="#0b1c39" d="M 0.691406 0.0703125 L 29.296875 0.0703125 L 29.296875 28.679688 L 0.691406 28.679688 Z M 0.691406 0.0703125 " fill-opacity="1" fill-rule="nonzero"/></g></g></g></g></g></g><g clip-path="url(#4a0416e8ca)"><g clip-path="url(#1de3f1a493)"><path stroke-linecap="butt" transform="matrix(0.13827, 0, 0, 0.13827, 28.689461, 16.072194)" fill="none" stroke-linejoin="miter" d="M 103.44049 -0.0136096 C 46.31724 -0.0136096 0.0140709 46.31781 0.0140709 103.441061 C 0.0140709 160.564311 46.31724 206.86748 103.44049 206.86748 C 160.563741 206.86748 206.86691 160.564311 206.86691 103.441061 C 206.86691 46.31781 160.563741 -0.0136096 103.44049 -0.0136096 Z M 103.44049 -0.0136096 " stroke="#0b1c39" stroke-width="32.254417" stroke-opacity="1" stroke-miterlimit="4"/></g></g><g clip-path="url(#57b751d4e4)"><g clip-path="url(#db0212fb77)"><g transform="matrix(1, 0, 0, 1, 32, 20)"><g clip-path="url(#a85e21f115)"><g clip-path="url(#b1e2d8caa6)"><g clip-path="url(#5edf27390d)"><path fill="#ffffff" d="M 0.574219 0.414062 L 21.410156 0.414062 L 21.410156 21.25 L 0.574219 21.25 Z M 0.574219 0.414062 " fill-opacity="1" fill-rule="nonzero"/></g></g></g></g></g></g><g clip-path="url(#029d29928e)"><g clip-path="url(#ecb774a747)"><g transform="matrix(1, 0, 0, 1, 37, 24)"><g clip-path="url(#cb123c9107)"><g clip-path="url(#79d5329671)"><g clip-path="url(#e06fc89cdc)"><path fill="#0b1c39" d="M 0.460938 0.980469 L 12.3125 0.980469 L 12.3125 12.828125 L 0.460938 12.828125 Z M 0.460938 0.980469 " fill-opacity="1" fill-rule="nonzero"/></g></g></g></g></g></g><g clip-path="url(#87196e0d0c)"><g clip-path="url(#ea8c52c335)"><g transform="matrix(1, 0, 0, 1, 44, 25)"><g clip-path="url(#34da773429)"><g clip-path="url(#31d3ca0890)"><g clip-path="url(#ba710bafc1)"><path fill="#ffffff" d="M 0.269531 0.769531 L 5.003906 0.769531 L 5.003906 5.503906 L 0.269531 5.503906 Z M 0.269531 0.769531 " fill-opacity="1" fill-rule="nonzero"/></g></g></g></g></g></g><g clip-path="url(#e47ac17032)"><g clip-path="url(#3944d8283f)"><g transform="matrix(1, 0, 0, 1, 3, 16)"><g clip-path="url(#0622c219bf)"><g clip-path="url(#506ddfaf82)"><g clip-path="url(#8e6e6e4d83)"><path fill="#0b1c39" d="M 0.371094 0.566406 L 28.976562 0.566406 L 28.976562 29.171875 L 0.371094 29.171875 Z M 0.371094 0.566406 " fill-opacity="1" fill-rule="nonzero"/></g></g></g></g></g></g><g clip-path="url(#f56dd0c46b)"><g clip-path="url(#37e52f1ee2)"><path stroke-linecap="butt" transform="matrix(0.13827, 0, 0, 0.13827, 3.370524, 16.566489)" fill="none" stroke-linejoin="miter" d="M 103.430543 -0.00060029 C 46.307293 -0.00060029 0.00412409 46.302569 0.00412409 103.425819 C 0.00412409 160.57732 46.307293 206.880489 103.430543 206.880489 C 160.553794 206.880489 206.885214 160.57732 206.885214 103.425819 C 206.885214 46.302569 160.553794 -0.00060029 103.430543 -0.00060029 Z M 103.430543 -0.00060029 " stroke="#0b1c39" stroke-width="32.254417" stroke-opacity="1" stroke-miterlimit="4"/></g></g><g clip-path="url(#38672c0478)"><g clip-path="url(#5c3b6e1427)"><g transform="matrix(1, 0, 0, 1, 7, 20)"><g clip-path="url(#cf8d2971d0)"><g clip-path="url(#6bb5b9e589)"><g clip-path="url(#c3e1cb61ef)"><path fill="#ffffff" d="M 0.257812 0.910156 L 21.089844 0.910156 L 21.089844 21.746094 L 0.257812 21.746094 Z M 0.257812 0.910156 " fill-opacity="1" fill-rule="nonzero"/></g></g></g></g></g></g><g clip-path="url(#74e0da0889)"><g clip-path="url(#205c8dc2a4)"><g transform="matrix(1, 0, 0, 1, 12, 25)"><g clip-path="url(#cff01592db)"><g clip-path="url(#b3710d2874)"><g clip-path="url(#cc1f64a53a)"><path fill="#0b1c39" d="M 0.144531 0.476562 L 11.992188 0.476562 L 11.992188 12.324219 L 0.144531 12.324219 Z M 0.144531 0.476562 " fill-opacity="1" fill-rule="nonzero"/></g></g></g></g></g></g><g clip-path="url(#825bea3332)"><g clip-path="url(#a36399d71a)"><g transform="matrix(1, 0, 0, 1, 18, 26)"><g clip-path="url(#d78263706d)"><g clip-path="url(#b6b654d0ee)"><g clip-path="url(#cceb8e1990)"><path fill="#ffffff" d="M 0.914062 0.171875 L 5.644531 0.171875 L 5.644531 4.90625 L 0.914062 4.90625 Z M 0.914062 0.171875 " fill-opacity="1" fill-rule="nonzero"/></g></g></g></g></g></g></g></g></g></svg>